SplineFontDB: 3.0
FontName: Muli-BoldItalic
FullName: Muli Bold Italic
FamilyName: Muli
Weight: Bold
Copyright: Digitized data Copyright (c) 2011-2014, vernon adams.
Version: 2
ItalicAngle: -7
UnderlinePosition: 0
UnderlineWidth: 0
Ascent: 1638
Descent: 410
sfntRevision: 0x00000000
UFOAscent: 1560
UFODescent: -556
LayerCount: 2
Layer: 0 0 "Back"  1
Layer: 1 0 "Fore"  0
FSType: 0
OS2Version: 0
OS2_WeightWidthSlopeOnly: 0
OS2_UseTypoMetrics: 1
CreationTime: 1391733458
ModificationTime: 1391734522
PfmFamily: 17
TTFWeight: 700
TTFWidth: 5
LineGap: 0
VLineGap: 0
OS2TypoAscent: 2364
OS2TypoAOffset: 0
OS2TypoDescent: -582
OS2TypoDOffset: 0
OS2TypoLinegap: 0
OS2WinAscent: 2364
OS2WinAOffset: 0
OS2WinDescent: 582
OS2WinDOffset: 0
HheadAscent: 2364
HheadAOffset: 0
HheadDescent: -582
HheadDOffset: 0
OS2Vendor: 'NeWT'
Lookup: 258 0 0 "kernHorizontalKerninginLatinloo"  {"kernHorizontalKerninginLatinloo subtable"  } ['kern' ('latn' <'dflt' > ) ]
MarkAttachClasses: 1
DEI: 91125
LangName: 1033 "" "" "" "" "" "Version 2.0" "" "Muli is a trademark of Vernon Adams and may be registered in certain jurisdictions." "newtypography" "Vernon Adams" "" "newtypography.co.uk" "newtypography.co.uk" "Copyright (c) 2014, vernon adams.+AAoACgAA-This Font Software is licensed under the SIL Open Font License, Version 1.1.+AAoA-This license is available with a FAQ at:+AAoA-http://scripts.sil.org/OFL+AAoA" "http://scripts.sil.org/OFL" "" "Muli" "Bold" 
PickledData: "(dp1
S'com.typemytype.robofont.foreground.layerStrokeColor'
p2
(F0.5
F0
F0.5
F0.69999999999999996
tp3
sS'com.schriftgestaltung.fontMasterID'
p4
S'CAA31E91-2985-420A-82BA-6B4D8404D924'
p5
sS'GSDimensionPlugin.Dimensions'
p6
(dp7
S'CAA31E91-2985-420A-82BA-6B4D8404D924'
p8
(dp9
ssS'com.superpolator.editor.generateInfo'
p10
S'Generated with LTR Superpolator version 120823_1018_beta_'
p11
sS'com.typemytype.robofont.b.layerStrokeColor'
p12
(F1
F0.75
F0
F0.69999999999999996
tp13
sS'com.schriftgestaltung.useNiceNames'
p14
I01

StartChar: A
Encoding: 65 65 0
Width: 1458
VWidth: 0
Flags: HW
PickledData: "(dp1
S'org.robofab.postScriptHintData'
p2
(dp3
sS'com.typemytype.robofont.layerData'
p4
(dp5
s."
LayerCount: 2
Fore
SplineSet
507 592 m 1
 897 592 l 1
 857 782 815 971 773 1159 c 1
 685 969 596 780 507 592 c 1
-77 0 m 1
 686 1456 l 1
 944 1456 l 1
 1356 0 l 1
 1069 0 l 1
 971 355 l 1
 383 355 l 1
 202 0 l 1
 -77 0 l 1
EndSplineSet
EndChar

StartChar: AE
Encoding: 198 198 1
Width: 2215
VWidth: 0
Flags: HW
PickledData: "(dp1
S'org.robofab.postScriptHintData'
p2
(dp3
sS'com.typemytype.robofont.layerData'
p4
(dp5
S'b'
(dp6
S'name'
p7
S'AE'
p8
sS'lib'
p9
(dp10
sS'unicodes'
p11
(tsS'width'
p12
F2073.5500000000002
sS'contours'
p13
(tsS'components'
p14
(tsS'anchors'
p15
(tsss."
LayerCount: 2
Fore
SplineSet
614 558 m 1
 1080 558 l 1
 1115 1230 l 1
 1082 1230 l 1
 614 558 l 1
-70 0 m 1
 975 1456 l 1
 2059 1456 l 1
 2031 1230 l 1
 1374 1230 l 1
 1363 854 l 1
 1983 854 l 1
 1955 634 l 1
 1363 634 l 1
 1353 226 l 1
 1935 226 l 1
 1907 0 l 1
 1059 0 l 1
 1073 355 l 1
 489 355 l 1
 244 0 l 1
 -70 0 l 1
EndSplineSet
EndChar

StartChar: B
Encoding: 66 66 18
Width: 1367
VWidth: 0
Flags: HW
PickledData: "(dp1
S'org.robofab.postScriptHintData'
p2
(dp3
sS'com.typemytype.robofont.layerData'
p4
(dp5
S'b'
(dp6
S'name'
p7
S'B'
sS'lib'
p8
(dp9
sS'unicodes'
p10
(tsS'width'
p11
F1346.45
sS'contours'
p12
(tsS'components'
p13
(tsS'anchors'
p14
(tsss."
LayerCount: 2
Fore
SplineSet
960 1085 m 0
 960 1209 853 1238 671 1238 c 2
 507 1238 l 1
 459 852 l 1
 676 852 l 2
 812 852 960 906 960 1085 c 0
950 474 m 0
 950 605 867 646 660 646 c 2
 437 646 l 1
 384 217 l 1
 613 217 l 2
 833 217 950 293 950 474 c 0
101 0 m 1
 279 1456 l 1
 682 1456 l 2
 919 1456 1237 1432 1237 1139 c 0
 1237 1121 1235 1103 1233 1083 c 0
 1217 957 1152 842 1001 772 c 1
 1154 730 1220 616 1220 475 c 0
 1220 454 1219 433 1216 411 c 0
 1191 195 997 0 632 0 c 2
 101 0 l 1
EndSplineSet
EndChar

StartChar: C
Encoding: 67 67 20
Width: 1436
VWidth: 0
Flags: HW
PickledData: "(dp1
S'org.robofab.postScriptHintData'
p2
(dp3
sS'com.typemytype.robofont.guides'
p4
(tsS'com.typemytype.robofont.layerData'
p5
(dp6
S'b'
(dp7
S'name'
p8
S'C'
sS'lib'
p9
(dp10
sS'unicodes'
p11
(tsS'width'
p12
F1394.1500000000001
sS'contours'
p13
((dp14
S'points'
p15
((dp16
S'segmentType'
p17
S'curve'
p18
sS'x'
F785
sS'smooth'
p19
I01
sS'y'
F-23
s(dp20
S'y'
F-23
sS'x'
F346
sg19
I00
s(dp21
S'y'
F309
sS'x'
F108
sg19
I00
s(dp22
g17
S'curve'
p23
sS'x'
F108
sg19
I01
sS'y'
F713
s(dp24
S'y'
F1125
sS'x'
F108
sg19
I00
s(dp25
S'y'
F1483
sS'x'
F371
sg19
I00
s(dp26
g17
S'curve'
p27
sS'x'
F814
sg19
I01
sS'y'
F1483
s(dp28
S'y'
F1483
sS'x'
F995
sg19
I00
s(dp29
S'y'
F1437
sS'x'
F1144
sg19
I00
s(dp30
g17
S'curve'
p31
sS'x'
F1265
sg19
I00
sS'y'
F1329
s(dp32
g17
S'line'
p33
sS'x'
F1200
sg19
I00
sS'y'
F1219
s(dp34
S'y'
F1295
sS'x'
F1099
sg19
I00
s(dp35
S'y'
F1334
sS'x'
F969
sg19
I00
s(dp36
g17
S'curve'
p37
sS'x'
F833
sg19
I01
sS'y'
F1334
s(dp38
S'y'
F1334
sS'x'
F464
sg19
I00
s(dp39
S'y'
F1022
sS'x'
F291
sg19
I00
s(dp40
g17
S'curve'
p41
sS'x'
F291
sg19
I01
sS'y'
F712
s(dp42
S'y'
F398
sS'x'
F291
sg19
I00
s(dp43
S'y'
F125
sS'x'
F453
sg19
I00
s(dp44
g17
S'curve'
p45
sS'x'
F811
sg19
I01
sS'y'
F125
s(dp46
S'y'
F125
sS'x'
F974
sg19
I00
s(dp47
S'y'
F172
sS'x'
F1134
sg19
I00
s(dp48
g17
S'curve'
p49
sS'x'
F1243
sg19
I00
sS'y'
F268
s(dp50
g17
S'line'
p51
sS'x'
F1301
sg19
I00
sS'y'
F127
s(dp52
S'y'
F28
sS'x'
F1178
sg19
I00
s(dp53
S'y'
F-23
sS'x'
F996
sg19
I00
stp54
stp55
sS'components'
p56
(tsS'anchors'
p57
(tsss."
LayerCount: 2
Fore
SplineSet
367 642 m 0
 367 365 540 197 786 197 c 0
 914 197 1056 234 1206 344 c 1
 1267 143 l 1
 1095 21 919 -22 743 -22 c 0
 395 -22 98 200 98 612 c 0
 98 649 100 687 105 727 c 0
 168 1236 561 1483 907 1483 c 0
 1073 1483 1236 1446 1374 1326 c 1
 1254 1149 l 1
 1129 1243 1014 1264 902 1264 c 0
 637 1264 367 1024 367 642 c 0
EndSplineSet
EndChar

StartChar: D
Encoding: 68 68 27
Width: 1571
VWidth: 0
Flags: HW
PickledData: "(dp1
S'org.robofab.postScriptHintData'
p2
(dp3
sS'com.typemytype.robofont.layerData'
p4
(dp5
S'b'
(dp6
S'name'
p7
S'D'
sS'lib'
p8
(dp9
sS'unicodes'
p10
(tsS'width'
p11
F1526.5999999999999
sS'contours'
p12
(tsS'components'
p13
(tsS'anchors'
p14
(tsss."
LayerCount: 2
Fore
SplineSet
101 0 m 1
 279 1456 l 1
 685 1456 l 2
 1224 1456 1474 1238 1474 859 c 0
 1474 820 1471 779 1466 737 c 0
 1406 255 1087 0 548 0 c 2
 101 0 l 1
382 218 m 1
 587 218 l 2
 937 218 1156 394 1198 738 c 0
 1202 769 1204 798 1204 826 c 0
 1204 1089 1041 1238 682 1238 c 2
 507 1238 l 1
 382 218 l 1
EndSplineSet
EndChar

StartChar: DEL
Encoding: 127 127 28
Width: 1521
VWidth: 0
Flags: HW
PickledData: "(dp1
S'org.robofab.postScriptHintData'
p2
(dp3
s."
LayerCount: 2
Fore
SplineSet
99 0 m 1
 277 1456 l 1
 1422 1456 l 1
 1244 0 l 1
 99 0 l 1
286 124 m 1
 1087 124 l 1
 1235 1330 l 1
 434 1330 l 1
 286 124 l 1
EndSplineSet
EndChar

StartChar: Delta
Encoding: 916 916 32
Width: 1502
VWidth: 0
Flags: HW
PickledData: "(dp1
S'org.robofab.postScriptHintData'
p2
(dp3
s."
LayerCount: 2
Fore
SplineSet
259 217 m 1
 1059 217 l 1
 763 1159 l 1
 259 217 l 1
-28 0 m 1
 -1 219 l 1
 700 1456 l 1
 971 1456 l 1
 1375 234 l 1
 1347 0 l 1
 -28 0 l 1
EndSplineSet
EndChar

StartChar: E
Encoding: 69 69 35
Width: 1249
VWidth: 0
Flags: HW
PickledData: "(dp1
S'org.robofab.postScriptHintData'
p2
(dp3
sS'com.typemytype.robofont.layerData'
p4
(dp5
s."
LayerCount: 2
Fore
SplineSet
101 0 m 1
 279 1456 l 1
 1198 1456 l 1
 1172 1238 l 1
 507 1238 l 1
 459 849 l 1
 1088 849 l 1
 1060 630 l 1
 434 630 l 1
 384 218 l 1
 1075 218 l 1
 1049 0 l 1
 101 0 l 1
EndSplineSet
EndChar

StartChar: Eng
Encoding: 330 330 46
Width: 1622
VWidth: 0
Flags: HW
PickledData: "(dp1
S'org.robofab.postScriptHintData'
p2
(dp3
sS'com.typemytype.robofont.layerData'
p4
(dp5
s."
LayerCount: 2
Fore
SplineSet
1547 1456 m 1
 1368 1 l 2
 1324 -347 1093 -474 769 -474 c 1
 782 -279 l 1
 944 -279 1097 -256 1123 -41 c 2
 1140 98 l 1
 612 947 l 1
 504 1138 l 1
 365 0 l 1
 132 0 l 1
 312 1456 l 1
 579 1456 l 1
 780 1120 991 795 1183 450 c 1
 1307 1456 l 1
 1547 1456 l 1
EndSplineSet
EndChar

StartChar: Euro
Encoding: 8364 8364 50
Width: 1460
VWidth: 0
Flags: HW
PickledData: "(dp1
S'org.robofab.postScriptHintData'
p2
(dp3
sS'com.typemytype.robofont.layerData'
p4
(dp5
S'b'
(dp6
S'name'
p7
S'Euro'
p8
sS'lib'
p9
(dp10
sS'unicodes'
p11
(tsS'width'
p12
I1190
sS'contours'
p13
(tsS'components'
p14
(tsS'anchors'
p15
(tsss."
LayerCount: 2
Fore
SplineSet
111 504 m 1
 129 616 l 1
 381 616 l 1
 404 824 l 1
 149 824 l 1
 168 942 l 1
 1082 942 l 1
 1061 824 l 1
 439 824 l 1
 415 616 l 1
 1006 616 l 1
 986 504 l 1
 111 504 l 1
EndSplineSet
Refer: 20 67 N 1 0 0 1 185 0 2
EndChar

StartChar: F
Encoding: 70 70 51
Width: 1145
VWidth: 0
Flags: HW
PickledData: "(dp1
S'org.robofab.postScriptHintData'
p2
(dp3
sS'com.typemytype.robofont.layerData'
p4
(dp5
s."
LayerCount: 2
Fore
SplineSet
101 0 m 1
 279 1456 l 1
 1168 1456 l 1
 1141 1238 l 1
 507 1238 l 1
 458 841 l 1
 1056 841 l 1
 1030 622 l 1
 432 622 l 1
 355 0 l 1
 101 0 l 1
EndSplineSet
EndChar

StartChar: G
Encoding: 71 71 53
Width: 1538
VWidth: 0
Flags: HW
PickledData: "(dp1
S'org.robofab.postScriptHintData'
p2
(dp3
sS'com.typemytype.robofont.layerData'
p4
(dp5
S'b'
(dp6
S'name'
p7
S'G'
sS'lib'
p8
(dp9
sS'unicodes'
p10
(tsS'width'
p11
F1528.2
sS'contours'
p12
((dp13
S'points'
p14
((dp15
S'segmentType'
p16
S'curve'
p17
sS'x'
F841
sS'smooth'
p18
I01
sS'y'
F-23
s(dp19
S'y'
F-23
sS'x'
F361
sg18
I00
s(dp20
S'y'
F267
sS'x'
F108
sg18
I00
s(dp21
g16
S'curve'
p22
sS'x'
F108
sg18
I01
sS'y'
F701
s(dp23
S'y'
F1129
sS'x'
F108
sg18
I00
s(dp24
S'y'
F1483
sS'x'
F382
sg18
I00
s(dp25
g16
S'curve'
p26
sS'x'
F852
sg18
I01
sS'y'
F1483
s(dp27
S'y'
F1483
sS'x'
F1059
sg18
I00
s(dp28
S'y'
F1415
sS'x'
F1233
sg18
I00
s(dp29
g16
S'curve'
p30
sS'x'
F1334
sg18
I00
sS'y'
F1308
s(dp31
g16
S'line'
p32
sS'x'
F1262
sg18
I00
sS'y'
F1196
s(dp33
S'y'
F1291
sS'x'
F1164
sg18
I00
s(dp34
S'y'
F1334
sS'x'
F1034
sg18
I00
s(dp35
g16
S'curve'
p36
sS'x'
F848
sg18
I01
sS'y'
F1334
s(dp37
S'y'
F1334
sS'x'
F477
sg18
I00
s(dp38
S'y'
F1033
sS'x'
F286
sg18
I00
s(dp39
g16
S'curve'
p40
sS'x'
F286
sg18
I01
sS'y'
F714
s(dp41
S'y'
F365
sS'x'
F286
sg18
I00
s(dp42
S'y'
F125
sS'x'
F472
sg18
I00
s(dp43
g16
S'curve'
p44
sS'x'
F855
sg18
I01
sS'y'
F125
s(dp45
S'y'
F125
sS'x'
F968
sg18
I00
s(dp46
S'y'
F143
sS'x'
F1088
sg18
I00
s(dp47
g16
S'curve'
p48
sS'x'
F1184
sg18
I00
sS'y'
F182
s(dp49
g16
S'line'
p50
sS'x'
F1184
sg18
I00
sS'y'
F608
s(dp51
g16
S'line'
p52
sS'x'
F811
sg18
I00
sS'y'
F608
s(dp53
g16
S'line'
p54
sS'x'
F811
sg18
I00
sS'y'
F757
s(dp55
g16
S'line'
p56
sS'x'
F1356
sg18
I00
sS'y'
F757
s(dp57
g16
S'line'
p58
sS'x'
F1356
sg18
I00
sS'y'
F81
s(dp59
S'y'
F6
sS'x'
F1195
sg18
I00
s(dp60
S'y'
F-23
sS'x'
F1012
sg18
I00
stp61
stp62
sS'components'
p63
(tsS'anchors'
p64
(tsss."
LayerCount: 2
Fore
SplineSet
759 -23 m 0
 318 -23 94 213 94 580 c 0
 94 620 97 661 102 704 c 0
 153 1120 468 1483 969 1483 c 0
 1263 1483 1380 1386 1437 1338 c 1
 1313 1160 l 1
 1256 1205 1149 1264 944 1264 c 0
 594 1264 402 987 368 715 c 0
 364 683 362 651 362 621 c 0
 362 367 502 194 797 194 c 0
 878 194 967 208 1051 232 c 1
 1094 576 l 1
 754 576 l 1
 779 793 l 1
 1377 793 l 1
 1291 88 l 1
 1097 6 927 -23 759 -23 c 0
EndSplineSet
EndChar

StartChar: H
Encoding: 72 72 60
Width: 1572
VWidth: 0
Flags: HW
PickledData: "(dp1
S'org.robofab.postScriptHintData'
p2
(dp3
sS'com.typemytype.robofont.layerData'
p4
(dp5
S'b'
(dp6
S'name'
p7
S'H'
sS'lib'
p8
(dp9
sS'unicodes'
p10
(tsS'width'
p11
F1576.45
sS'contours'
p12
(tsS'components'
p13
(tsS'anchors'
p14
(tsss."
LayerCount: 2
Fore
SplineSet
101 0 m 1
 279 1456 l 1
 533 1456 l 1
 460 857 l 1
 1143 857 l 1
 1216 1456 l 1
 1470 1456 l 1
 1292 0 l 1
 1043 0 l 1
 1122 637 l 1
 439 637 l 1
 360 0 l 1
 101 0 l 1
EndSplineSet
EndChar

StartChar: Hbar
Encoding: 294 294 61
Width: 1572
VWidth: 0
Flags: HW
PickledData: "(dp1
S'org.robofab.postScriptHintData'
p2
(dp3
sS'com.typemytype.robofont.layerData'
p4
(dp5
S'b'
(dp6
S'name'
p7
S'Hbar'
p8
sS'lib'
p9
(dp10
sS'unicodes'
p11
(tsS'width'
p12
F1532.55
sS'contours'
p13
(tsS'components'
p14
(tsS'anchors'
p15
(tsss."
LayerCount: 2
Fore
SplineSet
136 1062 m 1
 154 1213 l 1
 1519 1213 l 1
 1501 1062 l 1
 136 1062 l 1
EndSplineSet
Refer: 60 72 N 1 0 0 1 0 0 2
EndChar

StartChar: I
Encoding: 73 73 63
Width: 586
VWidth: 0
Flags: HW
PickledData: "(dp1
S'org.robofab.postScriptHintData'
p2
(dp3
sS'com.typemytype.robofont.layerData'
p4
(dp5
s."
LayerCount: 2
Fore
SplineSet
71 0 m 1
 249 1456 l 1
 503 1456 l 1
 325 0 l 1
 71 0 l 1
EndSplineSet
EndChar

StartChar: J
Encoding: 74 74 77
Width: 1019
VWidth: 0
Flags: HW
PickledData: "(dp1
S'org.robofab.postScriptHintData'
p2
(dp3
sS'com.typemytype.robofont.layerData'
p4
(dp5
S'b'
(dp6
S'name'
p7
S'J'
sS'lib'
p8
(dp9
sS'unicodes'
p10
(tsS'width'
p11
F731.54999999999995
sS'contours'
p12
(tsS'components'
p13
(tsS'anchors'
p14
(tsss."
LayerCount: 2
Fore
SplineSet
307 -331 m 0
 222 -331 120 -314 -6 -267 c 1
 63 -74 l 1
 166 -108 236 -118 287 -118 c 0
 440 -118 504 -27 521 110 c 2
 686 1456 l 1
 940 1456 l 1
 776 122 l 2
 740 -172 565 -331 307 -331 c 0
EndSplineSet
EndChar

StartChar: K
Encoding: 75 75 79
Width: 1351
VWidth: 0
Flags: HW
PickledData: "(dp1
S'org.robofab.postScriptHintData'
p2
(dp3
sS'com.typemytype.robofont.layerData'
p4
(dp5
S'b'
(dp6
S'name'
p7
S'K'
sS'lib'
p8
(dp9
sS'unicodes'
p10
(tsS'width'
p11
F1289.95
sS'contours'
p12
(tsS'components'
p13
(tsS'anchors'
p14
(tsss."
LayerCount: 2
Fore
SplineSet
101 0 m 1
 279 1456 l 1
 533 1456 l 1
 456 820 l 1
 1094 1456 l 1
 1411 1456 l 1
 694 753 l 1
 1282 0 l 1
 952 0 l 1
 438 651 l 1
 358 0 l 1
 101 0 l 1
EndSplineSet
EndChar

StartChar: L
Encoding: 76 76 82
Width: 1173
VWidth: 0
Flags: HW
PickledData: "(dp1
S'org.robofab.postScriptHintData'
p2
(dp3
sS'com.typemytype.robofont.layerData'
p4
(dp5
s."
AnchorPoint: "caron.alt" 363 1026 basechar 0
LayerCount: 2
Fore
SplineSet
101 0 m 1
 279 1456 l 1
 533 1456 l 1
 382 218 l 1
 1055 218 l 1
 1029 0 l 1
 101 0 l 1
EndSplineSet
EndChar

StartChar: Lslash
Encoding: 321 321 88
Width: 1166
VWidth: 0
Flags: HW
PickledData: "(dp1
S'org.robofab.postScriptHintData'
p2
(dp3
sS'com.typemytype.robofont.layerData'
p4
(dp5
s."
LayerCount: 2
Fore
SplineSet
-2 421 m 1
 26 646 l 1
 657 1096 l 1
 629 871 l 1
 -2 421 l 1
EndSplineSet
Refer: 82 76 N 1 0 0 1 0 0 2
EndChar

StartChar: M
Encoding: 77 77 89
Width: 1987
VWidth: 0
Flags: HW
PickledData: "(dp1
S'org.robofab.postScriptHintData'
p2
(dp3
sS'com.typemytype.robofont.layerData'
p4
(dp5
S'b'
(dp6
S'name'
p7
S'M'
sS'lib'
p8
(dp9
sS'unicodes'
p10
(tsS'width'
p11
F1905.0999999999999
sS'contours'
p12
(tsS'components'
p13
(tsS'anchors'
p14
(tsss."
LayerCount: 2
Fore
SplineSet
101 0 m 1
 279 1456 l 1
 577 1456 l 1
 701 1079 823 701 948 326 c 1
 1165 699 1375 1079 1588 1456 c 1
 1886 1456 l 1
 1708 0 l 1
 1470 0 l 1
 1598 1040 l 1
 1394 698 1200 347 1001 0 c 1
 814 0 l 1
 699 341 592 690 470 1023 c 1
 346 0 l 1
 101 0 l 1
EndSplineSet
EndChar

StartChar: N
Encoding: 78 78 91
Width: 1630
VWidth: 0
Flags: HW
PickledData: "(dp1
S'org.robofab.postScriptHintData'
p2
(dp3
sS'com.typemytype.robofont.layerData'
p4
(dp5
S'b'
(dp6
S'name'
p7
S'N'
sS'lib'
p8
(dp9
sS'unicodes'
p10
(tsS'width'
p11
F1578.1500000000001
sS'contours'
p12
(tsS'components'
p13
(tsS'anchors'
p14
(tsss."
LayerCount: 2
Fore
SplineSet
101 0 m 1
 279 1456 l 1
 548 1456 l 1
 751 1099 951 739 1157 384 c 1
 1287 1456 l 1
 1529 1456 l 1
 1351 0 l 1
 1081 0 l 1
 876 358 673 717 467 1074 c 1
 336 0 l 1
 101 0 l 1
EndSplineSet
EndChar

StartChar: O
Encoding: 79 79 98
Width: 1671
VWidth: 0
Flags: HW
PickledData: "(dp1
S'org.robofab.postScriptHintData'
p2
(dp3
sS'com.typemytype.robofont.guides'
p4
((dp5
S'y'
I727
sS'x'
I231
sS'magnetic'
p6
I5
sS'angle'
p7
I0
sS'isGlobal'
p8
I00
s(dp9
S'y'
I1254
sS'x'
I804
sg6
I5
sg7
F90
sg8
I00
stp10
sS'com.typemytype.robofont.layerData'
p11
(dp12
S'b'
(dp13
S'name'
p14
S'O'
sS'lib'
p15
(dp16
sS'unicodes'
p17
(tsS'width'
p18
F1630.8
sS'contours'
p19
(tsS'components'
p20
(tsS'anchors'
p21
(tsss."
LayerCount: 2
Fore
SplineSet
748 -23 m 0
 335 -23 98 221 98 608 c 0
 98 649 101 691 106 735 c 0
 161 1181 474 1483 935 1483 c 0
 1337 1483 1573 1238 1573 858 c 0
 1573 818 1570 777 1565 735 c 0
 1509 275 1204 -23 748 -23 c 0
373 616 m 0
 373 346 503 194 768 194 c 0
 1069 194 1247 392 1289 735 c 0
 1294 775 1296 812 1296 848 c 0
 1296 1111 1164 1266 904 1266 c 0
 575 1266 373 1012 373 616 c 0
EndSplineSet
EndChar

StartChar: OE
Encoding: 338 338 99
Width: 2057
VWidth: 0
Flags: HW
PickledData: "(dp1
S'org.robofab.postScriptHintData'
p2
(dp3
sS'com.typemytype.robofont.layerData'
p4
(dp5
S'b'
(dp6
S'name'
p7
S'OE'
p8
sS'lib'
p9
(dp10
sS'unicodes'
p11
(tsS'width'
p12
F2049.1500000000001
sS'contours'
p13
(tsS'components'
p14
(tsS'anchors'
p15
(tsss."
LayerCount: 2
Fore
SplineSet
756 174 m 0
 932 174 1012 240 1024 251 c 1
 1138 1191 l 1
 1102 1223 1038 1268 907 1268 c 0
 888 1268 868 1267 846 1265 c 0
 647 1244 426 1107 380 725 c 0
 375 683 372 643 372 605 c 0
 372 319 522 174 756 174 c 0
885 1483 m 0
 1089 1483 1157 1407 1164 1398 c 1
 1171 1456 l 1
 2007 1456 l 1
 1980 1239 l 1
 1398 1239 l 1
 1351 854 l 1
 1897 854 l 1
 1869 636 l 1
 1326 636 l 1
 1275 217 l 1
 1883 217 l 1
 1856 0 l 1
 992 0 l 1
 1000 63 l 1
 1000 63 898 -19 726 -24 c 1
 698 -24 l 2
 363 -24 97 169 97 590 c 0
 97 1146 470 1483 885 1483 c 0
EndSplineSet
EndChar

StartChar: Omega
Encoding: 937 937 111
Width: 1603
VWidth: 0
Flags: HW
PickledData: "(dp1
S'org.robofab.postScriptHintData'
p2
(dp3
sS'com.typemytype.robofont.layerData'
p4
(dp5
s."
LayerCount: 2
Fore
SplineSet
887 1479 m 0
 1256 1479 1524 1268 1524 909 c 0
 1524 878 1522 847 1518 814 c 0
 1487 554 1402 368 1174 208 c 1
 1501 211 l 1
 1450 0 l 1
 824 0 l 1
 845 170 l 1
 1045 287 1212 496 1246 769 c 0
 1249 794 1251 824 1251 857 c 0
 1251 1029 1188 1274 864 1274 c 0
 467 1274 379 916 361 768 c 0
 357 737 355 706 355 677 c 0
 355 448 467 275 618 170 c 1
 597 0 l 1
 -21 0 l 1
 -17 211 l 1
 300 208 l 1
 151 335 92 480 92 670 c 0
 92 1170 434 1479 887 1479 c 0
EndSplineSet
EndChar

StartChar: Oslash
Encoding: 216 216 113
Width: 1671
VWidth: 0
Flags: HW
PickledData: "(dp1
S'org.robofab.postScriptHintData'
p2
(dp3
sS'com.typemytype.robofont.layerData'
p4
(dp5
S'b'
(dp6
S'name'
p7
S'Oslash'
p8
sS'lib'
p9
(dp10
sS'unicodes'
p11
(tsS'width'
p12
F1663
sS'contours'
p13
(tsS'components'
p14
(tsS'anchors'
p15
(tsss."
LayerCount: 2
Fore
SplineSet
748 -23 m 0
 636 -23 536 -5 451 29 c 1
 348 -128 l 1
 238 -75 l 1
 344 86 l 1
 185 193 98 374 98 608 c 0
 98 649 101 691 106 735 c 0
 161 1181 474 1483 935 1483 c 0
 1046 1483 1144 1464 1228 1429 c 1
 1324 1575 l 1
 1434 1523 l 1
 1334 1372 l 1
 1488 1265 1573 1085 1573 858 c 0
 1573 818 1570 777 1565 735 c 0
 1509 275 1204 -23 748 -23 c 0
1195 1159 m 1
 582 227 l 1
 634 205 696 194 768 194 c 0
 1069 194 1247 392 1289 735 c 0
 1294 775 1296 812 1296 848 c 0
 1296 981 1263 1087 1195 1159 c 1
373 616 m 0
 373 474 409 366 481 294 c 1
 1096 1229 l 1
 1043 1253 979 1266 904 1266 c 0
 575 1266 373 1012 373 616 c 0
EndSplineSet
EndChar

StartChar: P
Encoding: 80 80 116
Width: 1299
VWidth: 0
Flags: HW
PickledData: "(dp1
S'org.robofab.postScriptHintData'
p2
(dp3
sS'com.typemytype.robofont.layerData'
p4
(dp5
S'b'
(dp6
S'name'
p7
S'P'
sS'lib'
p8
(dp9
sS'unicodes'
p10
(tsS'width'
p11
F1252.6500000000001
sS'contours'
p12
((dp13
S'points'
p14
((dp15
S'segmentType'
p16
S'line'
p17
sS'x'
F360
sS'smooth'
p18
I00
sS'y'
F828
s(dp19
g16
S'line'
p20
sS'x'
F580
sg18
I01
sS'y'
F828
s(dp21
S'y'
F828
sS'x'
F775
sg18
I00
s(dp22
S'y'
F881
sS'x'
F973
sg18
I00
s(dp23
g16
S'curve'
p24
sS'x'
F973
sg18
I01
sS'y'
F1077
s(dp25
S'y'
F1272
sS'x'
F973
sg18
I00
s(dp26
S'y'
F1308
sS'x'
F807
sg18
I00
s(dp27
g16
S'curve'
p28
sS'x'
F592
sg18
I01
sS'y'
F1308
s(dp29
g16
S'line'
p30
sS'x'
F360
sg18
I00
sS'y'
F1308
stp31
s(dp32
g14
((dp33
g16
S'line'
p34
sS'x'
F360
sg18
I00
sS'y'
F148
s(dp35
g16
S'line'
p36
sS'x'
F667
sg18
I01
sS'y'
F148
s(dp37
S'y'
F148
sS'x'
F906
sg18
I00
s(dp38
S'y'
F230
sS'x'
F1041
sg18
I00
s(dp39
g16
S'curve'
p40
sS'x'
F1041
sg18
I01
sS'y'
F406
s(dp41
S'y'
F617
sS'x'
F1041
sg18
I00
s(dp42
S'y'
F680
sS'x'
F889
sg18
I00
s(dp43
g16
S'curve'
p44
sS'x'
F610
sg18
I01
sS'y'
F680
s(dp45
g16
S'line'
p46
sS'x'
F360
sg18
I00
sS'y'
F680
stp47
s(dp48
g14
((dp49
g16
S'line'
p50
sS'x'
F188
sg18
I00
sS'y'
F0
s(dp51
g16
S'line'
p52
sS'x'
F188
sg18
I00
sS'y'
F1456
s(dp53
g16
S'line'
p54
sS'x'
F502
sg18
I01
sS'y'
F1456
s(dp55
S'y'
F1456
sS'x'
F765
sg18
I00
s(dp56
S'y'
F1443
sS'x'
F1154
sg18
I00
s(dp57
g16
S'curve'
p58
sS'x'
F1154
sg18
I01
sS'y'
F1105
s(dp59
S'y'
F944
sS'x'
F1154
sg18
I00
s(dp60
S'y'
F814
sS'x'
F1045
sg18
I00
s(dp61
g16
S'curve'
p62
sS'x'
F889
sg18
I00
sS'y'
F769
s(dp63
S'y'
F734
sS'x'
F1086
sg18
I00
s(dp64
S'y'
F605
sS'x'
F1223
sg18
I00
s(dp65
g16
S'curve'
p66
sS'x'
F1223
sg18
I01
sS'y'
F403
s(dp67
S'y'
F189
sS'x'
F1223
sg18
I00
s(dp68
S'y'
F0
sS'x'
F1059
sg18
I00
s(dp69
g16
S'curve'
p70
sS'x'
F739
sg18
I01
sS'y'
F0
stp71
stp72
sS'components'
p73
(tsS'anchors'
p74
(tsss."
LayerCount: 2
Fore
SplineSet
1006 1080 m 0
 1006 1235 872 1235 678 1235 c 2
 507 1235 l 1
 459 845 l 1
 676 845 l 2
 869 845 1006 887 1006 1080 c 0
101 0 m 1
 279 1456 l 1
 694 1456 l 2
 1013 1456 1275 1429 1275 1121 c 0
 1275 1096 1274 1070 1270 1041 c 0
 1230 724 1007 628 653 628 c 2
 432 628 l 1
 355 0 l 1
 101 0 l 1
EndSplineSet
EndChar

StartChar: Q
Encoding: 81 81 118
Width: 1671
VWidth: 0
Flags: HW
PickledData: "(dp1
S'org.robofab.postScriptHintData'
p2
(dp3
sS'com.typemytype.robofont.layerData'
p4
(dp5
S'b'
(dp6
S'name'
p7
S'Q'
sS'lib'
p8
(dp9
sS'unicodes'
p10
(tsS'width'
p11
F1628.2
sS'contours'
p12
(tsS'components'
p13
(tsS'anchors'
p14
(tsss."
LayerCount: 2
Fore
SplineSet
1143 -447 m 1
 1143 -447 928 -189 828 68 c 1
 1055 113 l 1
 1113 -54 1301 -297 1301 -297 c 1
 1143 -447 l 1
EndSplineSet
Refer: 98 79 N 1 0 0 1 0 0 2
EndChar

StartChar: R
Encoding: 82 82 119
Width: 1388
VWidth: 0
Flags: HW
PickledData: "(dp1
S'org.robofab.postScriptHintData'
p2
(dp3
sS'com.typemytype.robofont.guides'
p4
(tsS'com.typemytype.robofont.layerData'
p5
(dp6
S'b'
(dp7
S'name'
p8
S'R'
sS'lib'
p9
(dp10
sS'unicodes'
p11
(tsS'width'
p12
F1341
sS'contours'
p13
((dp14
S'points'
p15
((dp16
S'segmentType'
p17
S'line'
p18
sS'x'
F360
sS'smooth'
p19
I00
sS'y'
F799
s(dp20
g17
S'line'
p21
sS'x'
F615
sg19
I01
sS'y'
F799
s(dp22
S'y'
F799
sS'x'
F795
sg19
I00
s(dp23
S'y'
F854
sS'x'
F932
sg19
I00
s(dp24
g17
S'curve'
p25
sS'x'
F932
sg19
I01
sS'y'
F1058
s(dp26
S'y'
F1259
sS'x'
F932
sg19
I00
s(dp27
S'y'
F1308
sS'x'
F833
sg19
I00
s(dp28
g17
S'curve'
p29
sS'x'
F626
sg19
I01
sS'y'
F1308
s(dp30
g17
S'line'
p31
sS'x'
F360
sg19
I00
sS'y'
F1308
stp32
s(dp33
g15
((dp34
g17
S'line'
p35
sS'x'
F188
sg19
I00
sS'y'
F0
s(dp36
g17
S'line'
p37
sS'x'
F188
sg19
I00
sS'y'
F1456
s(dp38
g17
S'line'
p39
sS'x'
F533
sg19
I01
sS'y'
F1456
s(dp40
S'y'
F1456
sS'x'
F771
sg19
I00
s(dp41
S'y'
F1452
sS'x'
F1114
sg19
I00
s(dp42
g17
S'curve'
p43
sS'x'
F1114
sg19
I01
sS'y'
F1074
s(dp44
S'y'
F890
sS'x'
F1114
sg19
I00
s(dp45
S'y'
F762
sS'x'
F1035
sg19
I00
s(dp46
g17
S'curve'
p47
sS'x'
F847
sg19
I00
sS'y'
F715
s(dp48
g17
S'line'
p49
sS'x'
F848
sg19
I00
sS'y'
F715
s(dp50
S'y'
F662
sS'x'
F1012
sg19
I00
s(dp51
S'y'
F510
sS'x'
F1039
sg19
I00
s(dp52
g17
S'curve'
p53
sS'x'
F1159
sg19
I01
sS'y'
F214
s(dp54
g17
S'line'
p55
sS'x'
F1246
sg19
I00
sS'y'
F0
s(dp56
g17
S'line'
p57
sS'x'
F1061
sg19
I00
sS'y'
F0
s(dp58
g17
S'line'
p59
sS'x'
F896
sg19
I01
sS'y'
F419
s(dp60
S'y'
F600
sS'x'
F825
sg19
I00
s(dp61
S'y'
F652
sS'x'
F797
sg19
I00
s(dp62
g17
S'curve'
p63
sS'x'
F619
sg19
I01
sS'y'
F652
s(dp64
g17
S'line'
p65
sS'x'
F360
sg19
I00
sS'y'
F652
s(dp66
g17
S'line'
p67
sS'x'
F360
sg19
I00
sS'y'
F0
stp68
stp69
sS'components'
p70
(tsS'anchors'
p71
(tsss."
LayerCount: 2
Fore
SplineSet
997 1087 m 0
 997 1209 922 1238 774 1238 c 2
 504 1238 l 1
 453 831 l 1
 696 831 l 2
 860 831 997 889 997 1087 c 0
101 0 m 1
 279 1456 l 1
 804 1456 l 2
 1080 1456 1270 1389 1270 1129 c 0
 1270 1106 1268 1081 1265 1054 c 0
 1245 902 1141 756 929 709 c 1
 997 668 1059 605 1093 481 c 2
 1232 0 l 1
 957 0 l 1
 843 433 l 2
 806 574 762 616 631 616 c 2
 431 616 l 1
 355 0 l 1
 101 0 l 1
EndSplineSet
EndChar

StartChar: S
Encoding: 83 83 125
Width: 1256
VWidth: 0
Flags: HW
PickledData: "(dp1
S'org.robofab.postScriptHintData'
p2
(dp3
sS'com.typemytype.robofont.layerData'
p4
(dp5
S'b'
(dp6
S'name'
p7
S'S'
sS'lib'
p8
(dp9
sS'unicodes'
p10
(tsS'width'
p11
F1211
sS'contours'
p12
((dp13
S'points'
p14
((dp15
S'segmentType'
p16
S'curve'
p17
sS'x'
F596
sS'smooth'
p18
I01
sS'y'
F-23
s(dp19
S'y'
F-23
sS'x'
F321
sg18
I00
s(dp20
S'y'
F120
sS'x'
F158
sg18
I00
s(dp21
g16
S'curve'
p22
sS'x'
F140
sg18
I00
sS'y'
F141
s(dp23
g16
S'line'
p24
sS'x'
F219
sg18
I00
sS'y'
F271
s(dp25
S'y'
F243
sS'x'
F256
sg18
I00
s(dp26
S'y'
F125
sS'x'
F393
sg18
I00
s(dp27
g16
S'curve'
p28
sS'x'
F595
sg18
I01
sS'y'
F125
s(dp29
S'y'
F125
sS'x'
F797
sg18
I00
s(dp30
S'y'
F204
sS'x'
F898
sg18
I00
s(dp31
g16
S'curve'
p32
sS'x'
F898
sg18
I01
sS'y'
F360
s(dp33
S'y'
F536
sS'x'
F898
sg18
I00
s(dp34
S'y'
F601
sS'x'
F709
sg18
I00
s(dp35
g16
S'curve'
p36
sS'x'
F521
sg18
I01
sS'y'
F681
s(dp37
S'y'
F761
sS'x'
F333
sg18
I00
s(dp38
S'y'
F857
sS'x'
F145
sg18
I00
s(dp39
g16
S'curve'
p40
sS'x'
F145
sg18
I01
sS'y'
F1095
s(dp41
S'y'
F1350
sS'x'
F145
sg18
I00
s(dp42
S'y'
F1483
sS'x'
F357
sg18
I00
s(dp43
g16
S'curve'
p44
sS'x'
F620
sg18
I01
sS'y'
F1483
s(dp45
S'y'
F1483
sS'x'
F891
sg18
I00
s(dp46
S'y'
F1362
sS'x'
F1009
sg18
I00
s(dp47
g16
S'curve'
p48
sS'x'
F1034
sg18
I00
sS'y'
F1335
s(dp49
g16
S'line'
p50
sS'x'
F951
sg18
I00
sS'y'
F1217
s(dp51
S'y'
F1242
sS'x'
F921
sg18
I00
s(dp52
S'y'
F1334
sS'x'
F819
sg18
I00
s(dp53
g16
S'curve'
p54
sS'x'
F640
sg18
I01
sS'y'
F1334
s(dp55
S'y'
F1334
sS'x'
F478
sg18
I00
s(dp56
S'y'
F1270
sS'x'
F328
sg18
I00
s(dp57
g16
S'curve'
p58
sS'x'
F328
sg18
I01
sS'y'
F1105
s(dp59
S'y'
F934
sS'x'
F328
sg18
I00
s(dp60
S'y'
F868
sS'x'
F515
sg18
I00
s(dp61
g16
S'curve'
p62
sS'x'
F703
sg18
I01
sS'y'
F785
s(dp63
S'y'
F702
sS'x'
F891
sg18
I00
s(dp64
S'y'
F602
sS'x'
F1078
sg18
I00
s(dp65
g16
S'curve'
p66
sS'x'
F1078
sg18
I01
sS'y'
F364
s(dp67
S'y'
F78
sS'x'
F1078
sg18
I00
s(dp68
S'y'
F-23
sS'x'
F868
sg18
I00
stp69
stp70
sS'components'
p71
(tsS'anchors'
p72
(tsss."
LayerCount: 2
Fore
SplineSet
833 439 m 0
 833 507 801 550 648 609 c 0
 592 629 515 653 451 676 c 0
 256 754 156 845 156 1020 c 0
 156 1333 408 1483 711 1483 c 0
 980 1483 1089 1433 1198 1315 c 1
 1046 1147 l 1
 953 1250 819 1264 721 1264 c 0
 555 1264 429 1210 429 1057 c 0
 429 982 466 941 620 885 c 0
 681 862 768 836 832 811 c 0
 1027 729 1105 640 1105 476 c 0
 1105 113 827 -23 531 -23 c 0
 337 -23 138 36 43 143 c 1
 173 325 l 1
 261 249 430 194 541 194 c 0
 735 194 833 271 833 439 c 0
EndSplineSet
EndChar

StartChar: T
Encoding: 84 84 132
Width: 1181
VWidth: 0
Flags: HW
PickledData: "(dp1
S'org.robofab.postScriptHintData'
p2
(dp3
sS'com.typemytype.robofont.layerData'
p4
(dp5
s."
LayerCount: 2
Fore
SplineSet
371 0 m 1
 523 1238 l 1
 74 1238 l 1
 100 1456 l 1
 1259 1456 l 1
 1233 1238 l 1
 777 1238 l 1
 625 0 l 1
 371 0 l 1
EndSplineSet
EndChar

StartChar: Thorn
Encoding: 222 222 137
Width: 1300
VWidth: 0
Flags: HW
PickledData: "(dp1
S'org.robofab.postScriptHintData'
p2
(dp3
sS'com.typemytype.robofont.layerData'
p4
(dp5
s."
LayerCount: 2
Fore
SplineSet
957 817 m 0
 957 970 837 1007 646 1007 c 2
 474 1007 l 1
 418 545 l 1
 640 545 l 2
 829 545 957 626 957 817 c 0
570 326 m 2
 390 326 l 1
 351 0 l 1
 101 0 l 1
 279 1456 l 1
 532 1456 l 1
 503 1223 l 1
 661 1223 l 2
 979 1223 1232 1157 1232 851 c 0
 1232 477 913 326 570 326 c 2
EndSplineSet
EndChar

StartChar: U
Encoding: 85 85 138
Width: 1509
VWidth: 0
Flags: HW
PickledData: "(dp1
S'org.robofab.postScriptHintData'
p2
(dp3
sS'com.typemytype.robofont.layerData'
p4
(dp5
S'b'
(dp6
S'name'
p7
S'U'
sS'lib'
p8
(dp9
sS'unicodes'
p10
(tsS'width'
p11
F1496.9000000000001
sS'contours'
p12
(tsS'components'
p13
(tsS'anchors'
p14
(tsss."
LayerCount: 2
Fore
SplineSet
664 -23 m 0
 255 -23 140 187 140 453 c 0
 140 500 144 549 150 599 c 2
 255 1456 l 1
 509 1456 l 1
 401 588 l 2
 397 554 395 524 395 495 c 0
 395 263 524 194 691 194 c 0
 883 194 1037 281 1074 589 c 2
 1182 1456 l 1
 1436 1456 l 1
 1331 598 l 2
 1291 273 1153 -23 664 -23 c 0
EndSplineSet
EndChar

StartChar: V
Encoding: 86 86 152
Width: 1393
VWidth: 0
Flags: HW
PickledData: "(dp1
S'org.robofab.postScriptHintData'
p2
(dp3
sS'com.typemytype.robofont.layerData'
p4
(dp5
S'b'
(dp6
S'name'
p7
S'V'
sS'lib'
p8
(dp9
sS'unicodes'
p10
(tsS'width'
p11
F1320.1500000000001
sS'contours'
p12
(tsS'components'
p13
(tsS'anchors'
p14
(tsss."
LayerCount: 2
Fore
SplineSet
482 0 m 1
 106 1456 l 1
 391 1456 l 1
 479 1082 563 704 654 333 c 1
 838 705 1017 1082 1198 1456 c 1
 1465 1456 l 1
 734 0 l 1
 482 0 l 1
EndSplineSet
EndChar

StartChar: W
Encoding: 87 87 153
Width: 2096
VWidth: 0
Flags: HW
PickledData: "(dp1
S'org.robofab.postScriptHintData'
p2
(dp3
sS'com.typemytype.robofont.layerData'
p4
(dp5
S'b'
(dp6
S'name'
p7
S'W'
sS'lib'
p8
(dp9
sS'unicodes'
p10
(tsS'width'
p11
F1988.8499999999999
sS'contours'
p12
(tsS'components'
p13
(tsS'anchors'
p14
(tsss."
LayerCount: 2
Fore
SplineSet
339 0 m 1
 101 1456 l 1
 371 1456 l 1
 425 1074 484 696 531 306 c 1
 684 700 857 1074 1022 1456 c 1
 1264 1456 l 1
 1338 1072 1422 698 1483 301 c 1
 1621 691 1768 1072 1911 1456 c 1
 2173 1456 l 1
 1589 0 l 1
 1298 0 l 1
 1093 1105 l 1
 626 0 l 1
 339 0 l 1
EndSplineSet
EndChar

StartChar: X
Encoding: 88 88 158
Width: 1407
VWidth: 0
Flags: HW
PickledData: "(dp1
S'org.robofab.postScriptHintData'
p2
(dp3
sS'com.typemytype.robofont.layerData'
p4
(dp5
S'b'
(dp6
S'name'
p7
S'X'
sS'lib'
p8
(dp9
sS'unicodes'
p10
(tsS'width'
p11
F1257.7
sS'contours'
p12
(tsS'components'
p13
(tsS'anchors'
p14
(tsss."
LayerCount: 2
Fore
SplineSet
-67 0 m 1
 558 736 l 1
 149 1456 l 1
 466 1456 l 1
 745 952 l 1
 1165 1456 l 1
 1460 1456 l 1
 865 747 l 1
 1292 0 l 1
 976 0 l 1
 677 532 l 1
 237 0 l 1
 -67 0 l 1
EndSplineSet
EndChar

StartChar: Y
Encoding: 89 89 159
Width: 1280
VWidth: 0
Flags: HW
PickledData: "(dp1
S'org.robofab.postScriptHintData'
p2
(dp3
sS'com.typemytype.robofont.layerData'
p4
(dp5
S'b'
(dp6
S'name'
p7
S'Y'
sS'lib'
p8
(dp9
sS'unicodes'
p10
(tsS'width'
p11
F1225.45
sS'contours'
p12
(tsS'components'
p13
(tsS'anchors'
p14
(tsss."
LayerCount: 2
Fore
SplineSet
416 0 m 1
 484 563 l 1
 75 1456 l 1
 364 1456 l 1
 642 789 l 1
 1083 1456 l 1
 1379 1456 l 1
 738 564 l 1
 670 0 l 1
 416 0 l 1
EndSplineSet
EndChar

StartChar: Z
Encoding: 90 90 166
Width: 1202
VWidth: 0
Flags: HW
PickledData: "(dp1
S'org.robofab.postScriptHintData'
p2
(dp3
sS'com.typemytype.robofont.layerData'
p4
(dp5
S'b'
(dp6
S'name'
p7
S'Z'
sS'lib'
p8
(dp9
sS'unicodes'
p10
(tsS'width'
p11
F1179.45
sS'contours'
p12
(tsS'components'
p13
(tsS'anchors'
p14
(tsss."
LayerCount: 2
Fore
SplineSet
-18 0 m 1
 -1 136 l 1
 823 1238 l 1
 160 1238 l 1
 186 1456 l 1
 1200 1456 l 1
 1185 1324 l 1
 356 218 l 1
 1047 218 l 1
 1021 0 l 1
 -18 0 l 1
EndSplineSet
EndChar

StartChar: a
Encoding: 97 97 170
Width: 1291
VWidth: 0
Flags: HW
PickledData: "(dp1
S'org.robofab.postScriptHintData'
p2
(dp3
sS'com.typemytype.robofont.layerData'
p4
(dp5
S'b'
(dp6
S'name'
p7
S'a'
sS'lib'
p8
(dp9
sS'unicodes'
p10
(tsS'width'
p11
I1268
sS'contours'
p12
((dp13
S'points'
p14
((dp15
S'segmentType'
p16
S'curve'
p17
sS'x'
F595
sS'smooth'
p18
I01
sS'y'
F-22
s(dp19
S'y'
F-22
sS'x'
F262
sg18
I00
s(dp20
S'y'
F221
sS'x'
F100
sg18
I00
s(dp21
g16
S'curve'
p22
sS'x'
F100
sg18
I01
sS'y'
F518
s(dp23
S'y'
F824
sS'x'
F100
sg18
I00
s(dp24
S'y'
F1052
sS'x'
F287
sg18
I00
s(dp25
g16
S'curve'
p26
sS'x'
F603
sg18
I01
sS'y'
F1052
s(dp27
S'y'
F1052
sS'x'
F816
sg18
I00
s(dp28
S'y'
F903
sS'x'
F905
sg18
I00
s(dp29
g16
S'curve'
p30
sS'x'
F928
sg18
I00
sS'y'
F847
s(dp31
g16
S'line'
p32
sS'x'
F928
sg18
I00
sS'y'
F1026
s(dp33
g16
S'line'
p34
sS'x'
F1092
sg18
I00
sS'y'
F1026
s(dp35
g16
S'line'
p36
sS'x'
F1092
sg18
I00
sS'y'
F0
s(dp37
g16
S'line'
p38
sS'x'
F928
sg18
I00
sS'y'
F0
s(dp39
g16
S'line'
p40
sS'x'
F928
sg18
I00
sS'y'
F185
s(dp41
S'y'
F82
sS'x'
F881
sg18
I00
s(dp42
S'y'
F-22
sS'x'
F769
sg18
I00
stp43
s(dp44
g14
((dp45
g16
S'curve'
p46
sS'x'
F608
sg18
I01
sS'y'
F918
s(dp47
S'y'
F918
sS'x'
F359
sg18
I00
s(dp48
S'y'
F725
sS'x'
F270
sg18
I00
s(dp49
g16
S'curve'
p50
sS'x'
F270
sg18
I01
sS'y'
F516
s(dp51
S'y'
F308
sS'x'
F270
sg18
I00
s(dp52
S'y'
F112
sS'x'
F364
sg18
I00
s(dp53
g16
S'curve'
p54
sS'x'
F609
sg18
I01
sS'y'
F112
s(dp55
S'y'
F112
sS'x'
F813
sg18
I00
s(dp56
S'y'
F277
sS'x'
F934
sg18
I00
s(dp57
g16
S'curve'
p58
sS'x'
F934
sg18
I01
sS'y'
F526
s(dp59
S'y'
F734
sS'x'
F934
sg18
I00
s(dp60
S'y'
F918
sS'x'
F826
sg18
I00
stp61
stp62
sS'components'
p63
(tsS'anchors'
p64
(tsss."
LayerCount: 2
Fore
SplineSet
924 589 m 0
 924 748 850 851 681 851 c 0
 475 851 350 684 350 447 c 0
 350 286 428 177 601 177 c 0
 825 177 924 361 924 589 c 0
547 -23 m 0
 236 -23 102 190 102 423 c 0
 102 449 104 476 107 502 c 0
 140 780 338 1052 691 1052 c 0
 829 1052 910 1000 961 916 c 1
 974 1026 l 1
 1217 1026 l 1
 1091 0 l 1
 842 0 l 1
 859 140 l 1
 792 57 687 -23 547 -23 c 0
EndSplineSet
EndChar

StartChar: acute
Encoding: 180 180 175
Width: 607
VWidth: 0
Flags: HW
PickledData: "(dp1
S'org.robofab.postScriptHintData'
p2
(dp3
s."
LayerCount: 2
Fore
SplineSet
21 1166 m 1
 320 1456 l 1
 639 1456 l 1
 249 1166 l 1
 21 1166 l 1
EndSplineSet
EndChar

StartChar: ae
Encoding: 230 230 179
Width: 1776
VWidth: 0
Flags: HW
PickledData: "(dp1
S'org.robofab.postScriptHintData'
p2
(dp3
sS'com.typemytype.robofont.layerData'
p4
(dp5
S'b'
(dp6
S'name'
p7
S'ae'
p8
sS'lib'
p9
(dp10
sS'unicodes'
p11
(tsS'width'
p12
F1790.05
sS'contours'
p13
(tsS'components'
p14
((dp15
S'transformation'
p16
(I1
I0
I0
I1
I642
I0
tp17
sS'baseGlyph'
p18
S'e'
stp19
sS'anchors'
p20
(tsss."
LayerCount: 2
Fore
SplineSet
994 632 m 1
 1455 632 l 1
 1458 655 l 2
 1459 664 1459 672 1459 681 c 0
 1459 810 1363 872 1272 872 c 0
 1136 872 1043 763 994 632 c 1
284 286 m 0
 284 207 354 177 439 177 c 0
 628 177 709 332 730 467 c 1
 630 467 l 2
 463 467 284 427 284 286 c 0
1666 634 m 0
 1666 597 1664 558 1659 519 c 0
 1656 494 1647 467 1647 467 c 1
 970 467 l 1
 968 456 967 446 967 433 c 0
 967 249 1058 177 1212 177 c 0
 1377 177 1549 289 1549 289 c 1
 1594 108 l 1
 1594 108 1400 -23 1177 -23 c 0
 998 -23 871 22 814 172 c 1
 723 25 550 -22 408 -22 c 0
 184 -22 41 73 41 249 c 0
 41 264 42 278 44 294 c 0
 76 562 284 638 711 638 c 2
 751 638 l 1
 752 649 753 660 753 670 c 0
 753 781 684 859 550 859 c 0
 488 859 403 845 254 778 c 1
 204 942 l 1
 256 971 398 1052 630 1052 c 0
 729 1052 874 992 924 864 c 1
 1005 989 1174 1052 1295 1052 c 0
 1562 1052 1666 871 1666 634 c 0
EndSplineSet
EndChar

StartChar: ampersand
Encoding: 38 38 185
Width: 1587
VWidth: 0
Flags: HW
PickledData: "(dp1
S'org.robofab.postScriptHintData'
p2
(dp3
sS'com.typemytype.robofont.layerData'
p4
(dp5
S'b'
(dp6
S'name'
p7
S'ampersand'
p8
sS'lib'
p9
(dp10
sS'unicodes'
p11
(tsS'width'
p12
F1539.95
sS'contours'
p13
(tsS'components'
p14
(tsS'anchors'
p15
(tsss."
LayerCount: 2
Fore
SplineSet
570 1126 m 0
 570 1066 596 1013 641 960 c 1
 737 1016 819 1076 819 1171 c 0
 819 1242 762 1266 710 1266 c 0
 632 1266 570 1224 570 1126 c 0
564 186 m 0
 691 186 790 244 874 314 c 1
 565 698 l 1
 443 633 321 552 321 395 c 0
 321 272 420 186 564 186 c 0
443 856 m 1
 372 947 325 1018 325 1114 c 0
 325 1352 521 1470 724 1470 c 0
 934 1470 1063 1385 1063 1202 c 0
 1063 1189 1063 1177 1061 1163 c 0
 1042 1014 914 896 770 809 c 1
 1028 483 l 1
 1118 620 1165 775 1185 944 c 1
 1408 895 l 1
 1383 688 1290 462 1165 304 c 1
 1259 192 1364 159 1457 127 c 1
 1277 -19 l 1
 1145 4 1098 40 1004 155 c 1
 885 56 723 -28 536 -28 c 0
 267 -28 72 115 72 360 c 0
 72 621 250 749 443 856 c 1
EndSplineSet
EndChar

StartChar: approxequal
Encoding: 8776 8776 187
Width: 1351
VWidth: 0
Flags: HW
PickledData: "(dp1
S'org.robofab.postScriptHintData'
p2
(dp3
sS'com.typemytype.robofont.layerData'
p4
(dp5
s."
LayerCount: 2
Fore
SplineSet
158 105 m 1
 16 192 l 1
 116 439 212 477 339 477 c 0
 415 477 510 456 627 415 c 0
 732 376 820 362 879 362 c 0
 951 362 976 381 1018 517 c 1
 1173 440 l 1
 1079 189 1002 142 876 142 c 0
 796 142 693 166 561 203 c 0
 470 232 387 257 332 257 c 0
 251 257 219 235 158 105 c 1
230 696 m 1
 89 786 l 1
 192 1032 287 1070 412 1070 c 0
 490 1070 592 1044 705 1009 c 0
 805 976 894 955 953 955 c 0
 1025 955 1049 975 1090 1110 c 1
 1246 1032 l 1
 1152 782 1076 735 949 735 c 0
 872 735 766 761 637 797 c 0
 545 824 461 849 408 849 c 0
 325 849 291 828 230 696 c 1
EndSplineSet
EndChar

StartChar: asciicircum
Encoding: 94 94 190
Width: 1559
VWidth: 0
Flags: HW
PickledData: "(dp1
S'org.robofab.postScriptHintData'
p2
(dp3
sS'com.typemytype.robofont.layerData'
p4
(dp5
S'b'
(dp6
S'name'
p7
S'asciicircum'
p8
sS'lib'
p9
(dp10
sS'unicodes'
p11
(tsS'width'
p12
F1623.3499999999999
sS'contours'
p13
(tsS'components'
p14
(tsS'anchors'
p15
(tsss."
LayerCount: 2
Fore
SplineSet
127 532 m 1
 753 1456 l 1
 913 1456 l 1
 1319 532 l 1
 1068 532 l 1
 796 1173 l 1
 382 532 l 1
 127 532 l 1
EndSplineSet
EndChar

StartChar: asciitilde
Encoding: 126 126 191
Width: 1508
VWidth: 0
Flags: HW
PickledData: "(dp1
S'org.robofab.postScriptHintData'
p2
(dp3
sS'com.typemytype.robofont.layerData'
p4
(dp5
s."
LayerCount: 2
Fore
SplineSet
311 367 m 1
 166 441 l 1
 273 697 371 729 492 729 c 0
 572 729 664 707 778 665 c 0
 895 618 967 606 1028 606 c 0
 1098 606 1120 615 1169 756 c 1
 1318 685 l 1
 1224 435 1152 394 1023 394 c 0
 936 394 834 417 695 464 c 0
 593 500 536 514 484 514 c 0
 406 514 374 500 311 367 c 1
EndSplineSet
EndChar

StartChar: asterisk
Encoding: 42 42 192
Width: 1054
VWidth: 0
Flags: HW
PickledData: "(dp1
S'org.robofab.postScriptHintData'
p2
(dp3
sS'com.typemytype.robofont.guides'
p4
((dp5
S'y'
I1149
sS'x'
I567
sS'magnetic'
p6
I5
sS'angle'
p7
I0
sS'isGlobal'
p8
I00
stp9
sS'com.typemytype.robofont.layerData'
p10
(dp11
S'b'
(dp12
S'name'
p13
S'asterisk'
p14
sS'lib'
p15
(dp16
sS'unicodes'
p17
(tsS'width'
p18
F1107.9000000000001
sS'contours'
p19
(tsS'components'
p20
(tsS'anchors'
p21
(tsss."
LayerCount: 2
Fore
SplineSet
624 644 m 1
 486 892 l 1
 287 643 l 1
 119 770 l 1
 364 1002 l 1
 99 1110 l 1
 207 1289 l 1
 435 1164 l 1
 440 1456 l 1
 675 1456 l 1
 605 1164 l 1
 868 1289 l 1
 929 1110 l 1
 635 1002 l 1
 823 771 l 1
 624 644 l 1
EndSplineSet
EndChar

StartChar: at
Encoding: 64 64 193
Width: 1814
VWidth: 0
Flags: HW
PickledData: "(dp1
S'org.robofab.postScriptHintData'
p2
(dp3
sS'com.typemytype.robofont.layerData'
p4
(dp5
S'b'
(dp6
S'name'
p7
S'at'
p8
sS'lib'
p9
(dp10
sS'unicodes'
p11
(tsS'width'
p12
F1771.2
sS'contours'
p13
(tsS'components'
p14
(tsS'anchors'
p15
(tsss."
LayerCount: 2
Fore
SplineSet
826 448 m 0
 964 448 1077 629 1100 817 c 0
 1101 826 1102 834 1102 842 c 0
 1102 915 1057 951 993 951 c 0
 842 951 735 756 716 593 c 0
 715 585 715 578 715 570 c 0
 715 495 759 448 826 448 c 0
986 1136 m 0
 1091 1136 1153 1102 1176 1022 c 1
 1207 1118 l 1
 1425 1118 l 1
 1278 644 l 2
 1243 531 1240 495 1237 466 c 0
 1236 461 1236 456 1236 450 c 0
 1236 418 1247 377 1282 377 c 0
 1358 377 1528 540 1559 798 c 0
 1562 825 1564 851 1564 876 c 0
 1564 1186 1313 1320 1053 1320 c 0
 689 1320 363 1114 307 665 c 0
 303 634 301 604 301 575 c 0
 301 221 518 56 885 56 c 0
 1042 56 1210 101 1374 188 c 1
 1441 70 l 1
 1262 -45 1052 -101 846 -101 c 0
 407 -101 95 150 95 559 c 0
 95 593 98 629 102 665 c 0
 165 1175 591 1483 1063 1483 c 0
 1451 1483 1726 1241 1726 882 c 0
 1726 853 1725 823 1721 793 c 0
 1690 541 1495 254 1288 254 c 0
 1156 254 1085 339 1085 439 c 0
 1085 447 1086 455 1087 464 c 1
 1038 351 934 256 770 256 c 0
 624 256 470 358 470 570 c 0
 470 917 791 1136 986 1136 c 0
EndSplineSet
EndChar

StartChar: b
Encoding: 98 98 195
Width: 1291
VWidth: 0
Flags: HW
PickledData: "(dp1
S'org.robofab.postScriptHintData'
p2
(dp3
sS'com.typemytype.robofont.layerData'
p4
(dp5
S'b'
(dp6
S'name'
p7
S'b'
sS'lib'
p8
(dp9
sS'unicodes'
p10
(tsS'width'
p11
F1270.0999999999999
sS'contours'
p12
(tsS'components'
p13
(tsS'anchors'
p14
(tsss."
LayerCount: 2
Fore
SplineSet
903 580 m 0
 903 734 836 851 682 851 c 0
 485 851 353 672 353 454 c 0
 353 304 427 177 592 177 c 0
 799 177 903 370 903 580 c 0
613 -23 m 0
 468 -23 359 51 322 127 c 1
 307 0 l 1
 54 0 l 1
 92 251 91 244 95 272 c 2
 240 1457 l 1
 487 1457 l 1
 416 882 l 1
 432 923 542 1052 759 1052 c 0
 1022 1052 1166 870 1166 610 c 0
 1166 235 895 -23 613 -23 c 0
EndSplineSet
EndChar

StartChar: backslash
Encoding: 92 92 196
Width: 650
VWidth: 0
Flags: HW
PickledData: "(dp1
S'org.robofab.postScriptHintData'
p2
(dp3
sS'com.typemytype.robofont.layerData'
p4
(dp5
s."
LayerCount: 2
Fore
SplineSet
435 -112 m 1
 -78 1456 l 1
 197 1456 l 1
 702 -112 l 1
 435 -112 l 1
EndSplineSet
EndChar

StartChar: bar
Encoding: 124 124 197
Width: 395
VWidth: 0
Flags: HW
PickledData: "(dp1
S'org.robofab.postScriptHintData'
p2
(dp3
sS'com.typemytype.robofont.layerData'
p4
(dp5
s."
LayerCount: 2
Fore
SplineSet
-41 -455 m 1
 199 1506 l 1
 436 1506 l 1
 196 -455 l 1
 -41 -455 l 1
EndSplineSet
EndChar

StartChar: braceleft
Encoding: 123 123 199
Width: 987
VWidth: 0
Flags: HW
PickledData: "(dp1
S'org.robofab.postScriptHintData'
p2
(dp3
sS'com.typemytype.robofont.layerData'
p4
(dp5
s."
LayerCount: 2
Fore
SplineSet
658 1176 m 2
 632 953 l 2
 612 796 537 688 354 683 c 1
 510 681 570 604 570 480 c 0
 570 462 568 444 566 424 c 2
 539 198 l 2
 535 167 533 142 533 121 c 0
 533 16 587 16 782 15 c 1
 759 -180 l 2
 756 -180 753 -180 750 -180 c 0
 374 -180 274 -127 274 72 c 0
 274 111 278 155 284 206 c 2
 312 436 l 2
 314 456 316 474 316 490 c 0
 316 582 272 606 153 606 c 2
 140 606 l 1
 158 755 l 1
 171 755 l 2
 317 755 357 790 374 933 c 2
 402 1164 l 2
 441 1478 520 1542 969 1542 c 1
 946 1347 l 1
 869 1347 l 2
 711 1347 678 1339 658 1176 c 2
EndSplineSet
EndChar

StartChar: braceright
Encoding: 125 125 200
Width: 982
VWidth: 0
Flags: HW
PickledData: "(dp1
S'org.robofab.postScriptHintData'
p2
(dp3
sS'com.typemytype.robofont.layerData'
p4
(dp5
s."
LayerCount: 2
Fore
SplineSet
3 -180 m 1
 25 14 l 1
 103 14 l 2
 262 14 294 22 314 185 c 2
 340 408 l 2
 359 565 434 673 618 679 c 1
 462 680 402 757 402 881 c 0
 402 899 404 917 406 937 c 2
 433 1163 l 2
 437 1193 439 1219 439 1240 c 0
 439 1345 385 1345 189 1346 c 1
 213 1542 l 2
 216 1542 219 1542 222 1542 c 0
 598 1542 697 1488 697 1290 c 0
 697 1251 693 1206 687 1155 c 2
 660 925 l 2
 658 905 656 887 656 871 c 0
 656 779 700 755 819 755 c 2
 832 755 l 1
 814 606 l 1
 801 606 l 2
 655 606 615 571 598 428 c 2
 570 197 l 2
 531 -117 452 -180 3 -180 c 1
EndSplineSet
EndChar

StartChar: bracketleft
Encoding: 91 91 201
Width: 620
VWidth: 0
Flags: HW
PickledData: "(dp1
S'org.robofab.postScriptHintData'
p2
(dp3
sS'com.typemytype.robofont.layerData'
p4
(dp5
s."
LayerCount: 2
Fore
SplineSet
38 -158 m 1
 241 1502 l 1
 662 1502 l 1
 639 1312 l 1
 470 1312 l 1
 314 32 l 1
 483 32 l 1
 460 -158 l 1
 38 -158 l 1
EndSplineSet
EndChar

StartChar: bracketright
Encoding: 93 93 202
Width: 620
VWidth: 0
Flags: HW
PickledData: "(dp1
S'org.robofab.postScriptHintData'
p2
(dp3
sS'com.typemytype.robofont.layerData'
p4
(dp5
s."
LayerCount: 2
Fore
SplineSet
-10 -158 m 1
 13 32 l 1
 176 32 l 1
 333 1312 l 1
 170 1312 l 1
 193 1502 l 1
 610 1502 l 1
 406 -158 l 1
 -10 -158 l 1
EndSplineSet
EndChar

StartChar: breve
Encoding: 728 728 203
Width: 700
VWidth: 0
Flags: HW
PickledData: "(dp1
S'org.robofab.postScriptHintData'
p2
(dp3
sS'com.typemytype.robofont.layerData'
p4
(dp5
S'b'
(dp6
S'name'
p7
S'breve'
p8
sS'lib'
p9
(dp10
sS'unicodes'
p11
(tsS'width'
p12
F621.60000000000002
sS'contours'
p13
(tsS'components'
p14
(tsS'anchors'
p15
(tsss."
LayerCount: 2
Fore
SplineSet
334 1160 m 0
 153 1160 47 1237 47 1427 c 0
 47 1436 47 1446 48 1456 c 1
 222 1456 l 1
 222 1445 l 2
 222 1348 289 1334 356 1334 c 0
 425 1334 494 1349 517 1456 c 1
 689 1456 l 1
 649 1245 524 1160 334 1160 c 0
EndSplineSet
EndChar

StartChar: brokenbar
Encoding: 166 166 204
Width: 500
VWidth: 0
Flags: HW
PickledData: "(dp1
S'org.robofab.postScriptHintData'
p2
(dp3
sS'com.typemytype.robofont.layerData'
p4
(dp5
s."
LayerCount: 2
Fore
SplineSet
97 565 m 1
 212 1506 l 1
 459 1506 l 1
 344 565 l 1
 97 565 l 1
-26 -455 m 1
 81 415 l 1
 328 415 l 1
 221 -455 l 1
 -26 -455 l 1
EndSplineSet
EndChar

StartChar: bullet
Encoding: 8226 8226 205
Width: 989
VWidth: 0
Flags: HW
PickledData: "(dp1
S'org.robofab.postScriptHintData'
p2
(dp3
sS'com.typemytype.robofont.layerData'
p4
(dp5
S'b'
(dp6
S'name'
p7
S'bullet'
p8
sS'lib'
p9
(dp10
sS'unicodes'
p11
(tsS'width'
p12
F989.64999999999998
sS'contours'
p13
(tsS'components'
p14
(tsS'anchors'
p15
(tsss."
LayerCount: 2
Fore
SplineSet
529 1010 m 0
 715 1010 833 881 833 721 c 0
 833 518 649 358 449 358 c 0
 259 358 147 487 147 642 c 0
 147 847 330 1010 529 1010 c 0
EndSplineSet
EndChar

StartChar: c
Encoding: 99 99 207
Width: 1071
VWidth: 0
Flags: HW
PickledData: "(dp1
S'org.robofab.postScriptHintData'
p2
(dp3
sS'com.typemytype.robofont.layerData'
p4
(dp5
S'b'
(dp6
S'name'
p7
S'c'
sS'lib'
p8
(dp9
sS'unicodes'
p10
(tsS'width'
p11
F1035.55
sS'contours'
p12
((dp13
S'points'
p14
((dp15
S'segmentType'
p16
S'curve'
p17
sS'x'
F605
sS'smooth'
p18
I01
sS'y'
F-22
s(dp19
S'y'
F-22
sS'x'
F302
sg18
I00
s(dp20
S'y'
F180
sS'x'
F98
sg18
I00
s(dp21
g16
S'curve'
p22
sS'x'
F98
sg18
I01
sS'y'
F503
s(dp23
S'y'
F840
sS'x'
F98
sg18
I00
s(dp24
S'y'
F1052
sS'x'
F301
sg18
I00
s(dp25
g16
S'curve'
p26
sS'x'
F624
sg18
I01
sS'y'
F1052
s(dp27
S'y'
F1052
sS'x'
F750
sg18
I00
s(dp28
S'y'
F1001
sS'x'
F871
sg18
I00
s(dp29
g16
S'curve'
p30
sS'x'
F938
sg18
I00
sS'y'
F922
s(dp31
g16
S'line'
p32
sS'x'
F890
sg18
I00
sS'y'
F805
s(dp33
S'y'
F874
sS'x'
F825
sg18
I00
s(dp34
S'y'
F918
sS'x'
F721
sg18
I00
s(dp35
g16
S'curve'
p36
sS'x'
F619
sg18
I01
sS'y'
F918
s(dp37
S'y'
F918
sS'x'
F406
sg18
I00
s(dp38
S'y'
F756
sS'x'
F268
sg18
I00
s(dp39
g16
S'curve'
p40
sS'x'
F268
sg18
I01
sS'y'
F505
s(dp41
S'y'
F260
sS'x'
F268
sg18
I00
s(dp42
S'y'
F112
sS'x'
F407
sg18
I00
s(dp43
g16
S'curve'
p44
sS'x'
F611
sg18
I01
sS'y'
F112
s(dp45
S'y'
F112
sS'x'
F716
sg18
I00
s(dp46
S'y'
F145
sS'x'
F827
sg18
I00
s(dp47
g16
S'curve'
p48
sS'x'
F901
sg18
I00
sS'y'
F202
s(dp49
g16
S'line'
p50
sS'x'
F953
sg18
I00
sS'y'
F87
s(dp51
S'y'
F19
sS'x'
F873
sg18
I00
s(dp52
S'y'
F-22
sS'x'
F747
sg18
I00
stp53
stp54
sS'components'
p55
(tsS'anchors'
p56
(tsss."
LayerCount: 2
Fore
SplineSet
362 455 m 0
 362 289 458 177 633 177 c 0
 770 177 861 246 902 274 c 1
 955 92 l 1
 833 13 720 -23 578 -23 c 0
 265 -23 103 189 103 438 c 0
 103 463 105 488 108 514 c 0
 146 817 372 1052 707 1052 c 0
 868 1052 986 1005 1061 914 c 1
 954 754 l 1
 902 805 825 852 709 852 c 0
 496 852 362 689 362 455 c 0
EndSplineSet
EndChar

StartChar: caron
Encoding: 711 711 209
Width: 699
VWidth: 0
Flags: HW
PickledData: "(dp1
S'org.robofab.postScriptHintData'
p2
(dp3
s."
LayerCount: 2
Fore
SplineSet
227 1185 m 1
 -8 1552 l 1
 246 1552 l 1
 348 1407 l 1
 488 1552 l 1
 754 1552 l 1
 429 1185 l 1
 227 1185 l 1
EndSplineSet
EndChar

StartChar: caron.alt
Encoding: 65537 -1 210
Width: 600
VWidth: 0
Flags: HW
PickledData: "(dp1
S'org.robofab.postScriptHintData'
p2
(dp3
s."
AnchorPoint: "caron.alt" -38 1026 mark 0
LayerCount: 2
Fore
SplineSet
239 951 m 1
 415 1456 l 1
 694 1456 l 1
 451 951 l 1
 239 951 l 1
EndSplineSet
EndChar

StartChar: cedilla
Encoding: 184 184 215
Width: 529
VWidth: 0
Flags: HW
PickledData: "(dp1
S'org.robofab.postScriptHintData'
p2
(dp3
sS'com.typemytype.robofont.layerData'
p4
(dp5
S'b'
(dp6
S'name'
p7
S'cedilla'
p8
sS'lib'
p9
(dp10
sS'unicodes'
p11
(tsS'width'
p12
I529
sS'contours'
p13
(tsS'components'
p14
(tsS'anchors'
p15
(tsss."
LayerCount: 2
Fore
SplineSet
304 -216 m 0
 304 -173 268 -156 161 -140 c 2
 132 -136 l 1
 185 39 l 1
 309 39 l 1
 277 -75 l 1
 445 -87 507 -149 507 -235 c 0
 507 -244 506 -253 505 -262 c 0
 485 -422 354 -494 221 -494 c 0
 142 -494 70 -473 -8 -426 c 1
 24 -264 l 1
 73 -287 126 -301 177 -301 c 0
 245 -301 304 -289 304 -216 c 0
EndSplineSet
EndChar

StartChar: cent
Encoding: 162 162 216
Width: 1076
VWidth: 0
Flags: HW
PickledData: "(dp1
S'org.robofab.postScriptHintData'
p2
(dp3
sS'com.typemytype.robofont.layerData'
p4
(dp5
S'b'
(dp6
S'name'
p7
S'cent'
p8
sS'lib'
p9
(dp10
sS'unicodes'
p11
(tsS'width'
p12
F1033.2
sS'contours'
p13
(tsS'components'
p14
(tsS'anchors'
p15
(tsss."
LayerCount: 2
Fore
SplineSet
648 847 m 1
 471 819 362 666 362 455 c 0
 362 311 434 208 567 183 c 1
 648 847 l 1
786 844 m 1
 705 184 l 1
 802 202 869 251 902 274 c 1
 955 92 l 1
 864 33 778 -2 681 -16 c 1
 653 -242 l 1
 515 -242 l 1
 542 -22 l 1
 253 -6 103 199 103 438 c 0
 103 463 105 488 108 514 c 0
 145 807 357 1036 673 1051 c 1
 697 1250 l 1
 836 1250 l 1
 811 1045 l 1
 920 1029 1003 984 1061 914 c 1
 954 754 l 1
 915 793 860 829 786 844 c 1
EndSplineSet
EndChar

StartChar: circumflex
Encoding: 710 710 217
Width: 699
VWidth: 0
Flags: HW
PickledData: "(dp1
S'org.robofab.postScriptHintData'
p2
(dp3
sS'com.typemytype.robofont.layerData'
p4
(dp5
S'b'
(dp6
S'name'
p7
S'circumflex'
p8
sS'lib'
p9
(dp10
sS'unicodes'
p11
(tsS'width'
p12
I699
sS'contours'
p13
(tsS'components'
p14
(tsS'anchors'
p15
(tsss."
LayerCount: 2
Fore
SplineSet
-61 1185 m 1
 243 1555 l 1
 496 1555 l 1
 714 1185 l 1
 481 1185 l 1
 354 1374 l 1
 166 1185 l 1
 -61 1185 l 1
EndSplineSet
EndChar

StartChar: colon
Encoding: 58 58 218
Width: 591
VWidth: 0
Flags: HW
PickledData: "(dp1
S'org.robofab.postScriptHintData'
p2
(dp3
sS'com.typemytype.robofont.layerData'
p4
(dp5
S'b'
(dp6
S'name'
p7
S'colon'
p8
sS'lib'
p9
(dp10
sS'unicodes'
p11
(tsS'width'
p12
F544.60000000000002
sS'contours'
p13
(tsS'components'
p14
(tsS'anchors'
p15
(tsss."
LayerCount: 2
Fore
SplineSet
174 900 m 1
 207 1171 l 1
 517 1171 l 1
 485 900 l 1
 174 900 l 1
61 -15 m 1
 94 255 l 1
 405 255 l 1
 372 -15 l 1
 61 -15 l 1
EndSplineSet
EndChar

StartChar: comma
Encoding: 44 44 219
Width: 545
VWidth: 0
Flags: HW
PickledData: "(dp1
S'org.robofab.postScriptHintData'
p2
(dp3
sS'com.typemytype.robofont.layerData'
p4
(dp5
S'b'
(dp6
S'name'
p7
S'comma'
p8
sS'lib'
p9
(dp10
sS'unicodes'
p11
(tsS'width'
p12
F491.10000000000002
sS'contours'
p13
(tsS'components'
p14
(tsS'anchors'
p15
(tsss."
LayerCount: 2
Fore
SplineSet
21 -229 m 1
 195 268 l 1
 473 268 l 1
 232 -229 l 1
 21 -229 l 1
EndSplineSet
EndChar

StartChar: copyright
Encoding: 169 169 220
Width: 1713
VWidth: 0
Flags: HW
PickledData: "(dp1
S'org.robofab.postScriptHintData'
p2
(dp3
sS'com.typemytype.robofont.layerData'
p4
(dp5
S'b'
(dp6
S'name'
p7
S'copyright'
p8
sS'lib'
p9
(dp10
sS'unicodes'
p11
(tsS'width'
p12
I1733
sS'contours'
p13
(tsS'components'
p14
(tsS'anchors'
p15
(tsss."
LayerCount: 2
Fore
SplineSet
765 -22 m 0
 382 -22 100 269 100 640 c 0
 100 670 102 701 106 732 c 0
 157 1145 535 1483 949 1483 c 0
 1331 1483 1613 1194 1613 824 c 0
 1613 794 1611 763 1607 732 c 0
 1556 318 1178 -22 765 -22 c 0
776 93 m 0
 1121 93 1431 383 1473 729 c 0
 1476 756 1478 781 1478 807 c 0
 1478 1116 1250 1361 932 1361 c 0
 587 1361 279 1074 237 729 c 0
 234 702 232 676 232 650 c 0
 232 340 458 93 776 93 c 0
646 678 m 0
 646 543 719 448 869 448 c 0
 985 448 1059 506 1087 526 c 1
 1132 375 l 1
 1034 312 942 283 821 283 c 0
 555 283 432 458 432 663 c 0
 432 684 433 705 436 727 c 0
 467 975 654 1169 928 1169 c 0
 1062 1169 1158 1130 1220 1055 c 1
 1132 924 l 1
 1088 966 1025 1004 930 1004 c 0
 755 1004 646 869 646 678 c 0
EndSplineSet
EndChar

StartChar: currency
Encoding: 164 164 221
Width: 1218
VWidth: 0
Flags: HW
PickledData: "(dp1
S'org.robofab.postScriptHintData'
p2
(dp3
s."
LayerCount: 2
Fore
SplineSet
913 1062 m 0
 913 1216 806 1331 646 1331 c 0
 462 1331 303 1179 303 977 c 0
 303 824 410 710 569 710 c 0
 751 710 913 861 913 1062 c 0
344 1276 m 1
 173 1471 l 1
 230 1522 l 1
 403 1326 l 1
 475 1378 564 1409 656 1409 c 0
 748 1409 828 1378 889 1327 c 1
 1108 1522 l 1
 1153 1471 l 1
 936 1278 l 1
 979 1221 1004 1151 1004 1072 c 0
 1004 949 955 856 882 779 c 1
 1045 594 l 1
 988 543 l 1
 825 729 l 1
 750 673 658 639 562 639 c 0
 466 639 382 673 321 730 c 1
 111 543 l 1
 66 594 l 1
 276 781 l 1
 237 836 215 903 215 977 c 0
 215 1103 268 1200 344 1276 c 1
EndSplineSet
EndChar

StartChar: d
Encoding: 100 100 222
Width: 1267
VWidth: 0
Flags: HW
PickledData: "(dp1
S'org.robofab.postScriptHintData'
p2
(dp3
sS'com.typemytype.robofont.layerData'
p4
(dp5
S'b'
(dp6
S'name'
p7
S'd'
sS'lib'
p8
(dp9
sS'unicodes'
p10
(tsS'width'
p11
F1265.05
sS'contours'
p12
(tsS'components'
p13
(tsS'anchors'
p14
(tsss."
AnchorPoint: "caron.alt" 1001 1026 basechar 0
LayerCount: 2
Fore
SplineSet
864 584 m 0
 864 736 800 851 642 851 c 0
 439 851 339 659 339 439 c 0
 339 295 399 177 561 177 c 0
 767 177 864 374 864 584 c 0
485 -23 m 0
 250 -23 77 146 77 421 c 0
 77 449 78 478 82 508 c 0
 117 795 310 1052 636 1052 c 0
 796 1052 880 964 901 918 c 1
 967 1457 l 1
 1214 1457 l 1
 1069 274 l 2
 1066 254 1065 238 1044 0 c 1
 790 0 l 1
 805 131 l 1
 776 78 674 -23 485 -23 c 0
EndSplineSet
EndChar

StartChar: dagger
Encoding: 8224 8224 223
Width: 1022
VWidth: 0
Flags: HW
PickledData: "(dp1
S'org.robofab.postScriptHintData'
p2
(dp3
sS'com.typemytype.robofont.layerData'
p4
(dp5
s."
LayerCount: 2
Fore
SplineSet
302 148 m 1
 392 872 l 1
 66 872 l 1
 91 1079 l 1
 417 1079 l 1
 458 1412 l 1
 656 1412 l 1
 615 1079 l 1
 944 1079 l 1
 919 872 l 1
 593 872 l 1
 503 148 l 1
 302 148 l 1
EndSplineSet
EndChar

StartChar: daggerdbl
Encoding: 8225 8225 224
Width: 1174
VWidth: 0
Flags: HW
PickledData: "(dp1
S'org.robofab.postScriptHintData'
p2
(dp3
sS'com.typemytype.robofont.layerData'
p4
(dp5
S'b'
(dp6
S'name'
p7
S'daggerdbl'
p8
sS'lib'
p9
(dp10
sS'unicodes'
p11
(tsS'width'
p12
F1092.6500000000001
sS'contours'
p13
(tsS'components'
p14
(tsS'anchors'
p15
(tsss."
LayerCount: 2
Fore
SplineSet
198 1083 m 1
 536 1083 l 1
 581 1456 l 1
 801 1456 l 1
 756 1083 l 1
 1081 1083 l 1
 1058 895 l 1
 733 895 l 1
 687 532 l 1
 1003 532 l 1
 981 352 l 1
 665 352 l 1
 609 -112 l 1
 389 -112 l 1
 445 352 l 1
 104 352 l 1
 126 532 l 1
 467 532 l 1
 513 895 l 1
 175 895 l 1
 198 1083 l 1
EndSplineSet
EndChar

StartChar: degree
Encoding: 176 176 228
Width: 886
VWidth: 0
Flags: HW
PickledData: "(dp1
S'org.robofab.postScriptHintData'
p2
(dp3
sS'com.typemytype.robofont.layerData'
p4
(dp5
S'b'
(dp6
S'name'
p7
S'degree'
p8
sS'lib'
p9
(dp10
sS'unicodes'
p11
(tsS'width'
p12
F856.60000000000002
sS'contours'
p13
(tsS'components'
p14
(tsS'anchors'
p15
(tsss."
LayerCount: 2
Fore
SplineSet
482 1466 m 0
 640 1466 759 1348 759 1194 c 0
 759 995 584 849 405 849 c 0
 247 849 127 964 127 1119 c 0
 127 1317 304 1466 482 1466 c 0
613 1179 m 0
 613 1265 552 1328 464 1328 c 0
 365 1328 276 1245 276 1132 c 0
 276 1046 336 984 421 984 c 0
 522 984 613 1066 613 1179 c 0
EndSplineSet
EndChar

StartChar: dieresis
Encoding: 168 168 229
Width: 743
VWidth: 0
Flags: HW
PickledData: "(dp1
S'org.robofab.postScriptHintData'
p2
(dp3
s."
LayerCount: 2
Fore
SplineSet
461 1151 m 1
 490 1376 l 1
 736 1376 l 1
 707 1151 l 1
 461 1151 l 1
3 1151 m 1
 32 1376 l 1
 279 1376 l 1
 250 1151 l 1
 3 1151 l 1
EndSplineSet
EndChar

StartChar: divide
Encoding: 247 247 230
Width: 1499
VWidth: 0
Flags: HW
PickledData: "(dp1
S'org.robofab.postScriptHintData'
p2
(dp3
sS'com.typemytype.robofont.layerData'
p4
(dp5
s."
LayerCount: 2
Fore
SplineSet
654 840 m 1
 687 1111 l 1
 888 1111 l 1
 855 840 l 1
 654 840 l 1
155 449 m 1
 181 656 l 1
 1267 656 l 1
 1242 449 l 1
 155 449 l 1
551 -19 m 1
 585 253 l 1
 786 253 l 1
 753 -19 l 1
 551 -19 l 1
EndSplineSet
EndChar

StartChar: dollar
Encoding: 36 36 232
Width: 1238
VWidth: 0
Flags: HW
PickledData: "(dp1
S'org.robofab.postScriptHintData'
p2
(dp3
sS'com.typemytype.robofont.layerData'
p4
(dp5
S'b'
(dp6
S'name'
p7
S'dollar'
p8
sS'lib'
p9
(dp10
sS'unicodes'
p11
(tsS'width'
p12
F1200.0999999999999
sS'contours'
p13
(tsS'components'
p14
(tsS'anchors'
p15
(tsss."
LayerCount: 2
Fore
SplineSet
646 1259 m 1
 516 1242 429 1187 429 1057 c 0
 429 986 463 944 601 892 c 1
 646 1259 l 1
616 198 m 1
 759 217 833 294 833 439 c 0
 833 505 804 547 666 602 c 1
 616 198 l 1
465 -219 m 1
 489 -22 l 1
 309 -14 131 44 43 143 c 1
 173 325 l 1
 255 255 406 202 516 195 c 1
 570 636 l 1
 531 649 488 663 451 676 c 0
 256 754 156 845 156 1020 c 0
 156 1321 387 1470 673 1482 c 1
 691 1626 l 1
 791 1626 l 1
 773 1482 l 1
 997 1474 1098 1423 1198 1315 c 1
 1046 1147 l 1
 961 1241 842 1261 747 1264 c 1
 697 858 l 1
 743 843 792 827 832 811 c 0
 1027 729 1105 640 1105 476 c 0
 1105 136 863 -4 589 -21 c 1
 565 -219 l 1
 465 -219 l 1
EndSplineSet
EndChar

StartChar: dotaccent
Encoding: 729 729 233
Width: 524
VWidth: 0
Flags: HW
PickledData: "(dp1
S'org.robofab.postScriptHintData'
p2
(dp3
sS'com.typemytype.robofont.layerData'
p4
(dp5
S'b'
(dp6
S'name'
p7
S'dotaccent'
p8
sS'lib'
p9
(dp10
sS'unicodes'
p11
(tsS'width'
p12
F524
sS'contours'
p13
(tsS'components'
p14
(tsS'anchors'
p15
(tsss."
LayerCount: 2
Fore
SplineSet
114 1166 m 1
 141 1394 l 1
 387 1394 l 1
 360 1166 l 1
 114 1166 l 1
EndSplineSet
EndChar

StartChar: dotlessi
Encoding: 305 305 234
Width: 485
VWidth: 0
Flags: HW
PickledData: "(dp1
S'org.robofab.postScriptHintData'
p2
(dp3
sS'com.typemytype.robofont.layerData'
p4
(dp5
s."
LayerCount: 2
Fore
SplineSet
40 0 m 1
 166 1026 l 1
 415 1026 l 1
 289 0 l 1
 40 0 l 1
EndSplineSet
EndChar

StartChar: dotlessj
Encoding: 567 567 235
Width: 600
VWidth: 0
Flags: HW
PickledData: "(dp1
S'org.robofab.postScriptHintData'
p2
(dp3
s."
LayerCount: 2
Fore
SplineSet
16 -362 m 0
 -95 -362 -169 -338 -169 -335 c 1
 -168 -335 -167 -335 -166 -335 c 2
 -118.290656999 -165.035465561 l 1
 -104.948153958 -169.196639013 -44.2010118977 -184 22 -184 c 0
 109 -184 157 -161 179 20 c 2
 303 1026 l 1
 542 1026 l 1
 415 -9 l 2
 387 -237 313 -362 16 -362 c 0
-118.290656999 -165.035465561 m 2
 -118 -164 l 1
 -121 -164 l 2
 -121 -164.117319841 -120.064051728 -164.482390696 -118.290656999 -165.035465561 c 2
EndSplineSet
EndChar

StartChar: e
Encoding: 101 101 238
Width: 1195
VWidth: 0
Flags: HW
PickledData: "(dp1
S'org.robofab.postScriptHintData'
p2
(dp3
sS'com.typemytype.robofont.guides'
p4
(tsS'com.typemytype.robofont.layerData'
p5
(dp6
S'b'
(dp7
S'name'
p8
S'e'
sS'lib'
p9
(dp10
sS'unicodes'
p11
(tsS'width'
p12
F1169.75
sS'contours'
p13
(tsS'components'
p14
(tsS'anchors'
p15
(tsssS'com.fontlab.hintData'
p16
(dp17
S'vhints'
p18
((dp19
S'position'
p20
I106
sg12
I195
stp21
sS'hhints'
p22
((dp23
g20
I-22
sg12
I154
s(dp24
g20
I486
sg12
I131
s(dp25
g20
I901
sg12
I151
stp26
ss."
HStem: -22 154 486 131 901 151
VStem: 106 195
LayerCount: 2
Fore
SplineSet
388 636 m 1
 897 636 l 1
 893 784 810 861 691 861 c 0
 546 861 437 773 388 636 c 1
1084 471 m 1
 364 471 l 1
 363 458 363 447 363 435 c 0
 363 253 478 177 647 177 c 0
 758 177 870 213 985 287 c 1
 1030 107 l 1
 892 19 762 -23 600 -23 c 0
 280 -23 103 161 103 430 c 0
 103 457 104 484 108 512 c 0
 142 797 366 1052 700 1052 c 0
 992 1052 1103 867 1103 626 c 0
 1103 577 1103 508 1084 471 c 1
EndSplineSet
EndChar

StartChar: eight
Encoding: 56 56 247
Width: 1274
VWidth: 0
Flags: HW
PickledData: "(dp1
S'org.robofab.postScriptHintData'
p2
(dp3
sS'com.typemytype.robofont.layerData'
p4
(dp5
S'b'
(dp6
S'name'
p7
S'eight'
p8
sS'lib'
p9
(dp10
sS'unicodes'
p11
(tsS'width'
p12
F1235.45
sS'contours'
p13
(tsS'components'
p14
(tsS'anchors'
p15
(tsss."
LayerCount: 2
Fore
SplineSet
465 1056 m 0
 465 961 534 890 649 858 c 1
 784 896 872 976 888 1095 c 0
 889 1102 889 1108 889 1114 c 0
 889 1207 807 1260 698 1260 c 0
 568 1260 465 1197 465 1056 c 0
570 199 m 0
 714 199 816 264 835 413 c 0
 836 421 836 429 836 437 c 0
 836 543 750 642 634 674 c 1
 482 641 357 532 357 374 c 0
 357 260 438 199 570 199 c 0
890 761 m 1
 1007 698 1093 571 1093 429 c 0
 1093 415 1092 401 1090 387 c 0
 1056 121 804 -23 547 -23 c 0
 284 -23 94 107 94 340 c 0
 94 358 95 376 97 395 c 0
 118 558 228 689 390 764 c 1
 284 828 211 921 211 1051 c 0
 211 1066 212 1083 214 1099 c 0
 243 1342 458 1483 724 1483 c 0
 991 1483 1148 1357 1148 1145 c 0
 1148 949 1043 831 890 761 c 1
EndSplineSet
EndChar

StartChar: ellipsis
Encoding: 8230 8230 249
Width: 1620
VWidth: 0
Flags: HW
PickledData: "(dp1
S'org.robofab.postScriptHintData'
p2
(dp3
s."
LayerCount: 2
Fore
SplineSet
1141 -11 m 1
 1174 260 l 1
 1472 260 l 1
 1440 -11 l 1
 1141 -11 l 1
619 -11 m 1
 652 260 l 1
 954 260 l 1
 922 -11 l 1
 619 -11 l 1
98 -11 m 1
 131 260 l 1
 432 260 l 1
 401 -11 l 1
 98 -11 l 1
EndSplineSet
EndChar

StartChar: emdash
Encoding: 8212 8212 251
Width: 2171
VWidth: 0
Flags: HW
PickledData: "(dp1
S'org.robofab.postScriptHintData'
p2
(dp3
s."
LayerCount: 2
Fore
SplineSet
17 453 m 1
 42 658 l 1
 2154 658 l 1
 2129 453 l 1
 17 453 l 1
EndSplineSet
EndChar

StartChar: endash
Encoding: 8211 8211 252
Width: 1074
VWidth: 0
Flags: HW
PickledData: "(dp1
S'org.robofab.postScriptHintData'
p2
(dp3
sS'com.typemytype.robofont.layerData'
p4
(dp5
s."
LayerCount: 2
Fore
SplineSet
-28 449 m 1
 -3 658 l 1
 1102 658 l 1
 1077 449 l 1
 -28 449 l 1
EndSplineSet
EndChar

StartChar: eng
Encoding: 331 331 253
Width: 1191
VWidth: 0
Flags: HW
PickledData: "(dp1
S'org.robofab.postScriptHintData'
p2
(dp3
sS'com.typemytype.robofont.layerData'
p4
(dp5
s."
LayerCount: 2
Fore
SplineSet
436 -396 m 1
 459 -197 l 1
 605 -197 758 -146 781 50 c 2
 850 602 l 2
 854 636 856 666 856 693 c 0
 856 807 816 852 711 852 c 0
 619 852 458 768 439 614 c 2
 364 0 l 1
 116 0 l 1
 195 635 l 2
 220 850 222 990 222 1020 c 2
 222 1026 l 1
 484 1026 l 1
 466 878 l 1
 538 995 686 1052 785 1052 c 0
 982 1052 1104 969 1104 714 c 0
 1104 675 1101 632 1095 585 c 2
 1037 110 l 2
 995 -235 755 -396 436 -396 c 1
EndSplineSet
EndChar

StartChar: equal
Encoding: 61 61 255
Width: 1479
VWidth: 0
Flags: HW
PickledData: "(dp1
S'org.robofab.postScriptHintData'
p2
(dp3
sS'com.typemytype.robofont.layerData'
p4
(dp5
S'b'
(dp6
S'name'
p7
S'equal'
p8
sS'lib'
p9
(dp10
sS'unicodes'
p11
(tsS'width'
p12
I1229
sS'contours'
p13
(tsS'components'
p14
(tsS'anchors'
p15
(tsss."
LayerCount: 2
Fore
SplineSet
229 667 m 1
 255 868 l 1
 1298 868 l 1
 1273 667 l 1
 229 667 l 1
179 261 m 1
 204 461 l 1
 1250 461 l 1
 1224 261 l 1
 179 261 l 1
EndSplineSet
EndChar

StartChar: estimated
Encoding: 8494 8494 256
Width: 1191
VWidth: 0
Flags: HW
PickledData: "(dp1
S'org.robofab.postScriptHintData'
p2
(dp3
s."
LayerCount: 2
Fore
SplineSet
364 713 m 1
 871 713 l 1
 877 758 879 799 879 836 c 0
 879 1064 780 1141 668 1141 c 0
 538 1141 403 1036 364 713 c 1
1069 655 m 1
 351 655 l 1
 346 612 343 572 343 535 c 0
 343 294 450 176 623 176 c 0
 725 176 850 218 985 299 c 1
 1006 247 l 1
 859 158 702 114 560 114 c 0
 299 114 89 265 89 565 c 0
 89 593 91 622 95 652 c 0
 144 1050 425 1199 678 1199 c 0
 891 1199 1085 1097 1085 798 c 0
 1085 752 1084 696 1069 655 c 1
EndSplineSet
EndChar

StartChar: eth
Encoding: 240 240 257
Width: 1217
VWidth: 0
Flags: HW
PickledData: "(dp1
S'org.robofab.postScriptHintData'
p2
(dp3
sS'com.typemytype.robofont.layerData'
p4
(dp5
S'b'
(dp6
S'name'
p7
S'eth'
p8
sS'lib'
p9
(dp10
sS'unicodes'
p11
(tsS'width'
p12
F1222.55
sS'contours'
p13
(tsS'components'
p14
(tsS'anchors'
p15
(tsss."
LayerCount: 2
Fore
SplineSet
810 476 m 0
 810 615 699 693 585 693 c 0
 461 693 319 604 319 402 c 0
 319 242 428 172 539 172 c 0
 648 172 810 273 810 476 c 0
494 -25 m 0
 221 -25 67 170 67 404 c 0
 67 426 68 448 71 471 c 0
 104 734 278 902 556 902 c 0
 666 902 781 874 881 753 c 1
 884 773 894 803 894 842 c 0
 894 908 865 999 721 1115 c 1
 451 989 l 1
 402 1122 l 1
 572 1201 l 1
 518 1219 452 1237 365 1258 c 1
 463 1417 l 1
 501 1416 648 1394 792 1306 c 1
 1064 1434 l 1
 1114 1300 l 1
 917 1208 l 1
 1018 1112 1100 966 1100 743 c 0
 1100 705 1097 664 1092 621 c 0
 1034 155 818 -25 494 -25 c 0
EndSplineSet
EndChar

StartChar: exclam
Encoding: 33 33 259
Width: 688
VWidth: 0
Flags: HW
PickledData: "(dp1
S'org.robofab.postScriptHintData'
p2
(dp3
sS'com.typemytype.robofont.layerData'
p4
(dp5
S'b'
(dp6
S'name'
p7
S'exclam'
p8
sS'lib'
p9
(dp10
sS'unicodes'
p11
(tsS'width'
p12
F590
sS'contours'
p13
(tsS'components'
p14
(tsS'anchors'
p15
(tsss."
LayerCount: 2
Fore
SplineSet
223 387 m 1
 280 1456 l 1
 575 1456 l 1
 371 387 l 1
 223 387 l 1
91 0 m 1
 125 273 l 1
 438 273 l 1
 405 0 l 1
 91 0 l 1
EndSplineSet
EndChar

StartChar: exclamdown
Encoding: 161 161 260
Width: 786
VWidth: 0
Flags: HW
PickledData: "(dp1
S'org.robofab.postScriptHintData'
p2
(dp3
sS'com.typemytype.robofont.layerData'
p4
(dp5
S'b'
(dp6
S'name'
p7
S'exclamdown'
p8
sS'lib'
p9
(dp10
sS'unicodes'
p11
(tsS'width'
p12
F614.5
sS'contours'
p13
(tsS'components'
p14
(tsS'anchors'
p15
(tsss."
LayerCount: 2
Fore
SplineSet
351 769 m 1
 499 769 l 1
 436 -300 l 1
 141 -300 l 1
 351 769 l 1
316 1156 m 1
 630 1156 l 1
 594 883 l 1
 281 883 l 1
 316 1156 l 1
EndSplineSet
EndChar

StartChar: f
Encoding: 102 102 261
Width: 820
VWidth: 0
Flags: HW
PickledData: "(dp1
S'org.robofab.postScriptHintData'
p2
(dp3
sS'com.typemytype.robofont.layerData'
p4
(dp5
S'b'
(dp6
S'name'
p7
S'f'
sS'lib'
p8
(dp9
sS'unicodes'
p10
(tsS'width'
p11
F733.10000000000002
sS'contours'
p12
(tsS'components'
p13
(tsS'anchors'
p14
(tsss."
LayerCount: 2
Fore
SplineSet
170 0 m 1
 275 860 l 1
 84 860 l 1
 105 1026 l 1
 296 1026 l 1
 301 1066 l 2
 337 1358 385 1485 784 1485 c 2
 837 1485 l 1
 805 1292 l 1
 595 1292 572 1270 547 1069 c 1
 543 1026 l 1
 774 1026 l 1
 753 860 l 1
 521 860 l 1
 417 0 l 1
 170 0 l 1
EndSplineSet
EndChar

StartChar: f_f
Encoding: 64256 64256 262
Width: 1594
VWidth: 0
Flags: HW
PickledData: "(dp1
S'org.robofab.postScriptHintData'
p2
(dp3
sS'com.typemytype.robofont.layerData'
p4
(dp5
s."
LayerCount: 2
Fore
SplineSet
1296 855 m 1
 1192 0 l 1
 939 0 l 1
 1043 855 l 1
 528 855 l 1
 424 0 l 1
 171 0 l 1
 275 855 l 1
 83 855 l 1
 105 1026 l 1
 297 1026 l 1
 302 1062 l 1
 338 1357 385 1485 789 1485 c 2
 843 1485 l 1
 809 1287 l 1
 602 1287 579 1267 554 1063 c 2
 550 1026 l 1
 1065 1026 l 1
 1070 1062 l 1
 1106 1357 1153 1485 1557 1485 c 2
 1611 1485 l 1
 1577 1287 l 1
 1370 1287 1347 1267 1322 1063 c 2
 1318 1026 l 1
 1569 1026 l 1
 1547 855 l 1
 1296 855 l 1
EndSplineSet
EndChar

StartChar: f_f_i
Encoding: 64259 64259 263
Width: 2131
VWidth: 0
Flags: HW
PickledData: "(dp1
S'org.robofab.postScriptHintData'
p2
(dp3
sS'com.typemytype.robofont.layerData'
p4
(dp5
s."
LayerCount: 2
Fore
SplineSet
2051 1233 m 5
 1805 1233 l 5
 1833 1456 l 5
 2078 1456 l 5
 2051 1233 l 5
1899 0 m 5
 1654 0 l 5
 1758 855 l 5
 1292 855 l 5
 1188 0 l 5
 935 0 l 5
 1039 855 l 5
 529 855 l 1
 425 0 l 1
 172 0 l 1
 276 855 l 1
 84 855 l 1
 106 1026 l 1
 298 1026 l 1
 303 1062 l 1
 339 1357 386 1485 790 1485 c 2
 844 1485 l 1
 810 1288 l 1
 603 1288 580 1268 555 1064 c 2
 551 1026 l 1
 1061 1026 l 5
 1065 1062 l 5
 1102 1357 1149 1485 1553 1485 c 6
 1607 1485 l 5
 1574 1288 l 5
 1367 1288 1343 1268 1318 1064 c 6
 1314 1026 l 5
 2025 1026 l 5
 1899 0 l 5
EndSplineSet
EndChar

StartChar: f_f_l
Encoding: 64260 64260 264
Width: 2207
VWidth: 0
Flags: HW
PickledData: "(dp1
S'org.robofab.postScriptHintData'
p2
(dp3
sS'com.typemytype.robofont.layerData'
p4
(dp5
s."
LayerCount: 2
Fore
SplineSet
170 0 m 1
 274 855 l 1
 83 855 l 1
 105 1026 l 1
 296 1026 l 1
 301 1066 l 2
 337 1358 385 1485 784 1485 c 2
 837 1485 l 1
 805 1292 l 1
 595 1292 572 1270 547 1069 c 1
 543 1026 l 1
 945 1026 l 1
 923 855 l 1
 521 855 l 1
 417 0 l 1
 170 0 l 1
EndSplineSet
Refer: 269 64258 N 1 0 0 1 737 0 2
EndChar

StartChar: fi
Encoding: 64257 64257 266
Width: 1292
VWidth: 0
Flags: HW
PickledData: "(dp1
S'org.robofab.postScriptHintData'
p2
(dp3
sS'com.typemytype.robofont.layerData'
p4
(dp5
S'b'
(dp6
S'name'
p7
S'fi'
p8
sS'lib'
p9
(dp10
sS'unicodes'
p11
(tsS'width'
p12
F1237.6500000000001
sS'contours'
p13
((dp14
S'points'
p15
((dp16
S'segmentType'
p17
S'line'
p18
sS'x'
F249
sS'smooth'
p19
I00
sS'y'
F0
s(dp20
g17
S'line'
p21
sS'x'
F249
sg19
I00
sS'y'
F919
s(dp22
g17
S'line'
p23
sS'x'
F68
sg19
I00
sS'y'
F919
s(dp24
g17
S'line'
p25
sS'x'
F68
sg19
I00
sS'y'
F1026
s(dp26
g17
S'line'
p27
sS'x'
F249
sg19
I00
sS'y'
F1026
s(dp28
g17
S'line'
p29
sS'x'
F249
sg19
I01
sS'y'
F1127
s(dp30
S'y'
F1378
sS'x'
F249
sg19
I00
s(dp31
S'y'
F1492
sS'x'
F295
sg19
I00
s(dp32
g17
S'curve'
p33
sS'x'
F630
sg19
I01
sS'y'
F1492
s(dp34
g17
S'line'
p35
sS'x'
F676
sg19
I00
sS'y'
F1492
s(dp36
g17
S'line'
p37
sS'x'
F676
sg19
I00
sS'y'
F1364
s(dp38
S'y'
F1364
sS'x'
F431
sg19
I00
s(dp39
S'y'
F1311
sS'x'
F413
sg19
I00
s(dp40
g17
S'curve'
p41
sS'x'
F413
sg19
I01
sS'y'
F1150
s(dp42
g17
S'line'
p43
sS'x'
F413
sg19
I00
sS'y'
F1026
s(dp44
g17
S'line'
p45
sS'x'
F662
sg19
I00
sS'y'
F1026
s(dp46
g17
S'line'
p47
sS'x'
F662
sg19
I00
sS'y'
F919
s(dp48
g17
S'line'
p49
sS'x'
F413
sg19
I00
sS'y'
F919
s(dp50
g17
S'line'
p51
sS'x'
F413
sg19
I00
sS'y'
F0
stp52
s(dp53
g15
((dp54
g17
S'line'
p55
sS'x'
F869
sg19
I00
sS'y'
F0
s(dp56
g17
S'line'
p57
sS'x'
F869
sg19
I00
sS'y'
F1026
s(dp58
g17
S'line'
p59
sS'x'
F1033
sg19
I00
sS'y'
F1026
s(dp60
g17
S'line'
p61
sS'x'
F1033
sg19
I00
sS'y'
F0
stp62
s(dp63
g15
((dp64
g17
S'line'
p65
sS'x'
F869
sg19
I00
sS'y'
F1307
s(dp66
g17
S'line'
p67
sS'x'
F869
sg19
I00
sS'y'
F1462
s(dp68
g17
S'line'
p69
sS'x'
F1033
sg19
I00
sS'y'
F1462
s(dp70
g17
S'line'
p71
sS'x'
F1033
sg19
I00
sS'y'
F1307
stp72
stp73
sS'components'
p74
(tsS'anchors'
p75
(tsss."
LayerCount: 2
Fore
SplineSet
171 0 m 1
 275 855 l 1
 83 855 l 1
 105 1026 l 1
 297 1026 l 1
 302 1062 l 1
 338 1357 385 1485 789 1485 c 2
 843 1485 l 1
 809 1287 l 1
 602 1287 579 1267 554 1063 c 1
 550 1026 l 1
 1237 1026 l 1
 1111 0 l 1
 872 0 l 1
 977 855 l 1
 528 855 l 1
 424 0 l 1
 171 0 l 1
1023 1238 m 1
 1049 1456 l 1
 1289 1456 l 1
 1263 1238 l 1
 1023 1238 l 1
EndSplineSet
EndChar

StartChar: five
Encoding: 53 53 267
Width: 1272
VWidth: 0
Flags: HW
PickledData: "(dp1
S'org.robofab.postScriptHintData'
p2
(dp3
sS'com.typemytype.robofont.layerData'
p4
(dp5
s."
LayerCount: 2
Fore
SplineSet
858 524 m 0
 858 640 801 735 694 735 c 0
 627 735 561 720 520 670 c 1
 271 704 l 1
 363 1456 l 1
 1172 1456 l 1
 1144 1239 l 1
 559 1239 l 1
 502 866 l 1
 569 941 670 960 773 960 c 0
 971 960 1122 787 1122 545 c 0
 1122 165 807 -23 531 -23 c 0
 368 -23 205 44 95 177 c 1
 251 367 l 1
 332 251 447 194 553 194 c 0
 702 194 858 306 858 524 c 0
EndSplineSet
EndChar

StartChar: fl
Encoding: 64258 64258 269
Width: 1337
VWidth: 0
Flags: HW
PickledData: "(dp1
S'org.robofab.postScriptHintData'
p2
(dp3
sS'com.typemytype.robofont.layerData'
p4
(dp5
S'b'
(dp6
S'name'
p7
S'fl'
p8
sS'lib'
p9
(dp10
sS'unicodes'
p11
(tsS'width'
p12
F1252.7
sS'contours'
p13
(tsS'components'
p14
((dp15
S'transformation'
p16
(I1
I0
I0
I1
I20
I0
tp17
sS'baseGlyph'
p18
S'f'
s(dp19
g16
(I1
I0
I0
I1
I714
I0
tp20
sg18
S'l'
stp21
sS'anchors'
p22
(tsss."
LayerCount: 2
Fore
SplineSet
164 0 m 1
 270 855 l 1
 84 855 l 1
 104 1026 l 1
 290 1026 l 1
 291 1037 l 1
 327 1330 418 1462 759 1462 c 2
 1301 1462 l 1
 1121 0 l 1
 869 0 l 1
 1024 1266 l 1
 790 1266 l 2
 613 1266 568 1221 552 1093 c 2
 544 1026 l 1
 774 1026 l 1
 753 855 l 1
 523 855 l 1
 418 0 l 1
 164 0 l 1
EndSplineSet
EndChar

StartChar: florin
Encoding: 402 402 270
Width: 1111
VWidth: 0
Flags: HW
PickledData: "(dp1
S'org.robofab.postScriptHintData'
p2
(dp3
sS'com.typemytype.robofont.layerData'
p4
(dp5
S'b'
(dp6
S'name'
p7
S'florin'
p8
sS'lib'
p9
(dp10
sS'unicodes'
p11
(tsS'width'
p12
F1073.0999999999999
sS'contours'
p13
(tsS'components'
p14
(tsS'anchors'
p15
(tsss."
LayerCount: 2
Fore
SplineSet
95 -315 m 0
 93 -315 37 -313 -11 -297 c 1
 32 -90 l 1
 39 -91 84 -100 128 -100 c 0
 178 -100 243 -88 297 87 c 2
 463 633 l 1
 324 633 l 1
 385 796 l 1
 515 796 l 1
 610 1107 l 2
 653 1244 737 1450 1009 1450 c 0
 1140 1450 1193 1405 1193 1405 c 1
 1152 1205 l 1
 1140 1209 1085 1225 1039 1225 c 0
 991 1225 923 1215 886 1095 c 2
 791 796 l 1
 941 796 l 1
 888 633 l 1
 734 633 l 1
 555 45 l 2
 471 -233 308 -315 95 -315 c 0
EndSplineSet
EndChar

StartChar: foundryicon
Encoding: 65542 -1 271
Width: 1347
VWidth: 0
Flags: HW
PickledData: "(dp1
S'org.robofab.postScriptHintData'
p2
(dp3
s."
LayerCount: 2
Fore
SplineSet
485 405 m 1
 591 405 l 1
 591 552 l 1
 761 405 l 1
 867 405 l 1
 867 672 l 1
 761 672 l 1
 761 523 l 1
 591 672 l 1
 485 672 l 1
 485 405 l 1
280 2 m 1
 423 461 l 1
 34 755 l 1
 519 755 l 1
 669 1215 l 1
 828 755 l 1
 1313 755 l 1
 922 461 l 1
 1066 2 l 1
 669 278 l 1
 280 2 l 1
EndSplineSet
EndChar

StartChar: four
Encoding: 52 52 272
Width: 1272
VWidth: 0
Flags: HW
PickledData: "(dp1
S'org.robofab.postScriptHintData'
p2
(dp3
sS'com.typemytype.robofont.layerData'
p4
(dp5
S'b'
(dp6
S'name'
p7
S'four'
p8
sS'lib'
p9
(dp10
sS'unicodes'
p11
(tsS'width'
p12
F1234.0999999999999
sS'contours'
p13
(tsS'components'
p14
(tsS'anchors'
p15
(tsss."
LayerCount: 2
Fore
SplineSet
370 580 m 1
 710 580 l 1
 779 1134 l 1
 641 951 506 765 370 580 c 1
635 0 m 1
 682 381 l 1
 65 381 l 1
 88 570 l 1
 780 1456 l 1
 1066 1456 l 1
 958 580 l 1
 1187 580 l 1
 1164 381 l 1
 940 381 l 1
 893 0 l 1
 635 0 l 1
EndSplineSet
EndChar

StartChar: foursuperior
Encoding: 8308 8308 273
Width: 762
VWidth: 0
Flags: HW
PickledData: "(dp1
S'org.robofab.postScriptHintData'
p2
(dp3
sS'com.typemytype.robofont.layerData'
p4
(dp5
s."
LayerCount: 2
Fore
SplineSet
227 973 m 1
 407 973 l 1
 438 1229 l 1
 227 973 l 1
368 642 m 1
 392 837 l 1
 25 837 l 1
 38 952 l 1
 470 1456 l 1
 654 1456 l 1
 594 973 l 1
 712 973 l 1
 695 837 l 1
 578 837 l 1
 554 642 l 1
 368 642 l 1
EndSplineSet
EndChar

StartChar: fraction
Encoding: 8260 8260 274
Width: 1134
VWidth: 0
Flags: HW
PickledData: "(dp1
S'org.robofab.postScriptHintData'
p2
(dp3
sS'com.typemytype.robofont.layerData'
p4
(dp5
S'b'
(dp6
S'name'
p7
S'fraction'
p8
sS'lib'
p9
(dp10
sS'unicodes'
p11
(tsS'width'
p12
F1077.8
sS'contours'
p13
(tsS'components'
p14
(tsS'anchors'
p15
(tsss."
LayerCount: 2
Fore
SplineSet
-101 0 m 1
 962 1456 l 1
 1211 1456 l 1
 148 0 l 1
 -101 0 l 1
EndSplineSet
EndChar

StartChar: g
Encoding: 103 103 275
Width: 1235
VWidth: 0
Flags: HW
PickledData: "(dp1
S'org.robofab.postScriptHintData'
p2
(dp3
sS'com.typemytype.robofont.layerData'
p4
(dp5
S'b'
(dp6
S'name'
p7
S'g'
sS'lib'
p8
(dp9
sS'unicodes'
p10
(tsS'width'
p11
I1254
sS'contours'
p12
((dp13
S'points'
p14
((dp15
S'segmentType'
p16
S'curve'
p17
sS'x'
F580
sS'smooth'
p18
I01
sS'y'
F134
s(dp19
S'y'
F134
sS'x'
F799
sg18
I00
s(dp20
S'y'
F295
sS'x'
F920
sg18
I00
s(dp21
g16
S'curve'
p22
sS'x'
F920
sg18
I01
sS'y'
F550
s(dp23
S'y'
F775
sS'x'
F920
sg18
I00
s(dp24
S'y'
F918
sS'x'
F796
sg18
I00
s(dp25
g16
S'curve'
p26
sS'x'
F600
sg18
I01
sS'y'
F918
s(dp27
S'y'
F918
sS'x'
F399
sg18
I00
s(dp28
S'y'
F762
sS'x'
F268
sg18
I00
s(dp29
g16
S'curve'
p30
sS'x'
F268
sg18
I01
sS'y'
F515
s(dp31
S'y'
F282
sS'x'
F268
sg18
I00
s(dp32
S'y'
F134
sS'x'
F389
sg18
I00
stp33
s(dp34
g14
((dp35
g16
S'curve'
p36
sS'x'
F534
sg18
I01
sS'y'
F-420
s(dp37
S'y'
F-420
sS'x'
F408
sg18
I00
s(dp38
S'y'
F-381
sS'x'
F289
sg18
I00
s(dp39
g16
S'curve'
p40
sS'x'
F189
sg18
I00
sS'y'
F-331
s(dp41
g16
S'line'
p42
sS'x'
F216
sg18
I00
sS'y'
F-187
s(dp43
S'y'
F-238
sS'x'
F300
sg18
I00
s(dp44
S'y'
F-282
sS'x'
F416
sg18
I00
s(dp45
g16
S'curve'
p46
sS'x'
F528
sg18
I01
sS'y'
F-282
s(dp47
S'y'
F-282
sS'x'
F790
sg18
I00
s(dp48
S'y'
F-183
sS'x'
F920
sg18
I00
s(dp49
g16
S'curve'
p50
sS'x'
F920
sg18
I01
sS'y'
F49
s(dp51
g16
S'line'
p52
sS'x'
F920
sg18
I00
sS'y'
F273
s(dp53
g16
S'line'
p54
sS'x'
F948
sg18
I00
sS'y'
F253
s(dp55
S'y'
F139
sS'x'
F905
sg18
I00
s(dp56
S'y'
F0
sS'x'
F802
sg18
I00
s(dp57
g16
S'curve'
p58
sS'x'
F579
sg18
I01
sS'y'
F0
s(dp59
S'y'
F0
sS'x'
F298
sg18
I00
s(dp60
S'y'
F201
sS'x'
F98
sg18
I00
s(dp61
g16
S'curve'
p62
sS'x'
F98
sg18
I01
sS'y'
F511
s(dp63
S'y'
F843
sS'x'
F98
sg18
I00
s(dp64
S'y'
F1052
sS'x'
F284
sg18
I00
s(dp65
g16
S'curve'
p66
sS'x'
F579
sg18
I01
sS'y'
F1052
s(dp67
S'y'
F1052
sS'x'
F820
sg18
I00
s(dp68
S'y'
F900
sS'x'
F903
sg18
I00
s(dp69
g16
S'curve'
p70
sS'x'
F958
sg18
I00
sS'y'
F798
s(dp71
g16
S'line'
p72
sS'x'
F919
sg18
I00
sS'y'
F787
s(dp73
g16
S'line'
p74
sS'x'
F926
sg18
I00
sS'y'
F1026
s(dp75
g16
S'line'
p76
sS'x'
F1090
sg18
I00
sS'y'
F1026
s(dp77
S'y'
F1026
sS'x'
F1090
sg18
I00
s(dp78
S'y'
F857
sS'x'
F1084
sg18
I00
s(dp79
g16
S'curve'
p80
sS'x'
F1084
sg18
I01
sS'y'
F773
s(dp81
g16
S'line'
p82
sS'x'
F1084
sg18
I01
sS'y'
F143
s(dp83
S'y'
F-255
sS'x'
F1084
sg18
I00
s(dp84
S'y'
F-420
sS'x'
F903
sg18
I00
stp85
stp86
sS'components'
p87
(tsS'anchors'
p88
(tsss."
LayerCount: 2
Fore
SplineSet
387 439 m 0
 387 285 453 187 610 187 c 0
 813 187 885 360 904 516 c 0
 907 542 909 568 909 592 c 0
 909 743 846 851 696 851 c 0
 495 851 387 654 387 439 c 0
488 -418 m 0
 353 -418 226 -394 106 -348 c 1
 175 -134 l 1
 293 -199 407 -212 496 -212 c 0
 681 -212 810 -136 832 35 c 2
 842 122 l 1
 795 68 713 0 571 0 c 0
 296 0 127 165 127 432 c 0
 127 459 129 486 132 515 c 0
 167 795 345 1052 680 1052 c 0
 814 1052 901 990 940 916 c 1
 954 1026 l 1
 1217 1026 l 1
 1217 1026 1178 874 1154 682 c 2
 1089 147 l 2
 1059 -95 952 -418 488 -418 c 0
EndSplineSet
EndChar

StartChar: germandbls
Encoding: 223 223 282
Width: 1265
VWidth: 0
Flags: HW
PickledData: "(dp1
S'org.robofab.postScriptHintData'
p2
(dp3
sS'com.typemytype.robofont.layerData'
p4
(dp5
S'b'
(dp6
S'name'
p7
S'germandbls'
p8
sS'lib'
p9
(dp10
sS'unicodes'
p11
(tsS'width'
p12
F1250.95145088
sS'contours'
p13
(tsS'components'
p14
(tsS'anchors'
p15
(tsss."
LayerCount: 2
Fore
SplineSet
876 377 m 0
 876 506 786 592 568 709 c 1
 591 897 l 1
 693 939 810 1037 824 1146 c 0
 825 1152 825 1157 825 1162 c 0
 825 1239 753 1280 676 1280 c 0
 546 1280 444 1185 421 999 c 2
 297 0 l 1
 57 0 l 1
 178 1000 l 2
 216 1327 418 1478 698 1478 c 0
 938 1478 1098 1362 1098 1195 c 0
 1098 1184 1097 1173 1096 1161 c 0
 1082 1044 1000 915 866 852 c 0
 827 833 795 822 754 811 c 1
 970 762 1156 637 1156 408 c 0
 1156 141 951 -22 737 -22 c 0
 560 -22 420 37 420 37 c 1
 486 230 l 1
 486 230 592 175 694 175 c 0
 809 175 876 241 876 377 c 0
EndSplineSet
EndChar

StartChar: grave
Encoding: 96 96 283
Width: 610
VWidth: 0
Flags: HW
PickledData: "(dp1
S'org.robofab.postScriptHintData'
p2
(dp3
sS'com.typemytype.robofont.layerData'
p4
(dp5
s."
LayerCount: 2
Fore
SplineSet
319 1166 m 1
 3 1455 l 1
 321 1455 l 1
 547 1166 l 1
 319 1166 l 1
EndSplineSet
EndChar

StartChar: greater
Encoding: 62 62 284
Width: 1418
VWidth: 0
Flags: HW
PickledData: "(dp1
S'org.robofab.postScriptHintData'
p2
(dp3
sS'com.typemytype.robofont.layerData'
p4
(dp5
S'b'
(dp6
S'name'
p7
S'greater'
p8
sS'lib'
p9
(dp10
sS'unicodes'
p11
(tsS'width'
p12
F1268.05
sS'contours'
p13
(tsS'components'
p14
(tsS'anchors'
p15
(tsss."
LayerCount: 2
Fore
SplineSet
146 39 m 1
 176 272 l 1
 933 573 l 1
 257 897 l 1
 286 1123 l 1
 1274 624 l 1
 1259 500 l 1
 146 39 l 1
EndSplineSet
EndChar

StartChar: greaterequal
Encoding: 8805 8805 285
Width: 1351
VWidth: 0
Flags: HW
PickledData: "(dp1
S'org.robofab.postScriptHintData'
p2
(dp3
sS'com.typemytype.robofont.layerData'
p4
(dp5
S'b'
(dp6
S'name'
p7
S'greaterequal'
p8
sS'lib'
p9
(dp10
sS'unicodes'
p11
(tsS'width'
p12
F1350.3499999999999
sS'contours'
p13
(tsS'components'
p14
(tsS'anchors'
p15
(tsss."
LayerCount: 2
Fore
SplineSet
14 0 m 1
 38 189 l 1
 1108 189 l 1
 1084 0 l 1
 14 0 l 1
52 261 m 1
 81 489 l 1
 844 807 l 1
 162 1117 l 1
 189 1340 l 1
 1180 867 l 1
 1166 752 l 1
 52 261 l 1
EndSplineSet
EndChar

StartChar: guillemotleft
Encoding: 171 171 286
Width: 1177
VWidth: 0
Flags: HW
PickledData: "(dp1
S'org.robofab.postScriptHintData'
p2
(dp3
sS'com.typemytype.robofont.layerData'
p4
(dp5
S'b'
(dp6
S'name'
p7
S'guillemotright'
p8
sS'lib'
p9
(dp10
sS'unicodes'
p11
(tsS'width'
p12
F1122.45
sS'contours'
p13
(tsS'components'
p14
(tsS'anchors'
p15
(tsss."
LayerCount: 2
Fore
SplineSet
807 158 m 1
 577 541 l 1
 908 922 l 1
 1108 922 l 1
 822 539 l 1
 1005 158 l 1
 807 158 l 1
365 158 m 1
 136 541 l 1
 467 922 l 1
 667 922 l 1
 381 539 l 1
 564 158 l 1
 365 158 l 1
EndSplineSet
EndChar

StartChar: guillemotright
Encoding: 187 187 287
Width: 1177
VWidth: 0
Flags: HW
PickledData: "(dp1
S'org.robofab.postScriptHintData'
p2
(dp3
sS'com.typemytype.robofont.layerData'
p4
(dp5
S'b'
(dp6
S'name'
p7
S'guillemotright'
p8
sS'lib'
p9
(dp10
sS'unicodes'
p11
(tsS'width'
p12
F1122.45
sS'contours'
p13
(tsS'components'
p14
(tsS'anchors'
p15
(tsss."
LayerCount: 2
Fore
SplineSet
528 158 m 1
 814 541 l 1
 631 922 l 1
 829 922 l 1
 1059 539 l 1
 729 158 l 1
 528 158 l 1
87 158 m 1
 373 541 l 1
 190 922 l 1
 388 922 l 1
 618 539 l 1
 287 158 l 1
 87 158 l 1
EndSplineSet
EndChar

StartChar: guilsinglleft
Encoding: 8249 8249 288
Width: 725
VWidth: 0
Flags: HW
PickledData: "(dp1
S'org.robofab.postScriptHintData'
p2
(dp3
sS'com.typemytype.robofont.layerData'
p4
(dp5
S'b'
(dp6
S'name'
p7
S'guilsinglleft'
p8
sS'lib'
p9
(dp10
sS'unicodes'
p11
(tsS'width'
p12
F688.39999999999998
sS'contours'
p13
(tsS'components'
p14
(tsS'anchors'
p15
(tsss."
LayerCount: 2
Fore
SplineSet
368 158 m 1
 138 541 l 1
 469 922 l 1
 669 922 l 1
 383 540 l 1
 566 158 l 1
 368 158 l 1
EndSplineSet
EndChar

StartChar: guilsinglright
Encoding: 8250 8250 289
Width: 725
VWidth: 0
Flags: HW
PickledData: "(dp1
S'org.robofab.postScriptHintData'
p2
(dp3
sS'com.typemytype.robofont.layerData'
p4
(dp5
S'b'
(dp6
S'name'
p7
S'guilsinglleft'
p8
sS'lib'
p9
(dp10
sS'unicodes'
p11
(tsS'width'
p12
F688.39999999999998
sS'contours'
p13
(tsS'components'
p14
(tsS'anchors'
p15
(tsss."
LayerCount: 2
Fore
SplineSet
43 157 m 1
 329 539 l 1
 146 921 l 1
 345 921 l 1
 575 538 l 1
 244 157 l 1
 43 157 l 1
EndSplineSet
EndChar

StartChar: h
Encoding: 104 104 290
Width: 1219
VWidth: 0
Flags: HW
PickledData: "(dp1
S'org.robofab.postScriptHintData'
p2
(dp3
sS'com.typemytype.robofont.layerData'
p4
(dp5
S'b'
(dp6
S'name'
p7
S'h'
sS'lib'
p8
(dp9
sS'unicodes'
p10
(tsS'width'
p11
F1237.95
sS'contours'
p12
((dp13
S'points'
p14
((dp15
S'segmentType'
p16
S'line'
p17
sS'x'
F178
sS'smooth'
p18
I00
sS'y'
F0
s(dp19
g16
S'line'
p20
sS'x'
F178
sg18
I01
sS'y'
F779
s(dp21
S'y'
F902
sS'x'
F178
sg18
I00
s(dp22
S'y'
F1026
sS'x'
F172
sg18
I00
s(dp23
g16
S'curve'
p24
sS'x'
F172
sg18
I00
sS'y'
F1026
s(dp25
g16
S'line'
p26
sS'x'
F339
sg18
I00
sS'y'
F1026
s(dp27
g16
S'line'
p28
sS'x'
F343
sg18
I00
sS'y'
F864
s(dp29
S'y'
F976
sS'x'
F423
sg18
I00
s(dp30
S'y'
F1051
sS'x'
F548
sg18
I00
s(dp31
g16
S'curve'
p32
sS'x'
F700
sg18
I01
sS'y'
F1051
s(dp33
S'y'
F1051
sS'x'
F999
sg18
I00
s(dp34
S'y'
F844
sS'x'
F1082
sg18
I00
s(dp35
g16
S'curve'
p36
sS'x'
F1082
sg18
I01
sS'y'
F550
s(dp37
g16
S'line'
p38
sS'x'
F1082
sg18
I00
sS'y'
F0
s(dp39
g16
S'line'
p40
sS'x'
F917
sg18
I00
sS'y'
F0
s(dp41
g16
S'line'
p42
sS'x'
F917
sg18
I01
sS'y'
F531
s(dp43
S'y'
F764
sS'x'
F917
sg18
I00
s(dp44
S'y'
F917
sS'x'
F886
sg18
I00
s(dp45
g16
S'curve'
p46
sS'x'
F670
sg18
I01
sS'y'
F917
s(dp47
S'y'
F917
sS'x'
F471
sg18
I00
s(dp48
S'y'
F742
sS'x'
F344
sg18
I00
s(dp49
g16
S'curve'
p50
sS'x'
F343
sg18
I00
sS'y'
F652
s(dp51
g16
S'line'
p52
sS'x'
F343
sg18
I00
sS'y'
F0
stp53
stp54
sS'components'
p55
(tsS'anchors'
p56
(tsss."
LayerCount: 2
Fore
SplineSet
54 0 m 1
 234 1457 l 1
 482 1457 l 1
 412 893 l 1
 478 993 636 1052 738 1052 c 0
 1017 1052 1077 859 1077 686 c 0
 1077 646 1074 606 1069 571 c 2
 999 0 l 1
 751 0 l 1
 823 579 l 2
 827 611 829 639 829 665 c 0
 829 800 775 851 677 851 c 0
 543 851 394 743 378 618 c 2
 302 0 l 1
 54 0 l 1
EndSplineSet
EndChar

StartChar: hungarumlaut
Encoding: 733 733 293
Width: 969
VWidth: 0
Flags: HW
PickledData: "(dp1
S'org.robofab.postScriptHintData'
p2
(dp3
s."
LayerCount: 2
Fore
SplineSet
356 1112 m 1
 629 1456 l 1
 934 1456 l 1
 542 1112 l 1
 356 1112 l 1
48 1112 m 1
 284 1456 l 1
 570 1456 l 1
 227 1112 l 1
 48 1112 l 1
EndSplineSet
EndChar

StartChar: hyphen
Encoding: 45 45 294
Width: 741
VWidth: 0
Flags: HW
PickledData: "(dp1
S'org.robofab.postScriptHintData'
p2
(dp3
sS'com.typemytype.robofont.layerData'
p4
(dp5
S'b'
(dp6
S'name'
p7
S'hyphen'
p8
sS'lib'
p9
(dp10
sS'unicodes'
p11
(tsS'width'
p12
F683.5
sS'contours'
p13
(tsS'components'
p14
(tsS'anchors'
p15
(tsss."
LayerCount: 2
Fore
SplineSet
43 457 m 1
 66 647 l 1
 698 647 l 1
 675 457 l 1
 43 457 l 1
EndSplineSet
EndChar

StartChar: i
Encoding: 105 105 295
Width: 562
VWidth: 0
Flags: HW
PickledData: "(dp1
S'org.robofab.postScriptHintData'
p2
(dp3
sS'com.typemytype.robofont.layerData'
p4
(dp5
S'b'
(dp6
S'name'
p7
S'i'
sS'lib'
p8
(dp9
sS'unicodes'
p10
(tsS'width'
p11
F521.10000000000002
sS'contours'
p12
(tsS'components'
p13
(tsS'anchors'
p14
(tsss."
LayerCount: 2
Fore
SplineSet
263 1238 m 1
 289 1456 l 1
 529 1456 l 1
 503 1238 l 1
 263 1238 l 1
112 0 m 1
 238 1026 l 1
 477 1026 l 1
 351 0 l 1
 112 0 l 1
EndSplineSet
EndChar

StartChar: increment
Encoding: 8710 8710 307
Width: 1502
VWidth: 0
Flags: HW
PickledData: "(dp1
S'org.robofab.postScriptHintData'
p2
(dp3
sS'com.typemytype.robofont.layerData'
p4
(dp5
S'b'
(dp6
S'name'
p7
S'uni2206'
p8
sS'lib'
p9
(dp10
sS'unicodes'
p11
(tsS'width'
p12
F1312.25
sS'contours'
p13
(tsS'components'
p14
(tsS'anchors'
p15
(tsss."
LayerCount: 2
Fore
SplineSet
259 217 m 1
 1059 217 l 1
 763 1159 l 1
 259 217 l 1
-28 0 m 1
 -1 219 l 1
 700 1456 l 1
 971 1456 l 1
 1375 234 l 1
 1347 0 l 1
 -28 0 l 1
EndSplineSet
EndChar

StartChar: infinity
Encoding: 8734 8734 308
Width: 1742
VWidth: 0
Flags: HW
PickledData: "(dp1
S'org.robofab.postScriptHintData'
p2
(dp3
s."
LayerCount: 2
Fore
SplineSet
1254 385 m 0
 1399 385 1466 492 1483 627 c 0
 1484 635 1484 643 1484 651 c 0
 1484 744 1420 820 1302 820 c 0
 1176 820 1052 715 957 603 c 1
 1055 462 1136 385 1254 385 c 0
264 574 m 0
 264 475 331 385 458 385 c 0
 582 385 698 484 800 601 c 1
 728 724 635 820 501 820 c 0
 358 820 264 711 264 574 c 0
507 974 m 0
 672 974 793 879 890 719 c 1
 1022 875 1155 974 1327 974 c 0
 1529 974 1651 846 1651 663 c 0
 1651 405 1443 231 1235 231 c 0
 1084 231 972 309 860 486 c 1
 725 332 584 231 422 231 c 0
 220 231 96 383 96 572 c 0
 96 802 296 974 507 974 c 0
EndSplineSet
EndChar

StartChar: integral
Encoding: 8747 8747 309
Width: 820
VWidth: 0
Flags: HW
PickledData: "(dp1
S'org.robofab.postScriptHintData'
p2
(dp3
sS'com.typemytype.robofont.layerData'
p4
(dp5
S'b'
(dp6
S'name'
p7
S'integral'
p8
sS'lib'
p9
(dp10
sS'unicodes'
p11
(tsS'width'
p12
F754
sS'contours'
p13
(tsS'components'
p14
(tsS'anchors'
p15
(tsss."
LayerCount: 2
Fore
SplineSet
84 -324 m 0
 -24 -324 -84 -296 -84 -296 c 1
 -61 -109 l 1
 -61 -109 12 -125 73 -125 c 0
 157 -125 178 -67 192 40 c 2
 329 1158 l 2
 356 1379 480 1542 709 1542 c 0
 802 1542 882 1516 882 1516 c 1
 858 1321 l 1
 858 1321 780 1343 723 1343 c 0
 633 1343 603 1285 589 1179 c 2
 452 59 l 2
 425 -161 315 -324 84 -324 c 0
EndSplineSet
EndChar

StartChar: j
Encoding: 106 106 312
Width: 600
VWidth: 0
Flags: HW
PickledData: "(dp1
S'org.robofab.postScriptHintData'
p2
(dp3
sS'com.typemytype.robofont.layerData'
p4
(dp5
S'b'
(dp6
S'name'
p7
S'j'
sS'lib'
p8
(dp9
sS'unicodes'
p10
(tsS'width'
p11
F536.89999999999998
sS'contours'
p12
((dp13
S'points'
p14
((dp15
S'segmentType'
p16
S'curve'
p17
sS'x'
F65
sS'smooth'
p18
I01
sS'y'
F-410
s(dp19
S'y'
F-410
sS'x'
F-24
sg18
I00
s(dp20
S'y'
F-390
sS'x'
F-117
sg18
I00
s(dp21
g16
S'curve'
p22
sS'x'
F-117
sg18
I00
sS'y'
F-390
s(dp23
g16
S'line'
p24
sS'x'
F-102
sg18
I00
sS'y'
F-267
s(dp25
S'y'
F-267
sS'x'
F-102
sg18
I00
s(dp26
S'y'
F-280
sS'x'
F-44
sg18
I00
s(dp27
g16
S'curve'
p28
sS'x'
F19
sg18
I01
sS'y'
F-280
s(dp29
S'y'
F-280
sS'x'
F153
sg18
I00
s(dp30
S'y'
F-208
sS'x'
F177
sg18
I00
s(dp31
g16
S'curve'
p32
sS'x'
F177
sg18
I01
sS'y'
F-2
s(dp33
g16
S'line'
p34
sS'x'
F177
sg18
I00
sS'y'
F1026
s(dp35
g16
S'line'
p36
sS'x'
F341
sg18
I00
sS'y'
F1026
s(dp37
g16
S'line'
p38
sS'x'
F341
sg18
I01
sS'y'
F-6
s(dp39
S'y'
F-274
sS'x'
F341
sg18
I00
s(dp40
S'y'
F-410
sS'x'
F246
sg18
I00
stp41
s(dp42
g14
((dp43
g16
S'line'
p44
sS'x'
F177
sg18
I00
sS'y'
F1307
s(dp45
g16
S'line'
p46
sS'x'
F177
sg18
I00
sS'y'
F1462
s(dp47
g16
S'line'
p48
sS'x'
F341
sg18
I00
sS'y'
F1462
s(dp49
g16
S'line'
p50
sS'x'
F341
sg18
I00
sS'y'
F1307
stp51
stp52
sS'components'
p53
(tsS'anchors'
p54
(tsss."
LayerCount: 2
Fore
SplineSet
325 1228 m 1
 353 1456 l 1
 599 1456 l 1
 571 1228 l 1
 325 1228 l 1
EndSplineSet
Refer: 235 567 N 1 0 0 1 0 0 2
EndChar

StartChar: k
Encoding: 107 107 315
Width: 1076
VWidth: 0
Flags: HW
PickledData: "(dp1
S'org.robofab.postScriptHintData'
p2
(dp3
sS'com.typemytype.robofont.layerData'
p4
(dp5
S'b'
(dp6
S'name'
p7
S'k'
sS'lib'
p8
(dp9
sS'unicodes'
p10
(tsS'width'
p11
F1078.6500000000001
sS'contours'
p12
(tsS'components'
p13
(tsS'anchors'
p14
(tsss."
LayerCount: 2
Fore
SplineSet
50 0 m 1
 230 1457 l 1
 478 1457 l 1
 372 607 l 1
 796 1026 l 1
 1138 1026 l 1
 589 530 l 1
 1044 0 l 1
 715 0 l 1
 354 444 l 1
 298 0 l 1
 50 0 l 1
EndSplineSet
EndChar

StartChar: kgreenlandic
Encoding: 312 312 318
Width: 1082
VWidth: 0
Flags: HW
PickledData: "(dp1
S'org.robofab.postScriptHintData'
p2
(dp3
sS'com.typemytype.robofont.layerData'
p4
(dp5
s."
LayerCount: 2
Fore
SplineSet
82 0 m 1
 208 1026 l 1
 455 1026 l 1
 407 632 l 1
 810 1026 l 1
 1152 1026 l 1
 573 505 l 1
 974 88 621 449 1060 0 c 1
 727 0 l 1
 376 383 l 1
 329 0 l 1
 82 0 l 1
EndSplineSet
EndChar

StartChar: l
Encoding: 108 108 319
Width: 572
VWidth: 0
Flags: HW
PickledData: "(dp1
S'org.robofab.postScriptHintData'
p2
(dp3
sS'com.typemytype.robofont.layerData'
p4
(dp5
S'b'
(dp6
S'name'
p7
S'l'
sS'lib'
p8
(dp9
sS'unicodes'
p10
(tsS'width'
p11
F521.79999999999995
sS'contours'
p12
(tsS'components'
p13
(tsS'anchors'
p14
(tsss."
AnchorPoint: "caron.alt" 282 1026 basechar 0
LayerCount: 2
Fore
SplineSet
111 0 m 1
 290 1457 l 1
 536 1457 l 1
 356 0 l 1
 111 0 l 1
EndSplineSet
EndChar

StartChar: less
Encoding: 60 60 324
Width: 1416
VWidth: 0
Flags: HW
PickledData: "(dp1
S'org.robofab.postScriptHintData'
p2
(dp3
sS'com.typemytype.robofont.layerData'
p4
(dp5
S'b'
(dp6
S'name'
p7
S'less'
p8
sS'lib'
p9
(dp10
sS'unicodes'
p11
(tsS'width'
p12
F1267.3499999999999
sS'contours'
p13
(tsS'components'
p14
(tsS'anchors'
p15
(tsss."
LayerCount: 2
Fore
SplineSet
1132 36 m 1
 141 509 l 1
 154 624 l 1
 1267 1115 l 1
 1240 888 l 1
 476 569 l 1
 1159 259 l 1
 1132 36 l 1
EndSplineSet
EndChar

StartChar: lessequal
Encoding: 8804 8804 325
Width: 1351
VWidth: 0
Flags: HW
PickledData: "(dp1
S'org.robofab.postScriptHintData'
p2
(dp3
sS'com.typemytype.robofont.layerData'
p4
(dp5
S'b'
(dp6
S'name'
p7
S'lessequal'
p8
sS'lib'
p9
(dp10
sS'unicodes'
p11
(tsS'width'
p12
F1350.3499999999999
sS'contours'
p13
(tsS'components'
p14
(tsS'anchors'
p15
(tsss."
LayerCount: 2
Fore
SplineSet
19 0 m 1
 43 189 l 1
 1113 189 l 1
 1089 0 l 1
 19 0 l 1
1103 262 m 1
 112 736 l 1
 126 850 l 1
 1239 1342 l 1
 1211 1114 l 1
 447 796 l 1
 1130 486 l 1
 1103 262 l 1
EndSplineSet
EndChar

StartChar: logicalnot
Encoding: 172 172 327
Width: 1457
VWidth: 0
Flags: HW
PickledData: "(dp1
S'org.robofab.postScriptHintData'
p2
(dp3
sS'com.typemytype.robofont.layerData'
p4
(dp5
S'b'
(dp6
S'name'
p7
S'logicalnot'
p8
sS'lib'
p9
(dp10
sS'unicodes'
p11
(tsS'width'
p12
F1463.2
sS'contours'
p13
(tsS'components'
p14
(tsS'anchors'
p15
(tsss."
LayerCount: 2
Fore
SplineSet
959 220 m 1
 1006 609 l 1
 174 609 l 1
 199 814 l 1
 1264 814 l 1
 1192 220 l 1
 959 220 l 1
EndSplineSet
EndChar

StartChar: lozenge
Encoding: 9674 9674 329
Width: 1248
VWidth: 0
Flags: HW
PickledData: "(dp1
S'org.robofab.postScriptHintData'
p2
(dp3
sS'com.typemytype.robofont.layerData'
p4
(dp5
s."
LayerCount: 2
Fore
SplineSet
534 226 m 1
 876 697 l 1
 656 1154 l 1
 316 697 l 1
 534 226 l 1
420 -40 m 1
 71 697 l 1
 607 1436 l 1
 770 1436 l 1
 1122 698 l 1
 582 -40 l 1
 420 -40 l 1
EndSplineSet
EndChar

StartChar: lslash
Encoding: 322 322 330
Width: 503
VWidth: 0
Flags: HW
PickledData: "(dp1
S'org.robofab.postScriptHintData'
p2
(dp3
s."
LayerCount: 2
Fore
SplineSet
28 0 m 1
 118 727 l 1
 -6 627 l 1
 22 845 l 1
 143 945 l 1
 206 1458 l 1
 455 1458 l 1
 415 1130 l 1
 528 1226 l 1
 501 1003 l 1
 388 904 l 1
 277 0 l 1
 28 0 l 1
EndSplineSet
EndChar

StartChar: m
Encoding: 109 109 331
Width: 1839
VWidth: 0
Flags: HW
PickledData: "(dp1
S'org.robofab.postScriptHintData'
p2
(dp3
sS'com.typemytype.robofont.guides'
p4
(tsS'com.typemytype.robofont.layerData'
p5
(dp6
S'b'
(dp7
S'name'
p8
S'm'
sS'lib'
p9
(dp10
sS'unicodes'
p11
(tsS'width'
p12
F1873.95
sS'contours'
p13
(tsS'components'
p14
(tsS'anchors'
p15
(tsss."
LayerCount: 2
Fore
SplineSet
95 0 m 1
 181 696 l 2
 203 872 197 955 202 1026 c 1
 463 1026 l 1
 447 892 l 1
 507 983 628 1052 754 1052 c 0
 880 1052 992 993 1038 862 c 1
 1125 970 1240 1052 1394 1052 c 0
 1622 1052 1724 920 1724 714 c 0
 1724 687 1722 659 1719 629 c 2
 1641 0 l 1
 1393 0 l 1
 1469 614 l 2
 1471 632 1473 651 1473 670 c 0
 1473 758 1446 851 1350 851 c 0
 1196 851 1081 708 1065 581 c 2
 993 0 l 1
 745 0 l 1
 823 627 l 2
 825 644 826 661 826 680 c 0
 826 761 802 851 692 851 c 0
 550 851 434 741 420 623 c 2
 343 0 l 1
 95 0 l 1
EndSplineSet
EndChar

StartChar: macron
Encoding: 175 175 332
Width: 756
VWidth: 0
Flags: HW
PickledData: "(dp1
S'org.robofab.postScriptHintData'
p2
(dp3
sS'com.typemytype.robofont.layerData'
p4
(dp5
S'b'
(dp6
S'name'
p7
S'macron'
p8
sS'lib'
p9
(dp10
sS'unicodes'
p11
(tsS'width'
p12
F723
sS'contours'
p13
(tsS'components'
p14
(tsS'anchors'
p15
(tsss."
LayerCount: 2
Fore
SplineSet
56 1146 m 1
 75 1303 l 1
 700 1303 l 1
 681 1146 l 1
 56 1146 l 1
EndSplineSet
EndChar

StartChar: minus
Encoding: 8722 8722 335
Width: 1499
VWidth: 0
Flags: HW
PickledData: "(dp1
S'org.robofab.postScriptHintData'
p2
(dp3
s."
LayerCount: 2
Fore
SplineSet
188 284 m 1
 214 486 l 1
 1310 486 l 1
 1284 284 l 1
 188 284 l 1
EndSplineSet
EndChar

StartChar: mu
Encoding: 956 956 336
Width: 1179
VWidth: 0
Flags: HW
PickledData: "(dp1
S'org.robofab.postScriptHintData'
p2
(dp3
s."
LayerCount: 2
Fore
SplineSet
303 -213 m 1
 49 -213 l 1
 201 1026 l 1
 442 1026 l 1
 378 466 l 2
 374 431 372 399 372 369 c 0
 372 247 411 176 526 176 c 0
 672 176 762 221 788 425 c 2
 861 1026 l 1
 1112 1026 l 1
 1018 262 l 2
 1005 156 1002 114 1002 0 c 1
 743 0 l 1
 758 149 l 1
 686 7 550 -23 471 -23 c 0
 418 -23 354 -3 332 27 c 1
 303 -213 l 1
EndSplineSet
EndChar

StartChar: multiply
Encoding: 215 215 337
Width: 1272
VWidth: 0
Flags: HW
PickledData: "(dp1
S'org.robofab.postScriptHintData'
p2
(dp3
sS'com.typemytype.robofont.layerData'
p4
(dp5
s."
LayerCount: 2
Fore
SplineSet
310 116 m 1
 167 278 l 1
 470 547 l 1
 234 816 l 1
 415 977 l 1
 651 709 l 1
 954 977 l 1
 1095 817 l 1
 792 547 l 1
 1028 276 l 1
 849 116 l 1
 611 386 l 1
 310 116 l 1
EndSplineSet
EndChar

StartChar: n
Encoding: 110 110 338
Width: 1224
VWidth: 0
Flags: HW
PickledData: "(dp1
S'org.robofab.postScriptHintData'
p2
(dp3
sS'com.typemytype.robofont.layerData'
p4
(dp5
S'b'
(dp6
S'name'
p7
S'n'
sS'lib'
p8
(dp9
sS'unicodes'
p10
(tsS'width'
p11
F1240.05
sS'contours'
p12
(tsS'components'
p13
(tsS'anchors'
p14
(tsss."
LayerCount: 2
Fore
SplineSet
93 0 m 1
 172 635 l 2
 197 839 199 975 199 1014 c 2
 199 1026 l 1
 462 1026 l 1
 445 889 l 1
 535 1003 680 1052 779 1052 c 0
 979 1052 1110 966 1110 703 c 0
 1110 667 1107 628 1102 585 c 2
 1029 0 l 1
 781 0 l 1
 855 602 l 2
 859 631 860 657 860 681 c 0
 860 804 811 851 703 851 c 0
 611 851 435 768 418 614 c 2
 341 0 l 1
 93 0 l 1
EndSplineSet
EndChar

StartChar: nine
Encoding: 57 57 343
Width: 1272
VWidth: 0
Flags: HW
PickledData: "(dp1
S'org.robofab.postScriptHintData'
p2
(dp3
sS'com.typemytype.robofont.layerData'
p4
(dp5
S'b'
(dp6
S'name'
p7
S'nine'
p8
sS'lib'
p9
(dp10
sS'unicodes'
p11
(tsS'width'
p12
F1235.4000000000001
sS'contours'
p13
((dp14
S'points'
p15
((dp16
S'segmentType'
p17
S'curve'
p18
sS'x'
F314
sS'smooth'
p19
I01
sS'y'
F1010
s(dp20
S'y'
F827
sS'x'
F314
sg19
I00
s(dp21
S'y'
F687
sS'x'
F393
sg19
I00
s(dp22
g17
S'curve'
p23
sS'x'
F604
sg19
I01
sS'y'
F687
s(dp24
S'y'
F687
sS'x'
F784
sg19
I00
s(dp25
S'y'
F803
sS'x'
F908
sg19
I00
s(dp26
g17
S'curve'
p27
sS'x'
F908
sg19
I01
sS'y'
F991
s(dp28
S'y'
F1166
sS'x'
F908
sg19
I00
s(dp29
S'y'
F1334
sS'x'
F815
sg19
I00
s(dp30
g17
S'curve'
p31
sS'x'
F605
sg19
I01
sS'y'
F1334
s(dp32
S'y'
F1334
sS'x'
F419
sg19
I00
s(dp33
S'y'
F1196
sS'x'
F314
sg19
I00
stp34
s(dp35
g15
((dp36
g17
S'curve'
p37
sS'x'
F555
sg19
I01
sS'y'
F-24
s(dp38
S'y'
F-24
sS'x'
F434
sg19
I00
s(dp39
S'y'
F13
sS'x'
F304
sg19
I00
s(dp40
g17
S'curve'
p41
sS'x'
F175
sg19
I00
sS'y'
F79
s(dp42
g17
S'line'
p43
sS'x'
F232
sg19
I00
sS'y'
F211
s(dp44
S'y'
F152
sS'x'
F346
sg19
I00
s(dp45
S'y'
F124
sS'x'
F450
sg19
I00
s(dp46
g17
S'curve'
p47
sS'x'
F542
sg19
I01
sS'y'
F124
s(dp48
S'y'
F124
sS'x'
F773
sg19
I00
s(dp49
S'y'
F308
sS'x'
F920
sg19
I00
s(dp50
g17
S'curve'
p51
sS'x'
F920
sg19
I01
sS'y'
F657
s(dp52
g17
S'line'
p53
sS'x'
F920
sg19
I00
sS'y'
F722
s(dp54
S'y'
F600
sS'x'
F856
sg19
I00
s(dp55
S'y'
F544
sS'x'
F742
sg19
I00
s(dp56
g17
S'curve'
p57
sS'x'
F577
sg19
I01
sS'y'
F544
s(dp58
S'y'
F544
sS'x'
F298
sg19
I00
s(dp59
S'y'
F735
sS'x'
F138
sg19
I00
s(dp60
g17
S'curve'
p61
sS'x'
F138
sg19
I01
sS'y'
F1004
s(dp62
S'y'
F1275
sS'x'
F138
sg19
I00
s(dp63
S'y'
F1483
sS'x'
F311
sg19
I00
s(dp64
g17
S'curve'
p65
sS'x'
F613
sg19
I01
sS'y'
F1483
s(dp66
S'y'
F1483
sS'x'
F939
sg19
I00
s(dp67
S'y'
F1231
sS'x'
F1095
sg19
I00
s(dp68
g17
S'curve'
p69
sS'x'
F1095
sg19
I01
sS'y'
F774
s(dp70
S'y'
F203
sS'x'
F1095
sg19
I00
s(dp71
S'y'
F-24
sS'x'
F855
sg19
I00
stp72
stp73
sS'components'
p74
(tsS'anchors'
p75
(tsss."
LayerCount: 2
Fore
SplineSet
394 947 m 0
 394 820 459 728 601 728 c 0
 751 728 874 823 898 1016 c 0
 899 1028 900 1040 900 1051 c 0
 900 1170 825 1266 686 1266 c 0
 518 1266 394 1137 394 947 c 0
464 -26 m 0
 355 -26 230 9 101 77 c 1
 218 283 l 1
 293 229 384 196 472 196 c 0
 645 196 817 317 855 629 c 2
 858 655 l 1
 777 550 655 517 550 517 c 0
 291 517 136 676 136 917 c 0
 136 941 138 966 141 991 c 0
 176 1271 396 1483 702 1483 c 0
 982 1483 1138 1303 1138 951 c 0
 1138 895 1134 835 1126 771 c 0
 1069 305 824 -26 464 -26 c 0
EndSplineSet
EndChar

StartChar: notequal
Encoding: 8800 8800 345
Width: 1387
VWidth: 0
Flags: HW
PickledData: "(dp1
S'org.robofab.postScriptHintData'
p2
(dp3
sS'com.typemytype.robofont.layerData'
p4
(dp5
S'b'
(dp6
S'name'
p7
S'notequal'
p8
sS'lib'
p9
(dp10
sS'unicodes'
p11
(tsS'width'
p12
F1362.5
sS'contours'
p13
(tsS'components'
p14
(tsS'anchors'
p15
(tsss."
LayerCount: 2
Fore
SplineSet
437 35 m 1
 247 66 l 1
 386 300 l 1
 121 300 l 1
 144 488 l 1
 506 488 l 1
 624 673 l 1
 166 673 l 1
 189 862 l 1
 738 862 l 1
 899 1122 l 1
 1095 1092 l 1
 952 862 l 1
 1258 862 l 1
 1235 673 l 1
 839 673 l 1
 717 488 l 1
 1213 488 l 1
 1190 300 l 1
 601 300 l 1
 437 35 l 1
EndSplineSet
EndChar

StartChar: numbersign
Encoding: 35 35 347
Width: 1465
VWidth: 0
Flags: HW
PickledData: "(dp1
S'org.robofab.postScriptHintData'
p2
(dp3
sS'com.typemytype.robofont.layerData'
p4
(dp5
s."
LayerCount: 2
Fore
SplineSet
585 608 m 1
 815 608 l 1
 900 870 l 1
 670 870 l 1
 585 608 l 1
146 -10 m 1
 291 449 l 1
 54 449 l 1
 83 608 l 1
 342 608 l 1
 427 870 l 1
 160 870 l 1
 189 1028 l 1
 479 1028 l 1
 616 1462 l 1
 859 1462 l 1
 722 1028 l 1
 952 1028 l 1
 1090 1462 l 1
 1332 1462 l 1
 1196 1028 l 1
 1417 1028 l 1
 1390 870 l 1
 1143 870 l 1
 1058 608 l 1
 1310 608 l 1
 1284 449 l 1
 1008 449 l 1
 862 -10 l 1
 619 -10 l 1
 765 449 l 1
 534 449 l 1
 389 -10 l 1
 146 -10 l 1
EndSplineSet
EndChar

StartChar: o
Encoding: 111 111 348
Width: 1286
VWidth: 0
Flags: HW
PickledData: "(dp1
S'org.robofab.postScriptHintData'
p2
(dp3
sS'com.typemytype.robofont.layerData'
p4
(dp5
S'b'
(dp6
S'name'
p7
S'o'
sS'lib'
p8
(dp9
sS'unicodes'
p10
(tsS'width'
p11
F1259.2
sS'contours'
p12
(tsS'components'
p13
(tsS'anchors'
p14
(tsss."
LayerCount: 2
Fore
SplineSet
582 -23 m 0
 251 -23 103 180 103 429 c 0
 103 457 104 485 108 513 c 0
 143 805 353 1052 713 1052 c 0
 1043 1052 1184 857 1184 604 c 0
 1184 574 1182 543 1178 511 c 0
 1143 232 941 -23 582 -23 c 0
925 586 m 0
 925 735 854 851 686 851 c 0
 476 851 362 668 362 448 c 0
 362 300 428 177 601 177 c 0
 821 177 925 371 925 586 c 0
EndSplineSet
EndChar

StartChar: oe
Encoding: 339 339 355
Width: 2003
VWidth: 0
Flags: HW
PickledData: "(dp1
S'org.robofab.postScriptHintData'
p2
(dp3
sS'com.typemytype.robofont.layerData'
p4
(dp5
S'b'
(dp6
S'name'
p7
S'oe'
p8
sS'lib'
p9
(dp10
sS'unicodes'
p11
(tsS'width'
p12
F1979.8
sS'contours'
p13
(tsS'components'
p14
((dp15
S'transformation'
p16
(I1
I0
I0
I1
I-6
I0
tp17
sS'baseGlyph'
p18
S'o'
s(dp19
g16
(I1
I0
I0
I1
I811
I0
tp20
sg18
S'e'
stp21
sS'anchors'
p22
(tsss."
LayerCount: 2
Fore
SplineSet
1637 688 m 0
 1637 799 1538 857 1431 857 c 0
 1307 857 1199 791 1164 641 c 1
 1633 641 l 1
 1634 657 1637 673 1637 688 c 0
897 593 m 0
 897 744 833 851 676 851 c 0
 481 851 355 671 355 444 c 0
 355 293 430 177 600 177 c 0
 797 177 897 375 897 593 c 0
574 -22 m 0
 268 -22 95 163 95 431 c 0
 95 457 97 484 100 511 c 0
 139 817 356 1052 698 1052 c 0
 886 1052 1005 973 1064 873 c 1
 1157 988 1270 1055 1460 1055 c 0
 1720 1055 1862 882 1862 610 c 0
 1862 575 1860 537 1855 499 c 2
 1848 433 l 1
 1137 433 l 2
 1136 434 1136 410 1136 410 c 2
 1136 405 1136 400 1136 395 c 0
 1136 245 1237 177 1416 177 c 0
 1588 177 1748 288 1748 288 c 1
 1792 107 l 1
 1792 107 1617 -22 1363 -22 c 0
 1204 -22 1040 51 977 159 c 1
 899 54 728 -22 574 -22 c 0
EndSplineSet
EndChar

StartChar: ogonek
Encoding: 731 731 356
Width: 508
VWidth: 0
Flags: HW
PickledData: "(dp1
S'org.robofab.postScriptHintData'
p2
(dp3
s."
LayerCount: 2
Fore
SplineSet
253 -164 m 0
 253 -198 283 -204 310 -204 c 0
 375 -204 465 -174 489 -167 c 1
 471 -315 l 1
 378 -342 287 -356 212 -356 c 0
 94 -356 14 -322 14 -243 c 0
 14 -85 212 -15 289 21 c 1
 424 23 l 1
 322 -31 253 -109 253 -164 c 0
EndSplineSet
EndChar

StartChar: one
Encoding: 49 49 361
Width: 1272
VWidth: 0
Flags: HW
PickledData: "(dp1
S'org.robofab.postScriptHintData'
p2
(dp3
sS'com.typemytype.robofont.layerData'
p4
(dp5
S'b'
(dp6
S'name'
p7
S'one'
p8
sS'lib'
p9
(dp10
sS'unicodes'
p11
(tsS'width'
p12
F1234.0999999999999
sS'contours'
p13
(tsS'components'
p14
(tsS'anchors'
p15
(tsss."
LayerCount: 2
Fore
SplineSet
204 0 m 1
 228 202 l 1
 485 202 l 1
 608 1198 l 1
 536 1166 421 1120 303 1084 c 1
 331 1314 l 1
 442 1348 573 1407 668 1456 c 1
 893 1456 l 1
 739 198 l 1
 1001 198 l 1
 977 0 l 1
 204 0 l 1
EndSplineSet
EndChar

StartChar: onehalf
Encoding: 189 189 362
Width: 2554
VWidth: 0
Flags: HW
PickledData: "(dp1
S'org.robofab.postScriptHintData'
p2
(dp3
sS'com.typemytype.robofont.layerData'
p4
(dp5
s."
LayerCount: 2
Fore
SplineSet
181 619 m 1
 201 786 l 1
 412 786 l 1
 471 1257 l 1
 240 1204 l 1
 261 1379 l 1
 261 1379 544 1461 536 1456 c 1
 692 1456 l 1
 611 784 l 1
 794 784 l 1
 774 619 l 1
 181 619 l 1
549 0 m 1
 1612 1456 l 1
 1825 1456 l 1
 763 0 l 1
 549 0 l 1
1516 0 m 1
 1536 169 l 1
 1837 389 l 2
 1966 484 1986 525 1986 584 c 0
 1986 652 1953 675 1891 675 c 0
 1823 675 1724 648 1638 608 c 1
 1595 768 l 1
 1706 822 1828 851 1928 851 c 0
 2079 851 2192 782 2192 618 c 0
 2192 466 2075 365 1937 266 c 2
 1835 193 l 1
 2128 193 l 1
 2106 0 l 1
 1516 0 l 1
EndSplineSet
EndChar

StartChar: onequarter
Encoding: 188 188 363
Width: 2113
VWidth: 0
Flags: HW
PickledData: "(dp1
S'org.robofab.postScriptHintData'
p2
(dp3
sS'com.typemytype.robofont.layerData'
p4
(dp5
s."
LayerCount: 2
Fore
SplineSet
1502 329 m 1
 1679 329 l 1
 1711 583 l 1
 1502 329 l 1
540 0 m 1
 1603 1456 l 1
 1816 1456 l 1
 754 0 l 1
 540 0 l 1
1642 1 m 1
 1665 195 l 1
 1296 195 l 1
 1311 308 l 1
 1741 814 l 1
 1921 814 l 1
 1861 329 l 1
 1977 329 l 1
 1961 195 l 1
 1845 195 l 1
 1822 1 l 1
 1642 1 l 1
212 619 m 1
 232 786 l 1
 443 786 l 1
 501 1257 l 1
 270 1204 l 1
 292 1379 l 1
 292 1379 575 1461 567 1456 c 1
 723 1456 l 1
 641 784 l 1
 825 784 l 1
 805 619 l 1
 212 619 l 1
EndSplineSet
EndChar

StartChar: onesuperior
Encoding: 185 185 364
Width: 851
VWidth: 0
Flags: HW
PickledData: "(dp1
S'org.robofab.postScriptHintData'
p2
(dp3
sS'com.typemytype.robofont.layerData'
p4
(dp5
s."
LayerCount: 2
Fore
SplineSet
96 625 m 1
 116 790 l 1
 335 790 l 1
 393 1270 l 1
 404 1276 171 1220 158 1218 c 1
 179 1389 l 1
 198 1394 474 1475 461 1468 c 1
 621 1464 l 1
 539 788 l 1
 728 788 l 1
 708 625 l 1
 96 625 l 1
EndSplineSet
EndChar

StartChar: ordfeminine
Encoding: 170 170 366
Width: 868
VWidth: 0
Flags: HW
PickledData: "(dp1
S'org.robofab.postScriptHintData'
p2
(dp3
sS'com.typemytype.robofont.layerData'
p4
(dp5
S'b'
(dp6
S'name'
p7
S'ordfeminine'
p8
sS'lib'
p9
(dp10
sS'unicodes'
p11
(tsS'width'
p12
F797.10000000000002
sS'contours'
p13
(tsS'components'
p14
(tsS'anchors'
p15
(tsss."
LayerCount: 2
Fore
SplineSet
330 850 m 0
 403 850 524 897 540 1029 c 2
 542 1043 l 1
 330 1043 267 1037 254 936 c 0
 254 932 253 929 253 926 c 0
 253 878 292 850 330 850 c 0
301 721 m 0
 187 721 85 783 85 907 c 0
 85 916 86 926 87 936 c 0
 104 1073 201 1152 380 1152 c 2
 558 1152 l 1
 563 1192 l 2
 564 1199 564 1206 564 1213 c 0
 564 1289 513 1315 447 1315 c 0
 344 1315 216 1262 216 1262 c 1
 176 1407 l 1
 176 1407 305 1476 490 1476 c 0
 638 1476 762 1418 762 1239 c 0
 762 1222 761 1203 759 1184 c 0
 735 988 737 993 728 908 c 0
 720 832 718 797 718 777 c 0
 718 767 718 761 719 754 c 1
 538 754 l 1
 533 852 l 1
 510 798 431 721 301 721 c 0
EndSplineSet
EndChar

StartChar: ordmasculine
Encoding: 186 186 367
Width: 913
VWidth: 0
Flags: HW
PickledData: "(dp1
S'org.robofab.postScriptHintData'
p2
(dp3
sS'com.typemytype.robofont.layerData'
p4
(dp5
S'b'
(dp6
S'name'
p7
S'ordmasculine'
p8
sS'lib'
p9
(dp10
sS'unicodes'
p11
(tsS'width'
p12
F887.85000000000002
sS'contours'
p13
(tsS'components'
p14
(tsS'anchors'
p15
(tsss."
LayerCount: 2
Fore
SplineSet
415 713 m 0
 183 713 70 843 70 1024 c 0
 70 1042 71 1061 73 1080 c 0
 98 1283 260 1443 502 1443 c 0
 725 1443 843 1307 843 1129 c 0
 843 1112 842 1094 840 1076 c 0
 816 878 659 713 415 713 c 0
649 1111 m 0
 649 1219 585 1283 484 1283 c 0
 363 1283 264 1187 264 1040 c 0
 264 935 325 873 431 873 c 0
 553 873 649 967 649 1111 c 0
EndSplineSet
EndChar

StartChar: oslash
Encoding: 248 248 368
Width: 1288
VWidth: 0
Flags: HW
PickledData: "(dp1
S'org.robofab.postScriptHintData'
p2
(dp3
sS'com.typemytype.robofont.layerData'
p4
(dp5
S'b'
(dp6
S'name'
p7
S'oslash'
p8
sS'lib'
p9
(dp10
sS'unicodes'
p11
(tsS'width'
p12
F1255
sS'contours'
p13
(tsS'components'
p14
(tsS'anchors'
p15
(tsss."
LayerCount: 2
Fore
SplineSet
582 -23 m 0
 516 -23 458 -15 406 -0 c 1
 289 -199 l 1
 196 -152 l 1
 309 40 l 1
 168 119 103 264 103 429 c 0
 103 457 104 485 108 513 c 0
 143 805 353 1052 713 1052 c 0
 781 1052 841 1044 893 1029 c 1
 998 1207 l 1
 1091 1161 l 1
 989 988 l 1
 1123 911 1184 770 1184 604 c 0
 1184 574 1182 543 1178 511 c 0
 1143 232 941 -23 582 -23 c 0
925 586 m 0
 925 663 906 730 865 778 c 1
 517 188 l 1
 542 181 570 177 601 177 c 0
 821 177 925 371 925 586 c 0
362 448 m 0
 362 366 382 292 429 242 c 1
 779 837 l 1
 752 846 721 851 686 851 c 0
 476 851 362 668 362 448 c 0
EndSplineSet
EndChar

StartChar: p
Encoding: 112 112 371
Width: 1273
VWidth: 0
Flags: HW
PickledData: "(dp1
S'org.robofab.postScriptHintData'
p2
(dp3
sS'com.typemytype.robofont.layerData'
p4
(dp5
S'b'
(dp6
S'name'
p7
S'p'
sS'lib'
p8
(dp9
sS'unicodes'
p10
(tsS'width'
p11
F1260.25
sS'contours'
p12
(tsS'components'
p13
(tsS'anchors'
p14
(tsss."
LayerCount: 2
Fore
SplineSet
937 587 m 0
 937 736 872 851 714 851 c 0
 515 851 409 665 409 447 c 0
 409 299 469 177 632 177 c 0
 840 177 937 373 937 587 c 0
71 -395 m 1
 203 681 l 2
 216 789 221 918 227 1026 c 1
 490 1026 l 1
 472 879 l 1
 492 940 620 1052 809 1052 c 0
 1061 1052 1197 849 1197 607 c 0
 1197 580 1195 553 1192 525 c 0
 1157 248 959 -23 664 -23 c 0
 483 -23 386 89 382 141 c 1
 316 -395 l 1
 71 -395 l 1
EndSplineSet
EndChar

StartChar: paragraph
Encoding: 182 182 372
Width: 1226
VWidth: 0
Flags: HW
PickledData: "(dp1
S'org.robofab.postScriptHintData'
p2
(dp3
sS'com.typemytype.robofont.layerData'
p4
(dp5
S'b'
(dp6
S'name'
p7
S'paragraph'
p8
sS'lib'
p9
(dp10
sS'unicodes'
p11
(tsS'width'
p12
F1211.95
sS'contours'
p13
(tsS'components'
p14
(tsS'anchors'
p15
(tsss."
LayerCount: 2
Fore
SplineSet
670 1455 m 2
 1164 1455 l 1
 1141 1263 l 1
 1068 1263 l 1
 891 -178 l 1
 685 -178 l 1
 862 1263 l 1
 694 1263 l 1
 517 -178 l 1
 312 -178 l 1
 430 789 l 1
 238 806 146 905 146 1070 c 0
 146 1379 376 1455 670 1455 c 2
EndSplineSet
EndChar

StartChar: parenleft
Encoding: 40 40 373
Width: 689
VWidth: 0
Flags: HW
PickledData: "(dp1
S'org.robofab.postScriptHintData'
p2
(dp3
sS'com.typemytype.robofont.layerData'
p4
(dp5
S'b'
(dp6
S'name'
p7
S'parenleft'
p8
sS'lib'
p9
(dp10
sS'unicodes'
p11
(tsS'width'
p12
F639.35000000000002
sS'contours'
p13
(tsS'components'
p14
(tsS'anchors'
p15
(tsss."
LayerCount: 2
Fore
SplineSet
302 -171 m 1
 191 37 109 288 109 535 c 0
 109 579 112 622 117 665 c 0
 155 968 302 1253 501 1516 c 1
 743 1516 l 1
 536 1245 399 940 365 663 c 0
 360 623 358 583 358 541 c 0
 358 310 427 49 535 -171 c 1
 302 -171 l 1
EndSplineSet
EndChar

StartChar: parenright
Encoding: 41 41 374
Width: 689
VWidth: 0
Flags: HW
PickledData: "(dp1
S'org.robofab.postScriptHintData'
p2
(dp3
sS'com.typemytype.robofont.layerData'
p4
(dp5
S'b'
(dp6
S'name'
p7
S'parenright'
p8
sS'lib'
p9
(dp10
sS'unicodes'
p11
(tsS'width'
p12
F639.35000000000002
sS'contours'
p13
(tsS'components'
p14
(tsS'anchors'
p15
(tsss."
LayerCount: 2
Fore
SplineSet
-53 -191 m 1
 155 80 292 385 325 663 c 0
 330 703 332 744 332 787 c 0
 332 1018 262 1277 155 1496 c 1
 389 1496 l 1
 499 1289 581 1038 581 791 c 0
 581 747 578 703 573 660 c 0
 535 357 388 72 189 -191 c 1
 -53 -191 l 1
EndSplineSet
EndChar

StartChar: partialdiff
Encoding: 8706 8706 375
Width: 1162
VWidth: 0
Flags: HW
PickledData: "(dp1
S'org.robofab.postScriptHintData'
p2
(dp3
sS'com.typemytype.robofont.layerData'
p4
(dp5
S'b'
(dp6
S'name'
p7
S'partialdiff'
p8
sS'lib'
p9
(dp10
sS'unicodes'
p11
(tsS'width'
p12
F1163.95
sS'contours'
p13
(tsS'components'
p14
(tsS'anchors'
p15
(tsss."
LayerCount: 2
Fore
SplineSet
258 369 m 0
 258 252 313 179 409 179 c 0
 554 179 683 279 781 644 c 1
 753 725 683 806 593 806 c 0
 423 806 258 602 258 369 c 0
826 886 m 1
 828 920 837 971 837 1008 c 0
 837 1186 752 1297 614 1297 c 0
 470 1297 352 1235 302 1211 c 1
 309 1390 l 1
 406 1455 536 1495 654 1495 c 0
 925 1495 1084 1340 1084 995 c 0
 1084 943 1081 885 1073 824 c 0
 1021 405 782 -24 384 -24 c 0
 129 -24 4 134 4 351 c 0
 4 376 6 402 9 428 c 0
 48 749 317 1002 604 1002 c 0
 723 1002 811 947 826 886 c 1
EndSplineSet
EndChar

StartChar: percent
Encoding: 37 37 377
Width: 1899
VWidth: 0
Flags: HW
PickledData: "(dp1
S'org.robofab.postScriptHintData'
p2
(dp3
sS'com.typemytype.robofont.layerData'
p4
(dp5
S'b'
(dp6
S'name'
p7
S'percent'
p8
sS'lib'
p9
(dp10
sS'unicodes'
p11
(tsS'width'
p12
F1769.3
sS'contours'
p13
(tsS'components'
p14
(tsS'anchors'
p15
(tsss."
LayerCount: 2
Fore
SplineSet
1434 740 m 0
 1640 740 1760 596 1760 412 c 0
 1760 395 1759 377 1757 359 c 0
 1730 141 1567 -20 1342 -20 c 0
 1138 -20 1017 114 1017 301 c 0
 1017 548 1194 740 1434 740 c 0
1362 136 m 0
 1465 136 1525 199 1546 359 c 0
 1549 382 1550 404 1550 424 c 0
 1550 529 1509 583 1416 583 c 0
 1306 583 1250 508 1232 360 c 0
 1229 335 1227 313 1227 293 c 0
 1227 183 1275 136 1362 136 c 0
297 0 m 1
 1406 1456 l 1
 1609 1456 l 1
 500 0 l 1
 297 0 l 1
557 1474 m 0
 760 1474 881 1353 881 1159 c 0
 881 879 704 715 464 715 c 0
 262 715 138 828 138 1027 c 0
 138 1302 314 1474 557 1474 c 0
482 871 m 0
 585 871 647 934 667 1093 c 0
 670 1117 671 1138 671 1158 c 0
 671 1263 630 1318 536 1318 c 0
 426 1318 370 1242 352 1094 c 0
 349 1071 348 1049 348 1030 c 0
 348 918 394 871 482 871 c 0
EndSplineSet
EndChar

StartChar: period
Encoding: 46 46 378
Width: 539
VWidth: 0
Flags: HW
PickledData: "(dp1
S'org.robofab.postScriptHintData'
p2
(dp3
sS'com.typemytype.robofont.layerData'
p4
(dp5
s."
LayerCount: 2
Fore
SplineSet
95 0 m 1
 128 271 l 1
 417 271 l 1
 384 0 l 1
 95 0 l 1
EndSplineSet
EndChar

StartChar: periodcentered
Encoding: 183 183 379
Width: 596
VWidth: 0
Flags: HW
PickledData: "(dp1
S'org.robofab.postScriptHintData'
p2
(dp3
sS'com.typemytype.robofont.layerData'
p4
(dp5
S'b'
(dp6
S'name'
p7
S'middot'
p8
sS'lib'
p9
(dp10
sS'unicodes'
p11
(tsS'width'
p12
I509
sS'contours'
p13
(tsS'components'
p14
(tsS'anchors'
p15
(tsss."
LayerCount: 2
Fore
SplineSet
170 561 m 1
 205 843 l 1
 508 843 l 1
 474 561 l 1
 170 561 l 1
EndSplineSet
EndChar

StartChar: perthousand
Encoding: 8240 8240 380
Width: 2755
VWidth: 0
Flags: HW
PickledData: "(dp1
S'org.robofab.postScriptHintData'
p2
(dp3
sS'com.typemytype.robofont.layerData'
p4
(dp5
S'b'
(dp6
S'name'
p7
S'perthousand'
p8
sS'lib'
p9
(dp10
sS'unicodes'
p11
(tsS'width'
p12
F2581.1999999999998
sS'contours'
p13
(tsS'components'
p14
(tsS'anchors'
p15
(tsss."
LayerCount: 2
Fore
SplineSet
2291 740 m 0
 2497 740 2616 596 2616 412 c 0
 2616 395 2615 377 2613 359 c 0
 2585 141 2423 -20 2198 -20 c 0
 1994 -20 1873 114 1873 301 c 0
 1873 548 2051 740 2291 740 c 0
2218 136 m 0
 2321 136 2381 199 2402 359 c 0
 2405 382 2406 404 2406 424 c 0
 2406 529 2365 583 2272 583 c 0
 2161 583 2106 508 2088 360 c 0
 2085 335 2083 313 2083 293 c 0
 2083 183 2131 136 2218 136 c 0
EndSplineSet
Refer: 377 37 N 1 0 0 1 0 0 2
EndChar

StartChar: pi
Encoding: 960 960 381
Width: 1288
VWidth: 0
Flags: HW
PickledData: "(dp1
S'org.robofab.postScriptHintData'
p2
(dp3
sS'com.typemytype.robofont.layerData'
p4
(dp5
S'b'
(dp6
S'name'
p7
S'pi'
p8
sS'lib'
p9
(dp10
sS'unicodes'
p11
(tsS'width'
p12
F1288
sS'contours'
p13
(tsS'components'
p14
(tsS'anchors'
p15
(tsss."
LayerCount: 2
Fore
SplineSet
98 0 m 1
 220 183 284 563 326 846 c 1
 205 843 122 812 91 785 c 1
 96 963 l 1
 132 992 231 1026 363 1026 c 2
 1278 1026 l 1
 1256 846 l 1
 1051 846 l 1
 987 325 l 2
 985 308 983 290 983 271 c 0
 983 223 997 178 1068 178 c 0
 1089 178 1125 182 1165 191 c 1
 1140 -6 l 1
 1092 -15 1024 -20 985 -20 c 0
 844 -20 746 45 746 209 c 0
 746 227 747 247 750 268 c 2
 822 846 l 1
 550 846 l 1
 550 846 460 178 346 0 c 1
 98 0 l 1
EndSplineSet
EndChar

StartChar: plus
Encoding: 43 43 382
Width: 1268
VWidth: 0
Flags: HW
PickledData: "(dp1
S'org.robofab.postScriptHintData'
p2
(dp3
sS'com.typemytype.robofont.layerData'
p4
(dp5
S'b'
(dp6
S'name'
p7
S'plus'
p8
sS'lib'
p9
(dp10
sS'unicodes'
p11
(tsS'width'
p12
F1206.9000000000001
sS'contours'
p13
(tsS'components'
p14
(tsS'anchors'
p15
(tsss."
LayerCount: 2
Fore
SplineSet
455 77 m 1
 504 470 l 1
 124 470 l 1
 150 676 l 1
 531 676 l 1
 580 1071 l 1
 812 1071 l 1
 763 676 l 1
 1143 676 l 1
 1117 470 l 1
 736 470 l 1
 688 77 l 1
 455 77 l 1
EndSplineSet
EndChar

StartChar: plusminus
Encoding: 177 177 383
Width: 1272
VWidth: 0
Flags: HW
PickledData: "(dp1
S'org.robofab.postScriptHintData'
p2
(dp3
sS'com.typemytype.robofont.layerData'
p4
(dp5
S'b'
(dp6
S'name'
p7
S'plusminus'
p8
sS'lib'
p9
(dp10
sS'unicodes'
p11
(tsS'width'
p12
F1234.75
sS'contours'
p13
(tsS'components'
p14
(tsS'anchors'
p15
(tsss."
LayerCount: 2
Fore
SplineSet
123 0 m 1
 146 184 l 1
 1036 184 l 1
 1013 0 l 1
 123 0 l 1
484 291 m 1
 519 592 l 1
 195 592 l 1
 220 792 l 1
 539 792 l 1
 576 1099 l 1
 813 1099 l 1
 776 792 l 1
 1108 792 l 1
 1083 592 l 1
 760 592 l 1
 724 291 l 1
 484 291 l 1
EndSplineSet
EndChar

StartChar: product
Encoding: 8719 8719 384
Width: 1568
VWidth: 0
Flags: HW
PickledData: "(dp1
S'org.robofab.postScriptHintData'
p2
(dp3
sS'com.typemytype.robofont.guides'
p4
(tsS'com.typemytype.robofont.layerData'
p5
(dp6
S'b'
(dp7
S'name'
p8
S'product'
p9
sS'lib'
p10
(dp11
sS'unicodes'
p12
(tsS'width'
p13
F1568
sS'contours'
p14
(tsS'components'
p15
(tsS'anchors'
p16
(tsss."
LayerCount: 2
Fore
SplineSet
99 -100 m 1
 267 1255 l 1
 109 1255 l 1
 134 1456 l 1
 1548 1456 l 1
 1526 1255 l 1
 1401 1255 l 1
 1234 -100 l 1
 949 -100 l 1
 1116 1255 l 1
 544 1255 l 1
 376 -100 l 1
 99 -100 l 1
EndSplineSet
EndChar

StartChar: q
Encoding: 113 113 385
Width: 1250
VWidth: 0
Flags: HW
PickledData: "(dp1
S'org.robofab.postScriptHintData'
p2
(dp3
sS'com.typemytype.robofont.layerData'
p4
(dp5
S'b'
(dp6
S'name'
p7
S'q'
sS'lib'
p8
(dp9
sS'unicodes'
p10
(tsS'width'
p11
F1254.3
sS'contours'
p12
(tsS'components'
p13
(tsS'anchors'
p14
(tsss."
LayerCount: 2
Fore
SplineSet
909 585 m 0
 909 736 843 851 685 851 c 0
 486 851 381 663 381 444 c 0
 381 298 440 177 604 177 c 0
 812 177 909 374 909 585 c 0
779 -395 m 1
 838 82 l 1
 746 15 638 -23 544 -23 c 0
 250 -23 123 194 123 438 c 0
 123 468 125 498 129 528 c 0
 163 803 362 1052 678 1052 c 0
 768 1052 870 1011 943 916 c 1
 956 1026 l 1
 1209 1026 l 1
 1188 918 1175 830 1162 730 c 2
 1024 -395 l 1
 779 -395 l 1
EndSplineSet
EndChar

StartChar: question
Encoding: 63 63 386
Width: 1018
VWidth: 0
Flags: HW
PickledData: "(dp1
S'org.robofab.postScriptHintData'
p2
(dp3
sS'com.typemytype.robofont.layerData'
p4
(dp5
S'b'
(dp6
S'name'
p7
S'question'
p8
sS'lib'
p9
(dp10
sS'unicodes'
p11
(tsS'width'
p12
F1055.9000000000001
sS'contours'
p13
(tsS'components'
p14
(tsS'anchors'
p15
(tsss."
LayerCount: 2
Fore
SplineSet
168 0 m 1
 201 273 l 1
 514 273 l 1
 481 0 l 1
 168 0 l 1
261 411 m 1
 278 548 l 2
 309 810 672 920 696 1117 c 0
 697 1125 697 1132 697 1139 c 0
 697 1233 618 1268 513 1268 c 0
 395 1268 255 1224 202 1202 c 1
 228 1413 l 1
 244 1421 370 1485 562 1485 c 0
 777 1485 958 1383 958 1173 c 0
 958 820 503 769 467 476 c 1
 460 411 l 1
 261 411 l 1
EndSplineSet
EndChar

StartChar: quotedbl
Encoding: 34 34 388
Width: 703
VWidth: 0
Flags: HW
PickledData: "(dp1
S'org.robofab.postScriptHintData'
p2
(dp3
sS'com.typemytype.robofont.layerData'
p4
(dp5
S'b'
(dp6
S'name'
p7
S'quotedbl'
p8
sS'lib'
p9
(dp10
sS'unicodes'
p11
(tsS'width'
p12
F785.64999999999998
sS'contours'
p13
(tsS'components'
p14
(tsS'anchors'
p15
(tsss."
LayerCount: 2
Fore
SplineSet
426 957 m 1
 436 1456 l 1
 675 1456 l 1
 561 957 l 1
 426 957 l 1
84 957 m 1
 94 1456 l 1
 332 1456 l 1
 219 957 l 1
 84 957 l 1
EndSplineSet
EndChar

StartChar: quotedblbase
Encoding: 8222 8222 389
Width: 1024
VWidth: 0
Flags: HW
PickledData: "(dp1
S'org.robofab.postScriptHintData'
p2
(dp3
s."
LayerCount: 2
Fore
SplineSet
457 -220 m 1
 628 262 l 1
 902 262 l 1
 673 -220 l 1
 457 -220 l 1
57 -220 m 1
 227 262 l 1
 500 262 l 1
 279 -220 l 1
 57 -220 l 1
EndSplineSet
EndChar

StartChar: quotedblleft
Encoding: 8220 8220 390
Width: 1024
VWidth: 0
Flags: HW
PickledData: "(dp1
S'org.robofab.postScriptHintData'
p2
(dp3
sS'com.typemytype.robofont.layerData'
p4
(dp5
S'b'
(dp6
S'name'
p7
S'quotedblleft'
p8
sS'lib'
p9
(dp10
sS'unicodes'
p11
(tsS'width'
p12
F1024
sS'contours'
p13
(tsS'components'
p14
(tsS'anchors'
p15
(tsss."
LayerCount: 2
Fore
SplineSet
556 865 m 1
 807 1456 l 1
 1017 1456 l 1
 832 865 l 1
 556 865 l 1
94 865 m 1
 357 1456 l 1
 566 1456 l 1
 380 865 l 1
 94 865 l 1
EndSplineSet
EndChar

StartChar: quotedblright
Encoding: 8221 8221 391
Width: 1024
VWidth: 0
Flags: HW
PickledData: "(dp1
S'org.robofab.postScriptHintData'
p2
(dp3
sS'com.typemytype.robofont.layerData'
p4
(dp5
S'b'
(dp6
S'name'
p7
S'quotedblright'
p8
sS'lib'
p9
(dp10
sS'unicodes'
p11
(tsS'width'
p12
F1024
sS'contours'
p13
(tsS'components'
p14
(tsS'anchors'
p15
(tsss."
LayerCount: 2
Fore
SplineSet
556 865 m 1
 742 1456 l 1
 1014 1456 l 1
 771 865 l 1
 556 865 l 1
140 865 m 1
 322 1456 l 1
 598 1456 l 1
 357 865 l 1
 140 865 l 1
EndSplineSet
EndChar

StartChar: quoteleft
Encoding: 8216 8216 392
Width: 576
VWidth: 0
Flags: HW
PickledData: "(dp1
S'org.robofab.postScriptHintData'
p2
(dp3
sS'com.typemytype.robofont.layerData'
p4
(dp5
S'b'
(dp6
S'name'
p7
S'quoteleft'
p8
sS'lib'
p9
(dp10
sS'unicodes'
p11
(tsS'width'
p12
F518.5
sS'contours'
p13
(tsS'components'
p14
(tsS'anchors'
p15
(tsss."
LayerCount: 2
Fore
SplineSet
272 865 m 1
 178 1456 l 1
 462 1456 l 1
 428 865 l 1
 272 865 l 1
EndSplineSet
EndChar

StartChar: quoteright
Encoding: 8217 8217 393
Width: 632
VWidth: 0
Flags: HW
PickledData: "(dp1
S'org.robofab.postScriptHintData'
p2
(dp3
sS'com.typemytype.robofont.layerData'
p4
(dp5
S'b'
(dp6
S'name'
p7
S'quoteright'
p8
sS'lib'
p9
(dp10
g4
(dp11
S'b'
(dp12
g7
S'quoteleft'
p13
sg9
(dp14
sS'unicodes'
p15
(tsS'width'
p16
I494
sS'contours'
p17
(tsS'components'
p18
(tsS'anchors'
p19
(tssssg15
(tsg16
F537.25
sg17
((dp20
S'points'
p21
((dp22
S'segmentType'
p23
S'line'
p24
sS'x'
F416
sS'smooth'
p25
I00
sS'y'
F888
s(dp26
g23
S'line'
p27
sS'x'
F300
sg25
I00
sS'y'
F888
s(dp28
g23
S'line'
p29
sS'x'
F150
sg25
I00
sS'y'
F1456
s(dp30
g23
S'line'
p31
sS'x'
F360
sg25
I00
sS'y'
F1456
stp32
stp33
sg18
(tsg19
(tsss."
LayerCount: 2
Fore
SplineSet
76 866 m 1
 246 1456 l 1
 526 1456 l 1
 258 866 l 1
 76 866 l 1
EndSplineSet
EndChar

StartChar: quotesinglbase
Encoding: 8218 8218 394
Width: 696
VWidth: 0
Flags: HW
PickledData: "(dp1
S'org.robofab.postScriptHintData'
p2
(dp3
sS'com.typemytype.robofont.layerData'
p4
(dp5
S'b'
(dp6
S'name'
p7
S'quotesinglbase'
p8
sS'lib'
p9
(dp10
sS'unicodes'
p11
(tsS'width'
p12
F595.70000000000005
sS'contours'
p13
(tsS'components'
p14
(tsS'anchors'
p15
(tsss."
LayerCount: 2
Fore
SplineSet
123 -325 m 1
 310 262 l 1
 584 262 l 1
 344 -325 l 1
 123 -325 l 1
EndSplineSet
EndChar

StartChar: quotesingle
Encoding: 39 39 395
Width: 484
VWidth: 0
Flags: HW
PickledData: "(dp1
S'org.robofab.postScriptHintData'
p2
(dp3
sS'com.typemytype.robofont.layerData'
p4
(dp5
S'b'
(dp6
S'name'
p7
S'quotesingle'
p8
sS'lib'
p9
(dp10
sS'unicodes'
p11
(tsS'width'
p12
F507.85000000000002
sS'contours'
p13
(tsS'components'
p14
(tsS'anchors'
p15
(tsss."
LayerCount: 2
Fore
SplineSet
137 910 m 1
 165 1456 l 1
 422 1456 l 1
 318 910 l 1
 137 910 l 1
EndSplineSet
EndChar

StartChar: r
Encoding: 114 114 396
Width: 780
VWidth: 0
Flags: HW
PickledData: "(dp1
S'org.robofab.postScriptHintData'
p2
(dp3
sS'com.typemytype.robofont.layerData'
p4
(dp5
S'b'
(dp6
S'name'
p7
S'r'
sS'lib'
p8
(dp9
sS'unicodes'
p10
(tsS'width'
p11
F818.89999999999998
sS'contours'
p12
(tsS'components'
p13
(tsS'anchors'
p14
(tsss."
LayerCount: 2
Fore
SplineSet
97 0 m 1
 192 766 l 2
 202 848 204 928 204 977 c 0
 204 1008 203 1026 203 1026 c 1
 467 1026 l 1
 451 891 l 1
 539 989 621 1052 729 1052 c 0
 758 1052 792 1047 829 1037 c 1
 801 820 l 1
 758 835 717 842 681 842 c 0
 550 842 438 758 417 581 c 2
 344 0 l 1
 97 0 l 1
EndSplineSet
EndChar

StartChar: radical
Encoding: 8730 8730 398
Width: 1314
VWidth: 0
Flags: HW
PickledData: "(dp1
S'org.robofab.postScriptHintData'
p2
(dp3
sS'com.typemytype.robofont.layerData'
p4
(dp5
s."
LayerCount: 2
Fore
SplineSet
411 -142 m 1
 201 635 l 2
 198 634 37 605 37 605 c 1
 15 785 l 1
 392 843 l 1
 539 263 l 1
 1049 1554 l 1
 1277 1554 l 1
 616 -142 l 1
 411 -142 l 1
EndSplineSet
EndChar

StartChar: registered
Encoding: 174 174 402
Width: 1713
VWidth: 0
Flags: HW
PickledData: "(dp1
S'org.robofab.postScriptHintData'
p2
(dp3
sS'com.typemytype.robofont.layerData'
p4
(dp5
S'b'
(dp6
S'name'
p7
S'registered'
p8
sS'lib'
p9
(dp10
sS'unicodes'
p11
(tsS'width'
p12
F1727.05
sS'contours'
p13
(tsS'components'
p14
(tsS'anchors'
p15
(tsss."
LayerCount: 2
Fore
SplineSet
765 -22 m 0
 382 -22 100 269 100 640 c 0
 100 670 102 701 106 732 c 0
 157 1145 535 1483 949 1483 c 0
 1331 1483 1613 1194 1613 824 c 0
 1613 794 1611 763 1607 732 c 0
 1556 318 1178 -22 765 -22 c 0
776 93 m 0
 1121 93 1431 383 1473 729 c 0
 1476 756 1478 781 1478 807 c 0
 1478 1116 1250 1361 932 1361 c 0
 587 1361 279 1074 237 729 c 0
 234 702 232 676 232 650 c 0
 232 340 458 93 776 93 c 0
1041 928 m 0
 1041 995 1004 1003 877 1003 c 2
 768 1003 l 1
 742 788 l 1
 833 788 l 2
 968 788 1041 811 1041 928 c 0
466 290 m 1
 573 1171 l 1
 891 1171 l 2
 1146 1171 1258 1093 1258 947 c 0
 1258 934 1257 921 1255 907 c 0
 1243 810 1193 703 1048 665 c 1
 1190 290 l 1
 955 290 l 1
 844 630 l 1
 721 630 l 1
 680 290 l 1
 466 290 l 1
EndSplineSet
EndChar

StartChar: ring
Encoding: 730 730 403
Width: 700
VWidth: 0
Flags: HW
PickledData: "(dp1
S'org.robofab.postScriptHintData'
p2
(dp3
sS'com.typemytype.robofont.layerData'
p4
(dp5
S'b'
(dp6
S'name'
p7
S'ring'
p8
sS'lib'
p9
(dp10
sS'unicodes'
p11
(tsS'width'
p12
F633.35000000000002
sS'contours'
p13
(tsS'components'
p14
(tsS'anchors'
p15
(tsss."
LayerCount: 2
Fore
SplineSet
365 1579 m 0
 477 1579 561 1503 561 1394 c 0
 561 1252 439 1153 312 1153 c 0
 200 1153 116 1229 116 1337 c 0
 116 1480 237 1579 365 1579 c 0
447 1379 m 0
 447 1433 407 1474 352 1474 c 0
 291 1474 232 1422 232 1353 c 0
 232 1299 272 1257 326 1257 c 0
 388 1257 447 1310 447 1379 c 0
EndSplineSet
EndChar

StartChar: s
Encoding: 115 115 405
Width: 988
VWidth: 0
Flags: HW
PickledData: "(dp1
S'org.robofab.postScriptHintData'
p2
(dp3
sS'com.typemytype.robofont.layerData'
p4
(dp5
S'b'
(dp6
S'name'
p7
S's'
sS'lib'
p8
(dp9
sS'unicodes'
p10
(tsS'width'
p11
F981.89999999999998
sS'contours'
p12
((dp13
S'points'
p14
((dp15
S'segmentType'
p16
S'curve'
p17
sS'x'
F498
sS'smooth'
p18
I01
sS'y'
F-23
s(dp19
S'y'
F-23
sS'x'
F282
sg18
I00
s(dp20
S'y'
F70
sS'x'
F145
sg18
I00
s(dp21
g16
S'curve'
p22
sS'x'
F116
sg18
I00
sS'y'
F94
s(dp23
g16
S'line'
p24
sS'x'
F160
sg18
I00
sS'y'
F222
s(dp25
S'y'
F189
sS'x'
F208
sg18
I00
s(dp26
S'y'
F109
sS'x'
F348
sg18
I00
s(dp27
g16
S'curve'
p28
sS'x'
F484
sg18
I01
sS'y'
F109
s(dp29
S'y'
F109
sS'x'
F589
sg18
I00
s(dp30
S'y'
F141
sS'x'
F711
sg18
I00
s(dp31
g16
S'curve'
p32
sS'x'
F711
sg18
I01
sS'y'
F272
s(dp33
S'y'
F395
sS'x'
F711
sg18
I00
s(dp34
S'y'
F426
sS'x'
F561
sg18
I00
s(dp35
g16
S'curve'
p36
sS'x'
F412
sg18
I00
sS'y'
F474
s(dp37
S'y'
F521
sS'x'
F262
sg18
I00
s(dp38
S'y'
F585
sS'x'
F112
sg18
I00
s(dp39
g16
S'curve'
p40
sS'x'
F112
sg18
I01
sS'y'
F771
s(dp41
S'y'
F970
sS'x'
F112
sg18
I00
s(dp42
S'y'
F1051
sS'x'
F318
sg18
I00
s(dp43
g16
S'curve'
p44
sS'x'
F488
sg18
I01
sS'y'
F1051
s(dp45
S'y'
F1051
sS'x'
F715
sg18
I00
s(dp46
S'y'
F991
sS'x'
F792
sg18
I00
s(dp47
g16
S'curve'
p48
sS'x'
F832
sg18
I00
sS'y'
F966
s(dp49
g16
S'line'
p50
sS'x'
F785
sg18
I00
sS'y'
F851
s(dp51
S'y'
F858
sS'x'
F772
sg18
I00
s(dp52
S'y'
F917
sS'x'
F667
sg18
I00
s(dp53
g16
S'curve'
p54
sS'x'
F504
sg18
I01
sS'y'
F917
s(dp55
S'y'
F917
sS'x'
F355
sg18
I00
s(dp56
S'y'
F882
sS'x'
F283
sg18
I00
s(dp57
g16
S'curve'
p58
sS'x'
F283
sg18
I01
sS'y'
F774
s(dp59
S'y'
F660
sS'x'
F283
sg18
I00
s(dp60
S'y'
F629
sS'x'
F433
sg18
I00
s(dp61
g16
S'curve'
p62
sS'x'
F582
sg18
I01
sS'y'
F581
s(dp63
S'y'
F533
sS'x'
F732
sg18
I00
s(dp64
S'y'
F468
sS'x'
F881
sg18
I00
s(dp65
g16
S'curve'
p66
sS'x'
F881
sg18
I01
sS'y'
F284
s(dp67
S'y'
F62
sS'x'
F881
sg18
I00
s(dp68
S'y'
F-23
sS'x'
F685
sg18
I00
stp69
stp70
sS'components'
p71
(tsS'anchors'
p72
(tsss."
LayerCount: 2
Fore
SplineSet
656 323 m 0
 656 352 637 378 528 415 c 2
 388 462 l 2
 244 511 143 560 143 706 c 0
 143 957 350 1050 563 1050 c 0
 689 1050 825 1018 919 951 c 1
 833 781 l 1
 761 822 647 857 557 857 c 0
 438 857 383 830 383 746 c 0
 383 701 414 681 553 633 c 2
 682 588 l 2
 806 545 883 488 883 350 c 0
 883 73 659 -23 468 -23 c 0
 274 -23 128 43 56 106 c 1
 140 284 l 1
 214 219 350 172 470 172 c 0
 588 172 656 213 656 323 c 0
EndSplineSet
EndChar

StartChar: section
Encoding: 167 167 412
Width: 1104
VWidth: 0
Flags: HW
PickledData: "(dp1
S'org.robofab.postScriptHintData'
p2
(dp3
sS'com.typemytype.robofont.layerData'
p4
(dp5
S'b'
(dp6
S'name'
p7
S'section'
p8
sS'lib'
p9
(dp10
sS'unicodes'
p11
(tsS'width'
p12
F1071.6500000000001
sS'contours'
p13
(tsS'components'
p14
(tsS'anchors'
p15
(tsss."
LayerCount: 2
Fore
SplineSet
629 592 m 1
 650 617 671 649 671 701 c 0
 671 769 609 786 499 839 c 1
 484 828 427 782 427 722 c 0
 427 665 498 653 629 592 c 1
611 262 m 0
 611 306 554 335 346 442 c 0
 238 496 169 579 169 683 c 0
 169 796 238 882 329 943 c 1
 274 992 248 1049 248 1128 c 0
 248 1374 450 1481 678 1481 c 0
 773 1481 877 1464 970 1431 c 1
 945 1229 l 1
 892 1240 789 1288 688 1288 c 0
 613 1288 526 1258 526 1184 c 0
 526 1127 595 1074 720 1012 c 1
 842 944 952 877 952 748 c 0
 952 636 885 561 794 493 c 1
 855 454 887 388 887 304 c 0
 887 50 662 -61 427 -61 c 0
 317 -61 207 -41 100 0 c 1
 126 209 l 1
 207 175 337 144 443 144 c 0
 525 144 611 178 611 262 c 0
EndSplineSet
EndChar

StartChar: semicolon
Encoding: 59 59 413
Width: 539
VWidth: 0
Flags: HW
PickledData: "(dp1
S'org.robofab.postScriptHintData'
p2
(dp3
sS'com.typemytype.robofont.layerData'
p4
(dp5
s."
LayerCount: 2
Fore
SplineSet
232 900 m 1
 265 1171 l 1
 517 1171 l 1
 484 900 l 1
 232 900 l 1
-21 -229 m 1
 148 268 l 1
 429 268 l 1
 190 -229 l 1
 -21 -229 l 1
EndSplineSet
EndChar

StartChar: seven
Encoding: 55 55 414
Width: 1272
VWidth: 0
Flags: HW
PickledData: "(dp1
S'org.robofab.postScriptHintData'
p2
(dp3
sS'com.typemytype.robofont.layerData'
p4
(dp5
s."
LayerCount: 2
Fore
SplineSet
224 0 m 1
 928 1248 l 1
 209 1248 l 1
 234 1456 l 1
 1247 1456 l 1
 1224 1262 l 1
 496 0 l 1
 224 0 l 1
EndSplineSet
EndChar

StartChar: six
Encoding: 54 54 415
Width: 1272
VWidth: 0
Flags: HW
PickledData: "(dp1
S'org.robofab.postScriptHintData'
p2
(dp3
sS'com.typemytype.robofont.layerData'
p4
(dp5
s."
LayerCount: 2
Fore
SplineSet
894 529 m 0
 894 658 830 754 698 754 c 0
 527 754 399 617 399 428 c 0
 399 280 508 194 614 194 c 0
 777 194 894 340 894 529 c 0
832 1483 m 0
 981 1483 1102 1441 1186 1353 c 1
 1079 1164 l 1
 1000 1233 911 1266 808 1266 c 0
 644 1266 500 1110 443 885 c 0
 438 861 434 835 430 810 c 1
 524 926 637 962 738 962 c 0
 1000 962 1158 807 1158 556 c 0
 1158 530 1156 503 1153 476 c 0
 1117 191 899 -23 595 -23 c 0
 285 -23 137 194 137 532 c 0
 137 1044 406 1483 832 1483 c 0
EndSplineSet
EndChar

StartChar: slash
Encoding: 47 47 416
Width: 684
VWidth: 0
Flags: HW
PickledData: "(dp1
S'org.robofab.postScriptHintData'
p2
(dp3
sS'com.typemytype.robofont.layerData'
p4
(dp5
s."
LayerCount: 2
Fore
SplineSet
-185 -237 m 1
 668 1456 l 1
 888 1456 l 1
 30 -237 l 1
 -185 -237 l 1
EndSplineSet
EndChar

StartChar: softhyphen
Encoding: 173 173 418
Width: 739
VWidth: 0
Flags: HW
PickledData: "(dp1
S'org.robofab.postScriptHintData'
p2
(dp3
s."
LayerCount: 2
Fore
SplineSet
43 457 m 1
 66 647 l 1
 698 647 l 1
 675 457 l 1
 43 457 l 1
EndSplineSet
EndChar

StartChar: sterling
Encoding: 163 163 420
Width: 1255
VWidth: 0
Flags: HW
PickledData: "(dp1
S'org.robofab.postScriptHintData'
p2
(dp3
sS'com.typemytype.robofont.layerData'
p4
(dp5
S'b'
(dp6
S'name'
p7
S'sterling'
p8
sS'lib'
p9
(dp10
sS'unicodes'
p11
(tsS'width'
p12
F1207.3
sS'contours'
p13
(tsS'components'
p14
(tsS'anchors'
p15
(tsss."
LayerCount: 2
Fore
SplineSet
896 1282 m 0
 724 1282 635 1193 604 949 c 2
 591 842 l 1
 929 842 l 1
 905 649 l 1
 567 649 l 1
 563 618 l 2
 541 436 512 292 437 204 c 1
 1112 204 l 1
 1087 0 l 1
 55 0 l 1
 78 186 l 1
 161 258 280 324 317 622 c 2
 320 649 l 1
 135 649 l 1
 159 842 l 1
 340 842 l 1
 347 892 l 1
 386 1215 500 1484 905 1484 c 0
 1034 1484 1145 1463 1234 1411 c 1
 1149 1219 l 1
 1068 1258 990 1282 896 1282 c 0
EndSplineSet
EndChar

StartChar: summation
Encoding: 8721 8721 421
Width: 1262
VWidth: 0
Flags: HW
PickledData: "(dp1
S'org.robofab.postScriptHintData'
p2
(dp3
sS'com.typemytype.robofont.layerData'
p4
(dp5
S'b'
(dp6
S'name'
p7
S'summation'
p8
sS'lib'
p9
(dp10
sS'unicodes'
p11
(tsS'width'
p12
F1198.3
sS'contours'
p13
(tsS'components'
p14
(tsS'anchors'
p15
(tsss."
LayerCount: 2
Fore
SplineSet
-24 -267 m 1
 -8 -134 l 1
 602 604 l 1
 194 1328 l 1
 210 1456 l 1
 1276 1456 l 1
 1250 1252 l 1
 558 1252 l 1
 907 606 l 1
 383 -55 l 1
 1131 -55 l 1
 1106 -267 l 1
 -24 -267 l 1
EndSplineSet
EndChar

StartChar: t
Encoding: 116 116 422
Width: 804
VWidth: 0
Flags: HW
PickledData: "(dp1
S'org.robofab.postScriptHintData'
p2
(dp3
sS'com.typemytype.robofont.layerData'
p4
(dp5
S'b'
(dp6
S'name'
p7
S't'
sS'lib'
p8
(dp9
sS'unicodes'
p10
(tsS'width'
p11
F763.89999999999998
sS'contours'
p12
(tsS'components'
p13
(tsS'anchors'
p14
(tsss."
AnchorPoint: "caron.alt" 352 1360 basechar 0
LayerCount: 2
Fore
SplineSet
656 1 m 1
 556 1 l 2
 328 1 173 34 173 283 c 0
 173 311 175 342 179 376 c 2
 238 860 l 1
 24 860 l 1
 45 1026 l 1
 269 1026 l 1
 298 1266 l 1
 544 1339 l 1
 506 1026 l 1
 774 1026 l 1
 753 860 l 1
 485 860 l 1
 424 361 l 2
 421 340 420 322 420 306 c 0
 420 202 480 191 679 191 c 1
 656 1 l 1
EndSplineSet
EndChar

StartChar: thorn
Encoding: 254 254 427
Width: 1229
VWidth: 0
Flags: HW
PickledData: "(dp1
S'org.robofab.postScriptHintData'
p2
(dp3
sS'com.typemytype.robofont.layerData'
p4
(dp5
s."
LayerCount: 2
Fore
SplineSet
871 598 m 0
 871 736 820 849 665 849 c 0
 476 849 391 680 368 494 c 0
 365 471 364 448 364 427 c 0
 364 280 433 177 574 177 c 0
 770 177 871 379 871 598 c 0
27 -395 m 1
 254 1464 l 1
 492 1464 l 1
 426 948 l 1
 493 1012 633 1051 709 1051 c 0
 994 1051 1132 856 1132 611 c 0
 1132 583 1131 554 1127 525 c 0
 1092 240 899 -23 576 -23 c 0
 475 -23 378 16 314 62 c 1
 257 -395 l 1
 27 -395 l 1
EndSplineSet
EndChar

StartChar: three
Encoding: 51 51 428
Width: 1272
VWidth: 0
Flags: HW
PickledData: "(dp1
S'org.robofab.postScriptHintData'
p2
(dp3
sS'com.typemytype.robofont.layerData'
p4
(dp5
S'b'
(dp6
S'name'
p7
S'three'
p8
sS'lib'
p9
(dp10
sS'unicodes'
p11
(tsS'width'
p12
F1234.0999999999999
sS'contours'
p13
((dp14
S'points'
p15
((dp16
S'segmentType'
p17
S'curve'
p18
sS'x'
F344
sS'smooth'
p19
I01
sS'y'
F1010
s(dp20
S'y'
F827
sS'x'
F344
sg19
I00
s(dp21
S'y'
F687
sS'x'
F423
sg19
I00
s(dp22
g17
S'curve'
p23
sS'x'
F634
sg19
I01
sS'y'
F687
s(dp24
S'y'
F687
sS'x'
F814
sg19
I00
s(dp25
S'y'
F803
sS'x'
F938
sg19
I00
s(dp26
g17
S'curve'
p27
sS'x'
F938
sg19
I01
sS'y'
F991
s(dp28
S'y'
F1166
sS'x'
F938
sg19
I00
s(dp29
S'y'
F1334
sS'x'
F845
sg19
I00
s(dp30
g17
S'curve'
p31
sS'x'
F635
sg19
I01
sS'y'
F1334
s(dp32
S'y'
F1334
sS'x'
F449
sg19
I00
s(dp33
S'y'
F1196
sS'x'
F344
sg19
I00
stp34
s(dp35
g15
((dp36
g17
S'curve'
p37
sS'x'
F594
sg19
I01
sS'y'
F-24
s(dp38
S'y'
F-24
sS'x'
F473
sg19
I00
s(dp39
S'y'
F-1
sS'x'
F367
sg19
I00
s(dp40
g17
S'curve'
p41
sS'x'
F238
sg19
I00
sS'y'
F65
s(dp42
g17
S'line'
p43
sS'x'
F287
sg19
I00
sS'y'
F197
s(dp44
S'y'
F138
sS'x'
F401
sg19
I00
s(dp45
S'y'
F124
sS'x'
F489
sg19
I00
s(dp46
g17
S'curve'
p47
sS'x'
F581
sg19
I01
sS'y'
F124
s(dp48
S'y'
F124
sS'x'
F812
sg19
I00
s(dp49
S'y'
F308
sS'x'
F950
sg19
I00
s(dp50
g17
S'curve'
p51
sS'x'
F950
sg19
I01
sS'y'
F657
s(dp52
g17
S'line'
p53
sS'x'
F950
sg19
I00
sS'y'
F722
s(dp54
S'y'
F600
sS'x'
F886
sg19
I00
s(dp55
S'y'
F544
sS'x'
F772
sg19
I00
s(dp56
g17
S'curve'
p57
sS'x'
F607
sg19
I01
sS'y'
F544
s(dp58
S'y'
F544
sS'x'
F328
sg19
I00
s(dp59
S'y'
F735
sS'x'
F168
sg19
I00
s(dp60
g17
S'curve'
p61
sS'x'
F168
sg19
I01
sS'y'
F1004
s(dp62
S'y'
F1275
sS'x'
F168
sg19
I00
s(dp63
S'y'
F1483
sS'x'
F341
sg19
I00
s(dp64
g17
S'curve'
p65
sS'x'
F643
sg19
I01
sS'y'
F1483
s(dp66
S'y'
F1483
sS'x'
F969
sg19
I00
s(dp67
S'y'
F1231
sS'x'
F1125
sg19
I00
s(dp68
g17
S'curve'
p69
sS'x'
F1125
sg19
I01
sS'y'
F774
s(dp70
S'y'
F203
sS'x'
F1125
sg19
I00
s(dp71
S'y'
F-24
sS'x'
F894
sg19
I00
stp72
stp73
sS'components'
p74
(tsS'anchors'
p75
(tsss."
LayerCount: 2
Fore
SplineSet
530 -23 m 0
 232 -23 89 100 89 100 c 1
 190.894480794 290.802410114 l 1
 199.041576183 284.244223473 342.749578757 194 513 194 c 0
 695 194 803 283 820 424 c 0
 821 434 822 443 822 452 c 0
 822 589 688 651 480 651 c 2
 448 651 l 1
 384 649 l 1
 409 864 l 1
 480 864 l 2
 736 864 840 920 861 1097 c 0
 862 1103 862 1110 862 1116 c 0
 862 1217 747 1266 634 1266 c 0
 468 1266 367 1187 315 1160 c 1
 225 1343 l 1
 378 1437 472 1483 695 1483 c 0
 918 1483 1121 1375 1121 1151 c 0
 1121 1135 1120 1120 1118 1103 c 0
 1100 957 1000 794 804 765 c 1
 978 732 1070 609 1070 460 c 0
 1070 445 1069 429 1067 413 c 0
 1033 138 788 -23 530 -23 c 0
190.894480794 290.802410114 m 2
 191 291 l 2
 190.406100621 291.296949689 190.380074763 291.216492754 190.894480794 290.802410114 c 2
EndSplineSet
EndChar

StartChar: threequarters
Encoding: 190 190 429
Width: 2534
VWidth: 0
Flags: HW
PickledData: "(dp1
S'org.robofab.postScriptHintData'
p2
(dp3
sS'com.typemytype.robofont.layerData'
p4
(dp5
s."
LayerCount: 2
Fore
SplineSet
1533 329 m 1
 1710 329 l 1
 1741 583 l 1
 1533 329 l 1
560 0 m 1
 1624 1456 l 1
 1837 1456 l 1
 774 0 l 1
 560 0 l 1
1672 1 m 1
 1696 195 l 1
 1327 195 l 1
 1342 308 l 1
 1772 814 l 1
 1952 814 l 1
 1892 329 l 1
 2008 329 l 1
 1991 195 l 1
 1876 195 l 1
 1852 1 l 1
 1672 1 l 1
672 888 m 0
 672 943 619 984 527 984 c 2
 435 984 l 1
 452 1127 l 1
 542 1127 l 2
 628 1127 693 1167 693 1236 c 0
 693 1292 649 1316 582 1316 c 0
 522 1316 438 1295 352 1250 c 1
 308 1376 l 1
 414 1432 533 1462 633 1462 c 0
 772 1462 879 1405 879 1277 c 0
 879 1267 878 1257 877 1246 c 0
 869 1186 840 1107 716 1070 c 1
 828 1042 863 969 863 900 c 0
 863 891 862 881 861 872 c 0
 839 684 681 603 520 603 c 0
 419 603 312 636 235 697 c 1
 312 832 l 1
 395 778 467 756 524 756 c 0
 610 756 672 807 672 888 c 0
EndSplineSet
EndChar

StartChar: threesuperior
Encoding: 179 179 430
Width: 909
VWidth: 0
Flags: HW
PickledData: "(dp1
S'org.robofab.postScriptHintData'
p2
(dp3
sS'com.typemytype.robofont.layerData'
p4
(dp5
s."
LayerCount: 2
Fore
SplineSet
599 891 m 0
 599 944 548 984 458 984 c 2
 363 984 l 1
 381 1126 l 1
 474 1126 l 2
 557 1126 620 1172 620 1237 c 0
 620 1293 575 1320 509 1320 c 0
 449 1320 368 1299 279 1255 c 1
 234 1378 l 1
 344 1434 461 1463 563 1463 c 0
 702 1463 810 1407 810 1279 c 0
 810 1269 809 1260 808 1249 c 0
 800 1190 768 1113 649 1073 c 1
 759 1042 795 971 795 902 c 0
 795 893 794 884 793 875 c 0
 771 684 610 604 449 604 c 0
 347 604 241 637 162 697 c 1
 240 831 l 1
 325 778 395 756 452 756 c 0
 538 756 599 811 599 891 c 0
EndSplineSet
EndChar

StartChar: tilde
Encoding: 732 732 431
Width: 739
VWidth: 0
Flags: HW
PickledData: "(dp1
S'org.robofab.postScriptHintData'
p2
(dp3
sS'com.typemytype.robofont.layerData'
p4
(dp5
S'b'
(dp6
S'name'
p7
S'tilde'
p8
sS'lib'
p9
(dp10
sS'unicodes'
p11
(tsS'width'
p12
F672.35000000000002
sS'contours'
p13
(tsS'components'
p14
(tsS'anchors'
p15
(tsss."
LayerCount: 2
Fore
SplineSet
520 1362 m 0
 554 1362 586 1379 596 1470 c 1
 759 1470 l 1
 733 1266 632 1174 495 1174 c 0
 398 1174 281 1281 220 1281 c 0
 195 1281 157 1255 141 1179 c 1
 -19 1179 l 1
 1 1350 106 1470 235 1470 c 0
 363 1470 447 1362 520 1362 c 0
EndSplineSet
EndChar

StartChar: trademark
Encoding: 8482 8482 432
Width: 1869
VWidth: 0
Flags: HW
PickledData: "(dp1
S'org.robofab.postScriptHintData'
p2
(dp3
sS'com.typemytype.robofont.layerData'
p4
(dp5
S'b'
(dp6
S'name'
p7
S'trademark'
p8
sS'lib'
p9
(dp10
sS'unicodes'
p11
(tsS'width'
p12
F1869
sS'contours'
p13
(tsS'components'
p14
(tsS'anchors'
p15
(tsss."
LayerCount: 2
Fore
SplineSet
241 628 m 1
 316 1242 l 1
 100 1242 l 1
 121 1412 l 1
 755 1412 l 1
 733 1242 l 1
 510 1242 l 1
 435 628 l 1
 241 628 l 1
757 628 m 1
 853 1412 l 1
 1081 1412 l 1
 1248 922 l 1
 1531 1412 l 1
 1760 1412 l 1
 1664 628 l 1
 1466 628 l 1
 1520 1075 l 1
 1272 628 l 1
 1150 628 l 1
 1004 1064 l 1
 950 628 l 1
 757 628 l 1
EndSplineSet
EndChar

StartChar: two
Encoding: 50 50 433
Width: 1272
VWidth: 0
Flags: HW
PickledData: "(dp1
S'org.robofab.postScriptHintData'
p2
(dp3
sS'com.typemytype.robofont.layerData'
p4
(dp5
S'b'
(dp6
S'name'
p7
S'two'
p8
sS'lib'
p9
(dp10
sS'unicodes'
p11
(tsS'width'
p12
F1244.5
sS'contours'
p13
(tsS'components'
p14
(tsS'anchors'
p15
(tsss."
LayerCount: 2
Fore
SplineSet
643 1266 m 0
 470 1266 260 1138 259 1138 c 2
 198 1337 l 1
 198 1337 411 1481 691 1481 c 0
 929 1481 1081 1352 1081 1089 c 0
 1081 807 917 657 762 513 c 2
 435 208 l 1
 968 208 l 1
 942 0 l 1
 98 0 l 1
 121 183 l 1
 600 651 l 2
 763 811 837 880 837 1054 c 0
 837 1217 756 1266 643 1266 c 0
EndSplineSet
EndChar

StartChar: twosuperior
Encoding: 178 178 434
Width: 1072
VWidth: 0
Flags: HW
PickledData: "(dp1
S'org.robofab.postScriptHintData'
p2
(dp3
sS'com.typemytype.robofont.layerData'
p4
(dp5
s."
LayerCount: 2
Fore
SplineSet
173 613 m 1
 195 795 l 1
 485 1022 l 2
 614 1122 638 1172 642 1201 c 0
 643 1206 643 1211 643 1216 c 0
 643 1269 603 1287 550 1287 c 0
 483 1287 380 1259 291 1223 c 1
 251 1389 l 1
 366 1439 488 1466 586 1466 c 0
 733 1466 855 1402 855 1246 c 0
 855 1232 854 1218 852 1203 c 0
 837 1078 725 980 600 886 c 2
 502 813 l 1
 791 813 l 1
 767 613 l 1
 173 613 l 1
EndSplineSet
EndChar

StartChar: u
Encoding: 117 117 435
Width: 1186
VWidth: 0
Flags: HW
PickledData: "(dp1
S'org.robofab.postScriptHintData'
p2
(dp3
sS'com.typemytype.robofont.layerData'
p4
(dp5
S'b'
(dp6
S'name'
p7
S'u'
sS'lib'
p8
(dp9
sS'unicodes'
p10
(tsS'width'
p11
F1227.2
sS'contours'
p12
(tsS'components'
p13
(tsS'anchors'
p14
(tsss."
LayerCount: 2
Fore
SplineSet
460 -23 m 0
 235 -23 110 101 110 305 c 0
 110 328 112 351 115 376 c 2
 194 1026 l 1
 440 1026 l 1
 361 380 l 2
 359 366 358 353 358 340 c 0
 358 228 428 177 535 177 c 0
 681 177 761 244 782 411 c 2
 857 1026 l 1
 1105 1026 l 1
 1014 276 l 2
 1008 225 992 13 991 0 c 1
 735 0 l 1
 750 152 l 1
 731 103 640 -23 460 -23 c 0
EndSplineSet
EndChar

StartChar: underscore
Encoding: 95 95 446
Width: 1012
VWidth: 0
Flags: HW
PickledData: "(dp1
S'org.robofab.postScriptHintData'
p2
(dp3
sS'com.typemytype.robofont.layerData'
p4
(dp5
s."
LayerCount: 2
Fore
SplineSet
-25 -254 m 1
 -2 -59 l 1
 1037 -59 l 1
 1014 -254 l 1
 -25 -254 l 1
EndSplineSet
EndChar

StartChar: uni0307
Encoding: 775 775 459
Width: 524
VWidth: 0
Flags: HW
PickledData: "(dp1
S'org.robofab.postScriptHintData'
p2
(dp3
s."
LayerCount: 2
Fore
SplineSet
122 1153 m 1
 150 1386 l 1
 402 1386 l 1
 374 1153 l 1
 122 1153 l 1
EndSplineSet
EndChar

StartChar: uni030F
Encoding: 783 783 460
Width: 969
VWidth: 0
Flags: HW
PickledData: "(dp1
S'org.robofab.postScriptHintData'
p2
(dp3
s."
LayerCount: 2
Fore
SplineSet
676 1164 m 1
 414 1500 l 1
 711 1500 l 1
 859 1164 l 1
 676 1164 l 1
366 1164 m 1
 53 1500 l 1
 372 1500 l 1
 558 1164 l 1
 366 1164 l 1
EndSplineSet
EndChar

StartChar: uni0311
Encoding: 785 785 461
Width: 629
VWidth: 0
Flags: HW
PickledData: "(dp1
S'org.robofab.postScriptHintData'
p2
(dp3
sS'com.typemytype.robofont.layerData'
p4
(dp5
s."
LayerCount: 2
Fore
SplineSet
-32 1151 m 1
 6 1361 123 1454 331 1454 c 0
 531 1454 626 1368 626 1178 c 0
 626 1169 625 1160 625 1151 c 1
 437 1151 l 2
 437 1153 437 1155 437 1157 c 0
 437 1251 364 1267 308 1267 c 0
 251 1267 174 1251 157 1151 c 1
 -32 1151 l 1
EndSplineSet
EndChar

StartChar: uni0312
Encoding: 786 786 462
Width: 600
VWidth: 0
Flags: HW
PickledData: "(dp1
S'org.robofab.postScriptHintData'
p2
(dp3
s."
LayerCount: 2
Fore
SplineSet
613 1736 m 1
 439 1239 l 1
 161 1239 l 1
 403 1736 l 1
 613 1736 l 1
EndSplineSet
EndChar

StartChar: uni0326
Encoding: 806 806 463
Width: 540
VWidth: 0
Flags: HW
PickledData: "(dp1
S'org.robofab.postScriptHintData'
p2
(dp3
s."
LayerCount: 2
Fore
SplineSet
42 -647 m 1
 218 -142 l 1
 498 -142 l 1
 254 -647 l 1
 42 -647 l 1
EndSplineSet
EndChar

StartChar: uni2015
Encoding: 8213 8213 464
Width: 4095
VWidth: 0
Flags: HW
PickledData: "(dp1
S'org.robofab.postScriptHintData'
p2
(dp3
s."
LayerCount: 2
Fore
SplineSet
43 453 m 1
 66 641 l 1
 4053 641 l 1
 4030 453 l 1
 43 453 l 1
EndSplineSet
EndChar

StartChar: v
Encoding: 118 118 469
Width: 1126
VWidth: 0
Flags: HW
PickledData: "(dp1
S'org.robofab.postScriptHintData'
p2
(dp3
sS'com.typemytype.robofont.layerData'
p4
(dp5
S'b'
(dp6
S'name'
p7
S'v'
sS'lib'
p8
(dp9
sS'unicodes'
p10
(tsS'width'
p11
F1056.8
sS'contours'
p12
(tsS'components'
p13
(tsS'anchors'
p14
(tsss."
LayerCount: 2
Fore
SplineSet
386 0 m 1
 80 1026 l 1
 356 1026 l 1
 418 776 478 524 543 277 c 1
 666 524 784 776 904 1026 c 1
 1173 1026 l 1
 611 0 l 1
 386 0 l 1
EndSplineSet
EndChar

StartChar: w
Encoding: 119 119 470
Width: 1685
VWidth: 0
Flags: HW
PickledData: "(dp1
S'org.robofab.postScriptHintData'
p2
(dp3
sS'com.typemytype.robofont.layerData'
p4
(dp5
S'b'
(dp6
S'name'
p7
S'w'
sS'lib'
p8
(dp9
sS'unicodes'
p10
(tsS'width'
p11
F1634.0999999999999
sS'contours'
p12
(tsS'components'
p13
(tsS'anchors'
p14
(tsss."
LayerCount: 2
Fore
SplineSet
323 0 m 1
 77 1026 l 1
 341 1026 l 1
 389 786 440 547 486 305 c 1
 596 546 707 786 817 1026 c 1
 1033 1026 l 1
 1081 785 1124 541 1175 303 c 1
 1282 547 1394 785 1503 1026 c 1
 1734 1026 l 1
 1219 0 l 1
 1012 0 l 1
 963 233 912 464 865 698 c 1
 755 464 642 233 531 0 c 1
 323 0 l 1
EndSplineSet
EndChar

StartChar: x
Encoding: 120 120 475
Width: 1040
VWidth: 0
Flags: HW
PickledData: "(dp1
S'org.robofab.postScriptHintData'
p2
(dp3
sS'com.fontlab.hintData'
p4
(dp5
S'hhints'
p6
((dp7
S'position'
p8
I0
sS'width'
p9
I21
s(dp10
g8
I1006
sg9
I20
stp11
ssS'com.typemytype.robofont.layerData'
p12
(dp13
S'b'
(dp14
S'name'
p15
S'x'
sS'lib'
p16
(dp17
sS'unicodes'
p18
(tsg9
F1062.8499999999999
sS'contours'
p19
(tsS'components'
p20
(tsS'anchors'
p21
(tsss."
HStem: 0 21<-52 209 209 209 691 966 966 966> 1006 20<91 367 91 91 834 1090 834 834>
LayerCount: 2
Fore
SplineSet
-52 0 m 1
 380 500 l 1
 91 1026 l 1
 367 1026 l 1
 547 695 l 1
 834 1026 l 1
 1090 1026 l 1
 667 534 l 1
 966 0 l 1
 691 0 l 1
 501 339 l 1
 209 0 l 1
 -52 0 l 1
EndSplineSet
EndChar

StartChar: y
Encoding: 121 121 476
Width: 1114
VWidth: 0
Flags: HW
PickledData: "(dp1
S'org.robofab.postScriptHintData'
p2
(dp3
sS'com.typemytype.robofont.layerData'
p4
(dp5
S'b'
(dp6
S'name'
p7
S'y'
sS'lib'
p8
(dp9
sS'unicodes'
p10
(tsS'width'
p11
F1065.05
sS'contours'
p12
(tsS'components'
p13
(tsS'anchors'
p14
(tsss."
LayerCount: 2
Fore
SplineSet
164 -445 m 1
 79 -277 l 1
 272 -205 369 -136 413 -27 c 2
 433 23 l 1
 120 1026 l 1
 378 1026 l 1
 585 290 l 1
 931 1026 l 1
 1184 1026 l 1
 635 -56 l 2
 520 -278 337 -393 164 -445 c 1
EndSplineSet
EndChar

StartChar: yen
Encoding: 165 165 480
Width: 1280
VWidth: 0
Flags: HW
PickledData: "(dp1
S'org.robofab.postScriptHintData'
p2
(dp3
sS'com.typemytype.robofont.layerData'
p4
(dp5
S'b'
(dp6
S'name'
p7
S'yen'
p8
sS'lib'
p9
(dp10
sS'unicodes'
p11
(tsS'width'
p12
F1225.45
sS'contours'
p13
(tsS'components'
p14
(tsS'anchors'
p15
(tsss."
LayerCount: 2
Fore
SplineSet
416 0 m 1
 450 280 l 1
 85 280 l 1
 104 413 l 1
 466 413 l 1
 484 563 l 1
 479 573 l 1
 118 573 l 1
 136 713 l 1
 415 713 l 1
 75 1456 l 1
 364 1456 l 1
 642 789 l 1
 1083 1456 l 1
 1379 1456 l 1
 845 713 l 1
 1131 713 l 1
 1113 573 l 1
 744 573 l 1
 738 564 l 1
 720 413 l 1
 1102 413 l 1
 1082 280 l 1
 704 280 l 1
 670 0 l 1
 416 0 l 1
EndSplineSet
EndChar

StartChar: z
Encoding: 122 122 484
Width: 997
VWidth: 0
Flags: HW
PickledData: "(dp1
S'org.robofab.postScriptHintData'
p2
(dp3
sS'com.typemytype.robofont.layerData'
p4
(dp5
S'b'
(dp6
S'name'
p7
S'z'
sS'lib'
p8
(dp9
sS'unicodes'
p10
(tsS'width'
p11
F971.85000000000002
sS'contours'
p12
(tsS'components'
p13
(tsS'anchors'
p14
(tsss."
LayerCount: 2
Fore
SplineSet
34 0 m 1
 50 131 l 1
 619 828 l 1
 161 828 l 1
 185 1026 l 1
 966 1026 l 1
 950 897 l 1
 377 197 l 1
 890 197 l 1
 866 0 l 1
 34 0 l 1
EndSplineSet
EndChar

StartChar: zero
Encoding: 48 48 488
Width: 1272
VWidth: 0
Flags: HW
PickledData: "(dp1
S'org.robofab.postScriptHintData'
p2
(dp3
sS'com.typemytype.robofont.layerData'
p4
(dp5
s."
LayerCount: 2
Fore
SplineSet
544 -23 m 0
 260 -23 113 204 113 558 c 0
 113 616 117 677 125 741 c 0
 182 1207 395 1483 730 1483 c 0
 1016 1483 1161 1267 1161 922 c 0
 1161 865 1157 805 1149 741 c 0
 1094 287 881 -23 544 -23 c 0
371 532 m 0
 371 328 424 194 574 194 c 0
 762 194 852 424 890 740 c 0
 897 800 901 860 901 917 c 0
 901 1111 852 1266 706 1266 c 0
 463 1266 371 855 371 532 c 0
EndSplineSet
EndChar

